<svg width="25" height="25" viewBox="0 0 25 25" fill="none" xmlns="http://www.w3.org/2000/svg">
<path d="M12.8851 2.23962L22.2601 5.9896C22.6247 6.13543 22.9163 6.57292 22.9163 6.95834V10.4167C22.9163 10.9896 22.4476 11.4583 21.8747 11.4583H3.12467C2.55176 11.4583 2.08301 10.9896 2.08301 10.4167V6.95834C2.08301 6.57292 2.37468 6.13543 2.73926 5.9896L12.1143 2.23962C12.3226 2.15629 12.6768 2.15629 12.8851 2.23962Z" stroke="#CA1820" stroke-width="1.25" stroke-miterlimit="10" stroke-linecap="round" stroke-linejoin="round"/>
<path d="M22.9163 22.9167H2.08301V19.7917C2.08301 19.2187 2.55176 18.75 3.12467 18.75H21.8747C22.4476 18.75 22.9163 19.2187 22.9163 19.7917V22.9167Z" stroke="#CA1820" stroke-width="1.25" stroke-miterlimit="10" stroke-linecap="round" stroke-linejoin="round"/>
<path d="M4.16699 18.75V11.4584" stroke="#CA1820" stroke-width="1.25" stroke-miterlimit="10" stroke-linecap="round" stroke-linejoin="round"/>
<path d="M8.33301 18.75V11.4584" stroke="#CA1820" stroke-width="1.25" stroke-miterlimit="10" stroke-linecap="round" stroke-linejoin="round"/>
<path d="M12.5 18.75V11.4584" stroke="#CA1820" stroke-width="1.25" stroke-miterlimit="10" stroke-linecap="round" stroke-linejoin="round"/>
<path d="M16.667 18.75V11.4584" stroke="#CA1820" stroke-width="1.25" stroke-miterlimit="10" stroke-linecap="round" stroke-linejoin="round"/>
<path d="M20.833 18.75V11.4584" stroke="#CA1820" stroke-width="1.25" stroke-miterlimit="10" stroke-linecap="round" stroke-linejoin="round"/>
<path d="M1.04199 22.9166H23.9587" stroke="#CA1820" stroke-width="1.25" stroke-miterlimit="10" stroke-linecap="round" stroke-linejoin="round"/>
<path d="M12.5 8.85413C13.3629 8.85413 14.0625 8.15457 14.0625 7.29163C14.0625 6.42868 13.3629 5.72913 12.5 5.72913C11.6371 5.72913 10.9375 6.42868 10.9375 7.29163C10.9375 8.15457 11.6371 8.85413 12.5 8.85413Z" stroke="#CA1820" stroke-width="1.25" stroke-miterlimit="10" stroke-linecap="round" stroke-linejoin="round"/>
</svg>
