<svg width="25" height="25" viewBox="0 0 25 25" fill="none" xmlns="http://www.w3.org/2000/svg">
<g clip-path="url(#clip0_91_33979)">
<path opacity="0.982" fill-rule="evenodd" clip-rule="evenodd" d="M6.22559 0.756825C10.5075 0.733304 14.7881 0.757718 19.0674 0.830067C21.3016 1.29206 22.8722 2.56973 23.7793 4.66307C23.9708 5.16869 24.101 5.68954 24.1699 6.22557C24.2025 10.3922 24.2025 14.5589 24.1699 18.7256C23.7953 21.1182 22.5014 22.8027 20.2881 23.7793C19.7825 23.9708 19.2616 24.101 18.7256 24.1699C14.5589 24.2025 10.3922 24.2025 6.22559 24.1699C3.833 23.7953 2.14843 22.5014 1.17188 20.2881C0.980367 19.7825 0.850162 19.2616 0.781251 18.7256C0.748698 17.1956 0.748698 15.6657 0.781251 14.1357C0.999664 13.6972 1.3496 13.5425 1.83106 13.6719C2.05078 13.7614 2.20541 13.916 2.29492 14.1357C2.30077 15.634 2.33333 17.1314 2.39258 18.6279C2.82007 20.683 4.04891 21.9769 6.0791 22.5098C6.36958 22.5621 6.66255 22.5947 6.95801 22.6074C10.6364 22.64 14.3148 22.64 17.9932 22.6074C20.3799 22.4273 21.8854 21.1822 22.5098 18.8721C22.5597 18.5648 22.5922 18.2556 22.6074 17.9443C22.64 14.2985 22.64 10.6527 22.6074 7.00682C22.5115 4.97499 21.5431 3.53455 19.7022 2.68554C19.1526 2.47145 18.5829 2.35752 17.9932 2.34374C14.3148 2.31119 10.6364 2.31119 6.95801 2.34374C4.95195 2.46253 3.52781 3.43096 2.68555 5.24901C2.54805 5.59638 2.4504 5.95443 2.39258 6.32323C2.33333 7.81976 2.30077 9.31718 2.29492 10.8154C2.07651 11.254 1.72658 11.4086 1.24512 11.2793C1.02539 11.1898 0.870768 11.0351 0.781251 10.8154C0.748698 9.28549 0.748698 7.75551 0.781251 6.22557C1.17958 3.77673 2.52235 2.07588 4.80957 1.12304C5.27808 0.9612 5.7501 0.839129 6.22559 0.756825Z" fill="#CA1820"/>
<path opacity="0.963" fill-rule="evenodd" clip-rule="evenodd" d="M8.08162 4.27246C8.58645 4.26433 9.09099 4.27247 9.59529 4.29687C10.0339 4.51528 10.1885 4.86521 10.0592 5.34667C9.96965 5.5664 9.81502 5.72104 9.59529 5.81054C8.91048 5.79799 8.24314 5.89565 7.59334 6.10351C6.67376 6.55141 6.11223 7.27568 5.90877 8.27636C5.86287 8.71479 5.8303 9.15424 5.81111 9.59472C5.60476 10.0112 5.27112 10.1659 4.81013 10.0586C4.56242 9.98994 4.39152 9.83535 4.29744 9.59472C4.04758 7.28598 4.9509 5.61767 7.0074 4.58984C7.36419 4.45711 7.72229 4.35131 8.08162 4.27246Z" fill="#CA1820"/>
<path opacity="0.963" fill-rule="evenodd" clip-rule="evenodd" d="M15.3567 4.27243C17.6627 4.04558 19.331 4.95705 20.3616 7.00681C20.6633 7.84426 20.761 8.70686 20.6545 9.5947C20.4482 10.0112 20.1145 10.1658 19.6536 10.0586C19.4059 9.98991 19.235 9.83532 19.1409 9.5947C19.149 8.91037 19.0514 8.24304 18.8479 7.59275C18.4432 6.76477 17.8003 6.2195 16.9192 5.957C16.4024 5.86862 15.8815 5.8198 15.3567 5.81052C14.9181 5.59211 14.7635 5.24216 14.8928 4.76071C14.9915 4.54001 15.1462 4.37725 15.3567 4.27243Z" fill="#CA1820"/>
<path opacity="0.995" fill-rule="evenodd" clip-rule="evenodd" d="M4.76079 11.6943C9.90406 11.6862 15.0473 11.6943 20.1905 11.7188C20.5316 11.8558 20.6944 12.1081 20.6788 12.4756C20.6944 12.8431 20.5316 13.0954 20.1905 13.2324C15.0473 13.265 9.90401 13.265 4.76079 13.2324C4.41963 13.0954 4.25687 12.8431 4.27251 12.4756C4.26285 12.1038 4.42561 11.8433 4.76079 11.6943Z" fill="#CA1820"/>
<path opacity="0.963" fill-rule="evenodd" clip-rule="evenodd" d="M4.76065 14.8682C5.24209 14.7632 5.59204 14.9259 5.81045 15.3564C5.8023 16.0408 5.89995 16.7081 6.10342 17.3584C6.50811 18.1864 7.15103 18.7316 8.03213 18.9941C8.54893 19.0825 9.06978 19.1313 9.59463 19.1406C10.0332 19.359 10.1878 19.709 10.0585 20.1904C9.969 20.4101 9.81436 20.5648 9.59463 20.6543C7.28765 20.905 5.61934 20.0016 4.58975 17.9443C4.25121 17.0321 4.18611 16.1043 4.39444 15.1611C4.49766 15.0331 4.61973 14.9355 4.76065 14.8682Z" fill="#CA1820"/>
<path opacity="0.963" fill-rule="evenodd" clip-rule="evenodd" d="M19.6046 14.8682C20.4868 14.8151 20.8449 15.2301 20.6789 16.1133C20.6525 18.1036 19.7411 19.5196 17.9445 20.3613C17.0322 20.6999 16.1045 20.765 15.1613 20.5566C14.8846 20.2969 14.795 19.9795 14.8927 19.6045C14.9822 19.3848 15.1369 19.2301 15.3566 19.1406C16.0414 19.1532 16.7087 19.0555 17.3585 18.8477C18.1865 18.443 18.7318 17.8 18.9943 16.9189C19.0793 16.4018 19.1281 15.881 19.1408 15.3564C19.2395 15.1357 19.3941 14.973 19.6046 14.8682Z" fill="#CA1820"/>
</g>
<defs>
<clipPath id="clip0_91_33979">
<rect width="25" height="25" fill="white"/>
</clipPath>
</defs>
</svg>
