<svg width="344" height="201" viewBox="0 0 344 201" fill="none" xmlns="http://www.w3.org/2000/svg">
<rect x="0.5" width="343" height="200.356" rx="30" fill="url(#paint0_linear_139_3344)"/>
<mask id="mask0_139_3344" style="mask-type:alpha" maskUnits="userSpaceOnUse" x="0" y="0" width="344" height="201">
<rect x="0.5" width="343" height="200.356" rx="30" fill="#ED713C"/>
</mask>
<g mask="url(#mask0_139_3344)">
<ellipse opacity="0.1" cx="27.1778" cy="231.933" rx="174.767" ry="123.044" fill="black"/>
<ellipse opacity="0.08" cx="316.822" cy="-31.5776" rx="174.767" ry="123.044" fill="black"/>
</g>
<path d="M29.875 149.574C29.1259 149.574 28.4879 149.37 27.9609 148.963C27.4339 148.552 27.0313 147.957 26.7528 147.178C26.4744 146.396 26.3352 145.451 26.3352 144.344C26.3352 143.244 26.4744 142.304 26.7528 141.525C27.0346 140.743 27.4389 140.146 27.9659 139.735C28.4962 139.321 29.1326 139.114 29.875 139.114C30.6174 139.114 31.2521 139.321 31.7791 139.735C32.3094 140.146 32.7138 140.743 32.9922 141.525C33.2739 142.304 33.4148 143.244 33.4148 144.344C33.4148 145.451 33.2756 146.396 32.9972 147.178C32.7188 147.957 32.3161 148.552 31.7891 148.963C31.2621 149.37 30.6241 149.574 29.875 149.574ZM29.875 148.48C30.6174 148.48 31.1941 148.122 31.6051 147.407C32.0161 146.691 32.2216 145.67 32.2216 144.344C32.2216 143.462 32.1271 142.712 31.9382 142.092C31.7526 141.472 31.4841 141 31.1328 140.675C30.7848 140.35 30.3655 140.188 29.875 140.188C29.1392 140.188 28.5642 140.551 28.1499 141.277C27.7356 141.999 27.5284 143.022 27.5284 144.344C27.5284 145.226 27.6212 145.975 27.8068 146.591C27.9924 147.208 28.2592 147.677 28.6072 147.998C28.9586 148.32 29.3812 148.48 29.875 148.48ZM39.0455 139.114C39.4631 139.117 39.8807 139.197 40.2983 139.353C40.7159 139.508 41.0971 139.767 41.4418 140.128C41.7865 140.486 42.0632 140.975 42.272 141.595C42.4808 142.215 42.5852 142.992 42.5852 143.926C42.5852 144.831 42.4991 145.635 42.3267 146.338C42.1577 147.037 41.9124 147.627 41.5909 148.108C41.2727 148.588 40.8849 148.953 40.4276 149.201C39.9735 149.45 39.4598 149.574 38.8864 149.574C38.3163 149.574 37.8075 149.461 37.3601 149.236C36.916 149.007 36.5514 148.691 36.2663 148.286C35.9846 147.879 35.804 147.407 35.7244 146.87H36.9375C37.0469 147.337 37.264 147.723 37.5888 148.028C37.9169 148.33 38.3494 148.48 38.8864 148.48C39.6719 148.48 40.2917 148.137 40.7457 147.451C41.2031 146.765 41.4318 145.796 41.4318 144.543H41.3523C41.1667 144.821 40.9463 145.062 40.6911 145.264C40.4358 145.466 40.1525 145.622 39.8409 145.731C39.5294 145.84 39.1979 145.895 38.8466 145.895C38.2633 145.895 37.728 145.751 37.2408 145.463C36.7569 145.171 36.3691 144.772 36.0774 144.264C35.7891 143.754 35.6449 143.171 35.6449 142.514C35.6449 141.891 35.7841 141.321 36.0625 140.804C36.3442 140.284 36.7386 139.87 37.2457 139.561C37.7562 139.253 38.3561 139.104 39.0455 139.114ZM39.0455 140.208C38.6278 140.208 38.2517 140.312 37.9169 140.521C37.5855 140.726 37.322 141.005 37.1264 141.356C36.9342 141.704 36.8381 142.09 36.8381 142.514C36.8381 142.939 36.9309 143.325 37.1165 143.673C37.3054 144.018 37.5623 144.293 37.8871 144.498C38.2152 144.7 38.5881 144.801 39.0057 144.801C39.3205 144.801 39.6139 144.74 39.8857 144.617C40.1574 144.492 40.3944 144.321 40.5966 144.105C40.8021 143.887 40.9628 143.64 41.0788 143.365C41.1948 143.086 41.2528 142.796 41.2528 142.495C41.2528 142.097 41.1567 141.724 40.9645 141.376C40.7756 141.028 40.5137 140.746 40.179 140.531C39.8475 140.315 39.4697 140.208 39.0455 140.208ZM48.6596 138.776L45.3784 150.966H44.3045L47.5858 138.776H48.6596ZM50.5305 149.435V148.54L53.8913 144.861C54.2857 144.43 54.6106 144.056 54.8658 143.737C55.121 143.416 55.3099 143.114 55.4325 142.833C55.5585 142.548 55.6214 142.249 55.6214 141.938C55.6214 141.58 55.5353 141.27 55.3629 141.008C55.1939 140.746 54.9619 140.544 54.6669 140.402C54.3719 140.259 54.0405 140.188 53.6726 140.188C53.2815 140.188 52.9401 140.269 52.6484 140.431C52.3601 140.59 52.1364 140.814 51.9773 141.103C51.8215 141.391 51.7436 141.729 51.7436 142.117H50.5703C50.5703 141.52 50.7079 140.996 50.983 140.546C51.258 140.095 51.6326 139.744 52.1065 139.492C52.5838 139.24 53.1191 139.114 53.7124 139.114C54.3089 139.114 54.8376 139.24 55.2983 139.492C55.759 139.744 56.1203 140.083 56.3821 140.511C56.6439 140.938 56.7749 141.414 56.7749 141.938C56.7749 142.312 56.7069 142.679 56.571 143.036C56.4384 143.391 56.2064 143.787 55.875 144.225C55.5469 144.659 55.0911 145.189 54.5078 145.816L52.2209 148.262V148.341H56.9538V149.435H50.5305ZM62.6889 149.574C62.1056 149.574 61.5803 149.458 61.1129 149.226C60.6456 148.994 60.2711 148.676 59.9893 148.272C59.7076 147.867 59.5535 147.407 59.527 146.889H60.7202C60.7666 147.35 60.9754 147.731 61.3466 148.033C61.7211 148.331 62.1686 148.48 62.6889 148.48C63.1065 148.48 63.4777 148.383 63.8026 148.187C64.1307 147.992 64.3875 147.723 64.5732 147.382C64.7621 147.037 64.8565 146.648 64.8565 146.213C64.8565 145.769 64.7588 145.373 64.5632 145.025C64.371 144.674 64.1058 144.397 63.7678 144.195C63.4297 143.993 63.0436 143.89 62.6094 143.887C62.2978 143.883 61.978 143.931 61.6499 144.031C61.3217 144.127 61.0516 144.251 60.8395 144.404L59.6861 144.264L60.3026 139.253H65.5923V140.347H61.3366L60.9787 143.35H61.0384C61.2472 143.184 61.509 143.046 61.8239 142.937C62.1387 142.828 62.4669 142.773 62.8082 142.773C63.4313 142.773 63.9865 142.922 64.4737 143.22C64.9643 143.515 65.3487 143.92 65.6271 144.434C65.9089 144.947 66.0497 145.534 66.0497 146.193C66.0497 146.843 65.9039 147.423 65.6122 147.934C65.3239 148.441 64.9261 148.842 64.419 149.137C63.9119 149.428 63.3352 149.574 62.6889 149.574Z" fill="white"/>
<path d="M31.3295 75.8895C31.2784 75.4577 31.071 75.1224 30.7074 74.8838C30.3438 74.6452 29.8977 74.5258 29.3693 74.5258C28.983 74.5258 28.6449 74.5883 28.3551 74.7133C28.0682 74.8383 27.8438 75.0102 27.6818 75.229C27.5227 75.4477 27.4432 75.6963 27.4432 75.9747C27.4432 76.2077 27.4986 76.4079 27.6094 76.5756C27.723 76.7403 27.8679 76.8781 28.044 76.9889C28.2202 77.0969 28.4048 77.1864 28.598 77.2574C28.7912 77.3256 28.9688 77.381 29.1307 77.4236L30.017 77.6622C30.2443 77.7219 30.4972 77.8043 30.7756 77.9094C31.0568 78.0145 31.3253 78.1579 31.581 78.3398C31.8395 78.5187 32.0526 78.7489 32.2202 79.0301C32.3878 79.3114 32.4716 79.6565 32.4716 80.0656C32.4716 80.5372 32.348 80.9633 32.1009 81.344C31.8565 81.7247 31.4986 82.0273 31.027 82.2517C30.5582 82.4761 29.9886 82.5883 29.3182 82.5883C28.6932 82.5883 28.152 82.4875 27.6946 82.2858C27.2401 82.0841 26.8821 81.8028 26.6207 81.442C26.3622 81.0812 26.2159 80.6622 26.1818 80.1849H27.2727C27.3011 80.5145 27.4119 80.7872 27.6051 81.0031C27.8011 81.2162 28.0483 81.3753 28.3466 81.4804C28.6477 81.5827 28.9716 81.6338 29.3182 81.6338C29.7216 81.6338 30.0838 81.5685 30.4048 81.4378C30.7259 81.3043 30.9801 81.1196 31.1676 80.8838C31.3551 80.6452 31.4489 80.3668 31.4489 80.0486C31.4489 79.7588 31.3679 79.523 31.206 79.3412C31.044 79.1594 30.831 79.0116 30.5668 78.898C30.3026 78.7844 30.017 78.6849 29.7102 78.5997L28.6364 78.2929C27.9545 78.0969 27.4148 77.817 27.017 77.4534C26.6193 77.0898 26.4205 76.6139 26.4205 76.0258C26.4205 75.5372 26.5526 75.1111 26.8168 74.7474C27.0838 74.381 27.4418 74.0969 27.8906 73.8952C28.3423 73.6906 28.8466 73.5883 29.4034 73.5883C29.9659 73.5883 30.4659 73.6892 30.9034 73.8909C31.3409 74.0898 31.6875 74.3625 31.9432 74.7091C32.2017 75.0557 32.3381 75.4491 32.3523 75.8895H31.3295ZM37.2319 82.5713C36.641 82.5713 36.1225 82.4307 35.6765 82.1494C35.2333 81.8682 34.8867 81.4747 34.6367 80.969C34.3896 80.4633 34.266 79.8724 34.266 79.1963C34.266 78.5145 34.3896 77.9193 34.6367 77.4108C34.8867 76.9023 35.2333 76.5074 35.6765 76.2261C36.1225 75.9449 36.641 75.8043 37.2319 75.8043C37.8228 75.8043 38.3398 75.9449 38.783 76.2261C39.229 76.5074 39.5756 76.9023 39.8228 77.4108C40.0728 77.9193 40.1978 78.5145 40.1978 79.1963C40.1978 79.8724 40.0728 80.4633 39.8228 80.969C39.5756 81.4747 39.229 81.8682 38.783 82.1494C38.3398 82.4307 37.8228 82.5713 37.2319 82.5713ZM37.2319 81.6679C37.6808 81.6679 38.0501 81.5528 38.3398 81.3227C38.6296 81.0926 38.8441 80.7901 38.9833 80.4151C39.1225 80.0401 39.1921 79.6338 39.1921 79.1963C39.1921 78.7588 39.1225 78.3511 38.9833 77.9733C38.8441 77.5954 38.6296 77.2901 38.3398 77.0571C38.0501 76.8241 37.6808 76.7077 37.2319 76.7077C36.783 76.7077 36.4137 76.8241 36.1239 77.0571C35.8342 77.2901 35.6197 77.5954 35.4805 77.9733C35.3413 78.3511 35.2717 78.7588 35.2717 79.1963C35.2717 79.6338 35.3413 80.0401 35.4805 80.4151C35.6197 80.7901 35.8342 81.0926 36.1239 81.3227C36.4137 81.5528 36.783 81.6679 37.2319 81.6679ZM35.033 75.0713L36.7717 73.5202H37.7092L39.4478 75.0713H38.2205L37.2489 74.1679L36.2773 75.0713H35.033ZM38.9876 74.0315L39.8228 72.4974H41.0671L39.8739 74.0315H38.9876ZM48.9545 75.8895V76.7418H45.5625V75.8895H48.9545ZM46.5511 74.3213H47.5568V80.5599C47.5568 80.844 47.598 81.0571 47.6804 81.1991C47.7656 81.3383 47.8736 81.4321 48.0043 81.4804C48.1378 81.5258 48.2784 81.5486 48.4261 81.5486C48.5369 81.5486 48.6278 81.5429 48.6989 81.5315C48.7699 81.5173 48.8267 81.506 48.8693 81.4974L49.0739 82.4008C49.0057 82.4264 48.9105 82.452 48.7884 82.4776C48.6662 82.506 48.5114 82.5202 48.3239 82.5202C48.0398 82.5202 47.7614 82.4591 47.4886 82.3369C47.2188 82.2148 46.9943 82.0287 46.8153 81.7787C46.6392 81.5287 46.5511 81.2133 46.5511 80.8327V74.3213ZM52.1136 78.4974V82.4349H51.108V73.7077H52.1136V76.9122H52.1989C52.3523 76.5741 52.5824 76.3057 52.8892 76.1068C53.1989 75.9051 53.6108 75.8043 54.125 75.8043C54.571 75.8043 54.9616 75.8937 55.2969 76.0727C55.6321 76.2489 55.892 76.5202 56.0767 76.8866C56.2642 77.2503 56.358 77.7133 56.358 78.2758V82.4349H55.3523V78.344C55.3523 77.8241 55.2173 77.4222 54.9474 77.1381C54.6804 76.8511 54.3097 76.7077 53.8352 76.7077C53.5057 76.7077 53.2102 76.7773 52.9489 76.9165C52.6903 77.0557 52.4858 77.2588 52.3352 77.5258C52.1875 77.7929 52.1136 78.1168 52.1136 78.4974ZM61.4421 82.5713C60.8114 82.5713 60.2674 82.4321 59.81 82.1537C59.3555 81.8724 59.0046 81.4804 58.7575 80.9776C58.5131 80.4719 58.391 79.8838 58.391 79.2133C58.391 78.5429 58.5131 77.952 58.7575 77.4406C59.0046 76.9264 59.3484 76.5258 59.7887 76.2389C60.2319 75.9491 60.7489 75.8043 61.3398 75.8043C61.6808 75.8043 62.0174 75.8611 62.3498 75.9747C62.6822 76.0883 62.9847 76.273 63.2575 76.5287C63.5302 76.7815 63.7475 77.1168 63.9094 77.5344C64.0714 77.952 64.1523 78.4662 64.1523 79.077V79.5031H59.1069V78.6338H63.1296C63.1296 78.2645 63.0558 77.9349 62.908 77.6452C62.7631 77.3554 62.5558 77.1267 62.2859 76.9591C62.0188 76.7915 61.7035 76.7077 61.3398 76.7077C60.9393 76.7077 60.5927 76.8071 60.3001 77.006C60.0103 77.202 59.7873 77.4577 59.631 77.773C59.4748 78.0883 59.3967 78.4264 59.3967 78.7872V79.3668C59.3967 79.8611 59.4819 80.2801 59.6523 80.6239C59.8256 80.9648 60.0657 81.2247 60.3725 81.4037C60.6793 81.5798 61.0359 81.6679 61.4421 81.6679C61.7063 81.6679 61.945 81.631 62.158 81.5571C62.3739 81.4804 62.56 81.3668 62.7163 81.2162C62.8725 81.0628 62.9933 80.8724 63.0785 80.6452L64.0501 80.9179C63.9478 81.2474 63.7759 81.5372 63.5344 81.7872C63.293 82.0344 62.9947 82.2276 62.6396 82.3668C62.2844 82.5031 61.8853 82.5713 61.4421 82.5713ZM61.7319 75.0031H60.8967V74.0827C61.195 74.0656 61.4052 74.0244 61.5273 73.9591C61.6523 73.8937 61.7148 73.7929 61.7148 73.6565C61.7148 73.5031 61.6254 73.3909 61.4464 73.3199C61.2674 73.2489 61.0501 73.2133 60.7944 73.2133L60.8285 72.5656C61.4165 72.5656 61.8612 72.6679 62.1623 72.8724C62.4663 73.077 62.6183 73.3497 62.6183 73.6906C62.6183 73.9804 62.5259 74.192 62.3413 74.3256C62.1566 74.4591 61.9535 74.5429 61.7319 74.577V75.0031Z" fill="white"/>
<path opacity="0.9" d="M30.946 110.614C30.196 110.614 29.5206 110.465 28.9197 110.166C28.3189 109.868 27.8374 109.459 27.4751 108.939C27.1129 108.419 26.9148 107.827 26.8807 107.162H28.4148C28.4744 107.755 28.7429 108.245 29.2202 108.632C29.7017 109.016 30.277 109.208 30.946 109.208C31.483 109.208 31.9602 109.082 32.3778 108.831C32.7997 108.579 33.13 108.234 33.3686 107.795C33.6115 107.352 33.733 106.851 33.733 106.293C33.733 105.722 33.6072 105.213 33.3558 104.765C33.1087 104.313 32.7678 103.958 32.3331 103.698C31.8984 103.438 31.402 103.306 30.8438 103.301C30.4432 103.297 30.032 103.359 29.6101 103.487C29.1882 103.61 28.8409 103.77 28.5682 103.966L27.0852 103.787L27.8778 97.344H34.679V98.7503H29.2074L28.7472 102.611H28.8239C29.0923 102.398 29.429 102.221 29.8338 102.081C30.2386 101.94 30.6605 101.87 31.0994 101.87C31.9006 101.87 32.6143 102.061 33.2408 102.445C33.8714 102.824 34.3658 103.344 34.7237 104.005C35.0859 104.665 35.267 105.419 35.267 106.267C35.267 107.103 35.0795 107.848 34.7045 108.505C34.3338 109.157 33.8224 109.672 33.1705 110.051C32.5185 110.426 31.777 110.614 30.946 110.614ZM38.3063 110.435V109.284L42.6273 104.554C43.1344 104 43.552 103.519 43.8801 103.11C44.2083 102.696 44.4512 102.309 44.6088 101.946C44.7708 101.58 44.8517 101.196 44.8517 100.796C44.8517 100.336 44.7409 99.9371 44.5194 99.6004C44.302 99.2638 44.0037 99.0038 43.6245 98.8206C43.2452 98.6374 42.8191 98.5457 42.3461 98.5457C41.8432 98.5457 41.4043 98.6501 41.0293 98.8589C40.6586 99.0635 40.3709 99.3511 40.1664 99.7219C39.9661 100.093 39.8659 100.527 39.8659 101.026H38.3574C38.3574 100.259 38.5343 99.5855 38.888 99.006C39.2417 98.4264 39.7232 97.9747 40.3326 97.6508C40.9462 97.327 41.6344 97.165 42.3972 97.165C43.1642 97.165 43.8439 97.327 44.4363 97.6508C45.0286 97.9747 45.4931 98.4115 45.8297 98.9612C46.1664 99.5109 46.3347 100.122 46.3347 100.796C46.3347 101.277 46.2473 101.748 46.0726 102.208C45.9022 102.664 45.6039 103.174 45.1777 103.736C44.7559 104.294 44.1699 104.976 43.4199 105.782L40.4796 108.926V109.029H46.5648V110.435H38.3063ZM53.8979 110.614C53.0201 110.614 52.2445 110.458 51.5712 110.147C50.9022 109.832 50.3801 109.399 50.0051 108.85C49.6301 108.296 49.4448 107.665 49.449 106.958C49.4448 106.404 49.5534 105.892 49.775 105.424C49.9966 104.951 50.2992 104.556 50.6827 104.241C51.0705 103.921 51.503 103.719 51.9803 103.634V103.557C51.3539 103.395 50.8553 103.044 50.4846 102.502C50.1138 101.957 49.9306 101.337 49.9348 100.642C49.9306 99.9776 50.0989 99.3831 50.4398 98.8589C50.7807 98.3348 51.2495 97.9214 51.8461 97.6189C52.4469 97.3163 53.1309 97.165 53.8979 97.165C54.6564 97.165 55.334 97.3163 55.9306 97.6189C56.5272 97.9214 56.9959 98.3348 57.3368 98.8589C57.682 99.3831 57.8567 99.9776 57.861 100.642C57.8567 101.337 57.6671 101.957 57.2921 102.502C56.9213 103.044 56.4292 103.395 55.8155 103.557V103.634C56.2885 103.719 56.7147 103.921 57.0939 104.241C57.4732 104.556 57.7757 104.951 58.0016 105.424C58.2275 105.892 58.3425 106.404 58.3468 106.958C58.3425 107.665 58.1507 108.296 57.7715 108.85C57.3965 109.399 56.8745 109.832 56.2054 110.147C55.5407 110.458 54.7715 110.614 53.8979 110.614ZM53.8979 109.208C54.4902 109.208 55.0016 109.112 55.432 108.92C55.8624 108.728 56.1948 108.458 56.4292 108.108C56.6635 107.759 56.7828 107.35 56.7871 106.881C56.7828 106.387 56.655 105.95 56.4036 105.571C56.1522 105.191 55.8091 104.893 55.3745 104.676C54.9441 104.458 54.4519 104.35 53.8979 104.35C53.3397 104.35 52.8411 104.458 52.4022 104.676C51.9675 104.893 51.6245 105.191 51.373 105.571C51.1259 105.95 51.0044 106.387 51.0087 106.881C51.0044 107.35 51.1174 107.759 51.3475 108.108C51.5819 108.458 51.9164 108.728 52.351 108.92C52.7857 109.112 53.3013 109.208 53.8979 109.208ZM53.8979 102.995C54.3667 102.995 54.7821 102.901 55.1444 102.713C55.5108 102.526 55.7985 102.264 56.0073 101.927C56.2161 101.59 56.3226 101.196 56.3269 100.745C56.3226 100.301 56.2182 99.9158 56.0137 99.5876C55.8091 99.2552 55.5257 98.9996 55.1635 98.8206C54.8013 98.6374 54.3794 98.5457 53.8979 98.5457C53.4078 98.5457 52.9796 98.6374 52.6131 98.8206C52.2466 98.9996 51.9632 99.2552 51.763 99.5876C51.5627 99.9158 51.4647 100.301 51.4689 100.745C51.4647 101.196 51.5648 101.59 51.7694 101.927C51.9782 102.264 52.2658 102.526 52.6323 102.713C52.9988 102.901 53.4206 102.995 53.8979 102.995ZM61.2965 110.435V109.284L65.6175 104.554C66.1246 104 66.5423 103.519 66.8704 103.11C67.1985 102.696 67.4414 102.309 67.5991 101.946C67.761 101.58 67.842 101.196 67.842 100.796C67.842 100.336 67.7312 99.9371 67.5096 99.6004C67.2923 99.2638 66.994 99.0038 66.6147 98.8206C66.2354 98.6374 65.8093 98.5457 65.3363 98.5457C64.8335 98.5457 64.3945 98.6501 64.0195 98.8589C63.6488 99.0635 63.3612 99.3511 63.1566 99.7219C62.9563 100.093 62.8562 100.527 62.8562 101.026H61.3477C61.3477 100.259 61.5245 99.5855 61.8782 99.006C62.2319 98.4264 62.7134 97.9747 63.3228 97.6508C63.9364 97.327 64.6246 97.165 65.3874 97.165C66.1545 97.165 66.8342 97.327 67.4265 97.6508C68.0188 97.9747 68.4833 98.4115 68.82 98.9612C69.1566 99.5109 69.3249 100.122 69.3249 100.796C69.3249 101.277 69.2376 101.748 69.0629 102.208C68.8924 102.664 68.5941 103.174 68.168 103.736C67.7461 104.294 67.1602 104.976 66.4102 105.782L63.4698 108.926V109.029H69.555V110.435H61.2965ZM82.6808 110.614C81.837 110.614 81.0849 110.469 80.4244 110.179C79.7681 109.889 79.2461 109.487 78.8583 108.971C78.4748 108.451 78.266 107.848 78.2319 107.162H79.8427C79.8768 107.584 80.0217 107.948 80.2773 108.255C80.533 108.558 80.8675 108.792 81.2809 108.958C81.6942 109.125 82.1523 109.208 82.6552 109.208C83.2177 109.208 83.7163 109.11 84.1509 108.914C84.5856 108.718 84.9265 108.445 85.1737 108.095C85.4208 107.746 85.5444 107.341 85.5444 106.881C85.5444 106.399 85.4251 105.975 85.1864 105.609C84.9478 105.238 84.5984 104.948 84.1381 104.74C83.6779 104.531 83.1154 104.426 82.4506 104.426H81.4023V103.02H82.4506C82.9705 103.02 83.4265 102.926 83.8185 102.739C84.2148 102.551 84.5238 102.287 84.7454 101.946C84.9712 101.605 85.0842 101.205 85.0842 100.745C85.0842 100.301 84.9862 99.9158 84.7901 99.5876C84.5941 99.2595 84.3171 99.0038 83.9592 98.8206C83.6055 98.6374 83.1879 98.5457 82.7063 98.5457C82.2546 98.5457 81.8285 98.6288 81.4279 98.795C81.0316 98.957 80.7077 99.1935 80.4563 99.5045C80.2049 99.8114 80.0685 100.182 80.0472 100.617H78.5131C78.5387 99.9307 78.7454 99.3298 79.1332 98.8142C79.521 98.2943 80.0281 97.8895 80.6545 97.5997C81.2852 97.3099 81.9776 97.165 82.7319 97.165C83.5415 97.165 84.2362 97.3291 84.8157 97.6572C85.3952 97.9811 85.8406 98.4094 86.1516 98.942C86.4627 99.4747 86.6183 100.05 86.6183 100.668C86.6183 101.405 86.4244 102.034 86.0366 102.554C85.6531 103.073 85.131 103.434 84.4705 103.634V103.736C85.2972 103.872 85.9428 104.224 86.4073 104.791C86.8718 105.353 87.104 106.05 87.104 106.881C87.104 107.593 86.9102 108.232 86.5224 108.799C86.1388 109.361 85.6147 109.804 84.9499 110.128C84.2852 110.452 83.5288 110.614 82.6808 110.614ZM89.9116 107.75V106.446L95.6644 97.344H96.6104V99.3639H95.9712L91.6246 106.242V106.344H99.3718V107.75H89.9116ZM96.0735 110.435V107.354V106.747V97.344H97.582V110.435H96.0735ZM106.358 110.614C105.608 110.614 104.933 110.465 104.332 110.166C103.731 109.868 103.249 109.459 102.887 108.939C102.525 108.419 102.327 107.827 102.293 107.162H103.827C103.887 107.755 104.155 108.245 104.632 108.632C105.114 109.016 105.689 109.208 106.358 109.208C106.895 109.208 107.372 109.082 107.79 108.831C108.212 108.579 108.542 108.234 108.781 107.795C109.024 107.352 109.145 106.851 109.145 106.293C109.145 105.722 109.019 105.213 108.768 104.765C108.521 104.313 108.18 103.958 107.745 103.698C107.311 103.438 106.814 103.306 106.256 103.301C105.855 103.297 105.444 103.359 105.022 103.487C104.6 103.61 104.253 103.77 103.98 103.966L102.497 103.787L103.29 97.344H110.091V98.7503H104.619L104.159 102.611H104.236C104.504 102.398 104.841 102.221 105.246 102.081C105.651 101.94 106.073 101.87 106.512 101.87C107.313 101.87 108.026 102.061 108.653 102.445C109.284 102.824 109.778 103.344 110.136 104.005C110.498 104.665 110.679 105.419 110.679 106.267C110.679 107.103 110.492 107.848 110.117 108.505C109.746 109.157 109.235 109.672 108.583 110.051C107.931 110.426 107.189 110.614 106.358 110.614ZM118.065 110.614C117.528 110.605 116.991 110.503 116.454 110.307C115.917 110.111 115.427 109.781 114.984 109.316C114.541 108.848 114.185 108.215 113.917 107.418C113.648 106.617 113.514 105.611 113.514 104.401C113.514 103.242 113.623 102.215 113.84 101.32C114.057 100.421 114.373 99.6643 114.786 99.0507C115.199 98.4328 115.698 97.9641 116.282 97.6445C116.87 97.3249 117.532 97.165 118.27 97.165C119.002 97.165 119.654 97.3121 120.225 97.6061C120.801 97.8959 121.27 98.3007 121.632 98.8206C121.994 99.3405 122.228 99.9392 122.335 100.617H120.775C120.63 100.029 120.349 99.5408 119.931 99.153C119.514 98.7652 118.96 98.5713 118.27 98.5713C117.255 98.5713 116.456 99.0124 115.873 99.8945C115.293 100.777 115.001 102.014 114.997 103.608H115.099C115.338 103.246 115.621 102.937 115.949 102.681C116.282 102.421 116.648 102.221 117.049 102.081C117.449 101.94 117.873 101.87 118.321 101.87C119.071 101.87 119.757 102.057 120.379 102.432C121.001 102.803 121.5 103.316 121.875 103.973C122.25 104.625 122.437 105.372 122.437 106.216C122.437 107.026 122.256 107.767 121.894 108.441C121.532 109.11 121.022 109.642 120.366 110.039C119.714 110.431 118.947 110.622 118.065 110.614ZM118.065 109.208C118.602 109.208 119.083 109.073 119.51 108.805C119.94 108.536 120.279 108.176 120.526 107.725C120.777 107.273 120.903 106.77 120.903 106.216C120.903 105.675 120.782 105.183 120.539 104.74C120.3 104.292 119.97 103.936 119.548 103.672C119.13 103.408 118.653 103.276 118.116 103.276C117.711 103.276 117.334 103.357 116.985 103.519C116.635 103.676 116.328 103.894 116.064 104.171C115.804 104.448 115.6 104.765 115.451 105.123C115.301 105.477 115.227 105.85 115.227 106.242C115.227 106.762 115.348 107.247 115.591 107.699C115.838 108.151 116.175 108.515 116.601 108.792C117.032 109.069 117.52 109.208 118.065 109.208ZM135.104 110.614C134.354 110.614 133.679 110.465 133.078 110.166C132.477 109.868 131.996 109.459 131.633 108.939C131.271 108.419 131.073 107.827 131.039 107.162H132.573C132.633 107.755 132.901 108.245 133.378 108.632C133.86 109.016 134.435 109.208 135.104 109.208C135.641 109.208 136.118 109.082 136.536 108.831C136.958 108.579 137.288 108.234 137.527 107.795C137.77 107.352 137.891 106.851 137.891 106.293C137.891 105.722 137.765 105.213 137.514 104.765C137.267 104.313 136.926 103.958 136.491 103.698C136.057 103.438 135.56 103.306 135.002 103.301C134.601 103.297 134.19 103.359 133.768 103.487C133.346 103.61 132.999 103.77 132.726 103.966L131.243 103.787L132.036 97.344H138.837V98.7503H133.366L132.905 102.611H132.982C133.251 102.398 133.587 102.221 133.992 102.081C134.397 101.94 134.819 101.87 135.258 101.87C136.059 101.87 136.773 102.061 137.399 102.445C138.03 102.824 138.524 103.344 138.882 104.005C139.244 104.665 139.425 105.419 139.425 106.267C139.425 107.103 139.238 107.848 138.863 108.505C138.492 109.157 137.981 109.672 137.329 110.051C136.677 110.426 135.935 110.614 135.104 110.614ZM142.464 110.435V109.284L146.786 104.554C147.293 104 147.71 103.519 148.038 103.11C148.366 102.696 148.609 102.309 148.767 101.946C148.929 101.58 149.01 101.196 149.01 100.796C149.01 100.336 148.899 99.9371 148.678 99.6004C148.46 99.2638 148.162 99.0038 147.783 98.8206C147.403 98.6374 146.977 98.5457 146.504 98.5457C146.001 98.5457 145.562 98.6501 145.188 98.8589C144.817 99.0635 144.529 99.3511 144.325 99.7219C144.124 100.093 144.024 100.527 144.024 101.026H142.516C142.516 100.259 142.692 99.5855 143.046 99.006C143.4 98.4264 143.881 97.9747 144.491 97.6508C145.104 97.327 145.793 97.165 146.555 97.165C147.322 97.165 148.002 97.327 148.594 97.6508C149.187 97.9747 149.651 98.4115 149.988 98.9612C150.325 99.5109 150.493 100.122 150.493 100.796C150.493 101.277 150.406 101.748 150.231 102.208C150.06 102.664 149.762 103.174 149.336 103.736C148.914 104.294 148.328 104.976 147.578 105.782L144.638 108.926V109.029H150.723V110.435H142.464ZM158.056 110.614C157.178 110.614 156.403 110.458 155.729 110.147C155.06 109.832 154.538 109.399 154.163 108.85C153.788 108.296 153.603 107.665 153.607 106.958C153.603 106.404 153.712 105.892 153.933 105.424C154.155 104.951 154.457 104.556 154.841 104.241C155.229 103.921 155.661 103.719 156.138 103.634V103.557C155.512 103.395 155.013 103.044 154.643 102.502C154.272 101.957 154.089 101.337 154.093 100.642C154.089 99.9776 154.257 99.3831 154.598 98.8589C154.939 98.3348 155.408 97.9214 156.004 97.6189C156.605 97.3163 157.289 97.165 158.056 97.165C158.815 97.165 159.492 97.3163 160.089 97.6189C160.685 97.9214 161.154 98.3348 161.495 98.8589C161.84 99.3831 162.015 99.9776 162.019 100.642C162.015 101.337 161.825 101.957 161.45 102.502C161.08 103.044 160.587 103.395 159.974 103.557V103.634C160.447 103.719 160.873 103.921 161.252 104.241C161.631 104.556 161.934 104.951 162.16 105.424C162.386 105.892 162.501 106.404 162.505 106.958C162.501 107.665 162.309 108.296 161.93 108.85C161.555 109.399 161.033 109.832 160.364 110.147C159.699 110.458 158.93 110.614 158.056 110.614ZM158.056 109.208C158.648 109.208 159.16 109.112 159.59 108.92C160.021 108.728 160.353 108.458 160.587 108.108C160.822 107.759 160.941 107.35 160.945 106.881C160.941 106.387 160.813 105.95 160.562 105.571C160.31 105.191 159.967 104.893 159.533 104.676C159.102 104.458 158.61 104.35 158.056 104.35C157.498 104.35 156.999 104.458 156.56 104.676C156.126 104.893 155.783 105.191 155.531 105.571C155.284 105.95 155.163 106.387 155.167 106.881C155.163 107.35 155.276 107.759 155.506 108.108C155.74 108.458 156.075 108.728 156.509 108.92C156.944 109.112 157.46 109.208 158.056 109.208ZM158.056 102.995C158.525 102.995 158.94 102.901 159.303 102.713C159.669 102.526 159.957 102.264 160.165 101.927C160.374 101.59 160.481 101.196 160.485 100.745C160.481 100.301 160.376 99.9158 160.172 99.5876C159.967 99.2552 159.684 98.9996 159.322 98.8206C158.96 98.6374 158.538 98.5457 158.056 98.5457C157.566 98.5457 157.138 98.6374 156.771 98.8206C156.405 98.9996 156.121 99.2552 155.921 99.5876C155.721 99.9158 155.623 100.301 155.627 100.745C155.623 101.196 155.723 101.59 155.928 101.927C156.136 102.264 156.424 102.526 156.79 102.713C157.157 102.901 157.579 102.995 158.056 102.995ZM165.455 110.435V109.284L169.776 104.554C170.283 104 170.7 103.519 171.029 103.11C171.357 102.696 171.6 102.309 171.757 101.946C171.919 101.58 172 101.196 172 100.796C172 100.336 171.889 99.9371 171.668 99.6004C171.45 99.2638 171.152 99.0038 170.773 98.8206C170.394 98.6374 169.968 98.5457 169.494 98.5457C168.992 98.5457 168.553 98.6501 168.178 98.8589C167.807 99.0635 167.519 99.3511 167.315 99.7219C167.115 100.093 167.014 100.527 167.014 101.026H165.506C165.506 100.259 165.683 99.5855 166.036 99.006C166.39 98.4264 166.872 97.9747 167.481 97.6508C168.095 97.327 168.783 97.165 169.546 97.165C170.313 97.165 170.992 97.327 171.585 97.6508C172.177 97.9747 172.642 98.4115 172.978 98.9612C173.315 99.5109 173.483 100.122 173.483 100.796C173.483 101.277 173.396 101.748 173.221 102.208C173.051 102.664 172.752 103.174 172.326 103.736C171.904 104.294 171.318 104.976 170.568 105.782L167.628 108.926V109.029H173.713V110.435H165.455ZM186.839 110.614C185.995 110.614 185.243 110.469 184.583 110.179C183.926 109.889 183.404 109.487 183.017 108.971C182.633 108.451 182.424 107.848 182.39 107.162H184.001C184.035 107.584 184.18 107.948 184.436 108.255C184.691 108.558 185.026 108.792 185.439 108.958C185.852 109.125 186.311 109.208 186.813 109.208C187.376 109.208 187.874 109.11 188.309 108.914C188.744 108.718 189.085 108.445 189.332 108.095C189.579 107.746 189.703 107.341 189.703 106.881C189.703 106.399 189.583 105.975 189.345 105.609C189.106 105.238 188.757 104.948 188.296 104.74C187.836 104.531 187.274 104.426 186.609 104.426H185.561V103.02H186.609C187.129 103.02 187.585 102.926 187.977 102.739C188.373 102.551 188.682 102.287 188.904 101.946C189.129 101.605 189.242 101.205 189.242 100.745C189.242 100.301 189.144 99.9158 188.948 99.5876C188.752 99.2595 188.475 99.0038 188.117 98.8206C187.764 98.6374 187.346 98.5457 186.865 98.5457C186.413 98.5457 185.987 98.6288 185.586 98.795C185.19 98.957 184.866 99.1935 184.615 99.5045C184.363 99.8114 184.227 100.182 184.205 100.617H182.671C182.697 99.9307 182.904 99.3298 183.291 98.8142C183.679 98.2943 184.186 97.8895 184.813 97.5997C185.443 97.3099 186.136 97.165 186.89 97.165C187.7 97.165 188.394 97.3291 188.974 97.6572C189.553 97.9811 189.999 98.4094 190.31 98.942C190.621 99.4747 190.776 100.05 190.776 100.668C190.776 101.405 190.583 102.034 190.195 102.554C189.811 103.073 189.289 103.434 188.629 103.634V103.736C189.455 103.872 190.101 104.224 190.566 104.791C191.03 105.353 191.262 106.05 191.262 106.881C191.262 107.593 191.068 108.232 190.681 108.799C190.297 109.361 189.773 109.804 189.108 110.128C188.443 110.452 187.687 110.614 186.839 110.614ZM194.07 107.75V106.446L199.823 97.344H200.769V99.3639H200.129L195.783 106.242V106.344H203.53V107.75H194.07ZM200.232 110.435V107.354V106.747V97.344H201.74V110.435H200.232ZM210.516 110.614C209.766 110.614 209.091 110.465 208.49 110.166C207.889 109.868 207.408 109.459 207.045 108.939C206.683 108.419 206.485 107.827 206.451 107.162H207.985C208.045 107.755 208.313 108.245 208.79 108.632C209.272 109.016 209.847 109.208 210.516 109.208C211.053 109.208 211.531 109.082 211.948 108.831C212.37 108.579 212.7 108.234 212.939 107.795C213.182 107.352 213.303 106.851 213.303 106.293C213.303 105.722 213.178 105.213 212.926 104.765C212.679 104.313 212.338 103.958 211.903 103.698C211.469 103.438 210.972 103.306 210.414 103.301C210.013 103.297 209.602 103.359 209.18 103.487C208.759 103.61 208.411 103.77 208.138 103.966L206.656 103.787L207.448 97.344H214.249V98.7503H208.778L208.317 102.611H208.394C208.663 102.398 208.999 102.221 209.404 102.081C209.809 101.94 210.231 101.87 210.67 101.87C211.471 101.87 212.185 102.061 212.811 102.445C213.442 102.824 213.936 103.344 214.294 104.005C214.656 104.665 214.837 105.419 214.837 106.267C214.837 107.103 214.65 107.848 214.275 108.505C213.904 109.157 213.393 109.672 212.741 110.051C212.089 110.426 211.347 110.614 210.516 110.614ZM222.223 110.614C221.686 110.605 221.149 110.503 220.612 110.307C220.075 110.111 219.585 109.781 219.142 109.316C218.699 108.848 218.343 108.215 218.075 107.418C217.806 106.617 217.672 105.611 217.672 104.401C217.672 103.242 217.781 102.215 217.998 101.32C218.215 100.421 218.531 99.6643 218.944 99.0507C219.357 98.4328 219.856 97.9641 220.44 97.6445C221.028 97.3249 221.691 97.165 222.428 97.165C223.161 97.165 223.813 97.3121 224.384 97.6061C224.959 97.8959 225.428 98.3007 225.79 98.8206C226.152 99.3405 226.387 99.9392 226.493 100.617H224.933C224.789 100.029 224.507 99.5408 224.09 99.153C223.672 98.7652 223.118 98.5713 222.428 98.5713C221.414 98.5713 220.615 99.0124 220.031 99.8945C219.451 100.777 219.159 102.014 219.155 103.608H219.257C219.496 103.246 219.779 102.937 220.107 102.681C220.44 102.421 220.806 102.221 221.207 102.081C221.607 101.94 222.031 101.87 222.479 101.87C223.229 101.87 223.915 102.057 224.537 102.432C225.159 102.803 225.658 103.316 226.033 103.973C226.408 104.625 226.595 105.372 226.595 106.216C226.595 107.026 226.414 107.767 226.052 108.441C225.69 109.11 225.181 109.642 224.524 110.039C223.872 110.431 223.105 110.622 222.223 110.614ZM222.223 109.208C222.76 109.208 223.242 109.073 223.668 108.805C224.098 108.536 224.437 108.176 224.684 107.725C224.936 107.273 225.061 106.77 225.061 106.216C225.061 105.675 224.94 105.183 224.697 104.74C224.458 104.292 224.128 103.936 223.706 103.672C223.289 103.408 222.811 103.276 222.274 103.276C221.869 103.276 221.492 103.357 221.143 103.519C220.794 103.676 220.487 103.894 220.222 104.171C219.963 104.448 219.758 104.765 219.609 105.123C219.46 105.477 219.385 105.85 219.385 106.242C219.385 106.762 219.507 107.247 219.749 107.699C219.997 108.151 220.333 108.515 220.759 108.792C221.19 109.069 221.678 109.208 222.223 109.208Z" fill="white"/>
<defs>
<linearGradient id="paint0_linear_139_3344" x1="173.183" y1="-33.2168" x2="180.492" y2="225.439" gradientUnits="userSpaceOnUse">
<stop stop-color="#F32C2C"/>
<stop offset="1" stop-color="#3A64F9"/>
</linearGradient>
</defs>
</svg>
