<?xml version="1.0" encoding="UTF-8"?>
<svg version="1.1" viewBox="0 0 2048 424" width="1280" height="1280" xmlns="http://www.w3.org/2000/svg">
<path transform="translate(318,1)" d="m0 0h14l10 5 5 4 7 14 18 50 9 24 35 1 7 6 1 2v262l-4 6-7 3h-94l2-4 8-13 7-15 5-18 3-22v-83l-2-14-6-11-4-5-11-7-35-16-58-26-12-3-13 1-17 7-35 16-36 16-16 8-7 5-7 11-3 7-1 12v80l2 18 4 17 6 16 9 16 4 5v2h-95l-5-3-5-6-1-9v-239l1-13 4-6 4-3 51-1 67-25 42-16 69-26 40-15zm5 14-41 15-42 16-138 52v1h45l41-15 50-19 72-27 26-10 2-1-1-5-5-5-5-2zm27 50-43 16-45 17v1h103l-10-30-2-4z" fill="#C81D24"/>
<path transform="translate(209,167)" d="m0 0h7l94 42 6 5 2 5v89l-3 19-6 17-7 12-9 10-10 9-19 14-13 10-16 12-15 11-4 2-9-1-14-10-21-16-16-12-21-16-9-9-7-11-5-10-4-13-2-10-1-10v-87l3-6 5-4 69-31zm-65 81 2 5 14 26 13 23 13 24 12 21 5 4 2 1h15l6-4 8-13 14-26 13-23 16-29 4-7v-2h-31l-12 22-15 29-10 18-3-4-18-34-15-28-2-3z" fill="#C81D24"/>
<path transform="translate(1375,142)" d="m0 0h153l15 3 13 5 11 6 10 8 8 9 8 14 5 15 2 17-1 16-4 16-7 14-8 10-8 8-13 8-12 5-11 3-7 1h-97v52l-1 1h-56zm57 54v54h89l9-3 8-7 4-8 1-12-3-10-4-6-6-5-9-3z" fill="#C81D24"/>
<path transform="translate(1182,142)" d="m0 0h27l8 3 6 5 7 11 64 116 15 27 16 29 10 18v2h-62l-13-24-4-7v-2h-99l2-5 14-27 7-13h51l-12-23-12-22-10-19v-2h-2l-2 5-14 27-12 22-14 27-12 22-12 23-10 18h-63l2-5 10-19 10-18 16-29 15-27 32-58 15-27 9-16 5-6 8-5z" fill="#C81D24"/>
<path transform="translate(1694,142)" d="m0 0h28l10 5 7 8 16 29 15 27 48 87 15 27 14 25v3h-61l-5-8-13-24-99-1 8-16 15-28 1-1h50l-10-20-12-22-12-23-3 3-14 27-12 22-13 25-12 22-12 23-11 20-1 1h-62l1-5 32-58 15-27 48-87 13-23 7-7z" fill="#C81D24"/>
<path transform="translate(495,142)" d="m0 0h64l10 18 13 25 12 22 14 27 12 22 13 25v2h2l2-5 17-33 12-22 14-27 12-22 15-29 2-3h65l-8 15-13 24-40 72-16 29-15 27-16 29-6 8-8 5-9 2h-19l-10-3-8-6-10-17-14-26-13-23-13-24-25-45-16-29-20-36z" fill="#C81D24"/>
<path transform="translate(876,142)" d="m0 0h211l1 1v53l-77 1-1 156h-57v-157h-77z" fill="#C81D24"/>
<path transform="translate(1797,142)" d="m0 0h67l13 18 12 17 13 18 12 17 8 11 3-1 12-17 13-18 12-17 13-18 7-10h64l-2 5-11 15-13 19-13 18-14 20-24 34-13 18-5 8-1 74h-56l-1-1-1-75-12-16-11-16-12-17-13-18-14-20-12-17-13-18-8-11z" fill="#C81D24"/>
<path transform="translate(794,142)" d="m0 0h57l1 1v209l-1 1h-56l-1-1z" fill="#C81D24"/>
</svg>
