<svg width="32" height="21" viewBox="0 0 32 21" fill="none" xmlns="http://www.w3.org/2000/svg">
<g clip-path="url(#clip0_527_5011)">
<path d="M11.6621 2.63965H20.3059V18.3676H11.6621V2.63965Z" fill="#FF5F00"/>
<path d="M12.2111 10.5037C12.2111 7.3081 13.6929 4.47367 15.9704 2.63962C14.2966 1.30582 12.1837 0.5 9.87875 0.5C4.41787 0.5 0 4.9738 0 10.5037C0 16.0334 4.41787 20.5073 9.87862 20.5073C12.1836 20.5073 14.2965 19.7015 15.9704 18.3676C13.6929 16.5614 12.2111 13.6992 12.2111 10.5037Z" fill="#EB001B"/>
<path d="M31.9684 10.5037C31.9684 16.0334 27.5505 20.5073 22.0898 20.5073C19.7848 20.5073 17.6719 19.7015 15.998 18.3676C18.303 16.5337 19.7574 13.6992 19.7574 10.5037C19.7574 7.3081 18.2755 4.47367 15.998 2.63962C17.6718 1.30582 19.7848 0.5 22.0898 0.5C27.5505 0.5 31.9685 5.00165 31.9685 10.5037H31.9684Z" fill="#F79E1B"/>
</g>
<defs>
<clipPath id="clip0_527_5011">
<rect width="32" height="20" fill="white" transform="translate(0 0.5)"/>
</clipPath>
</defs>
</svg>
