<?xml version="1.0" encoding="UTF-8"?>
<svg version="1.1" viewBox="0 0 1020 1072" width="1280" height="1280" xmlns="http://www.w3.org/2000/svg">
<path transform="translate(0)" d="m0 0h1020v1072h-1020z" fill="#F7F8F9"/>
<path transform="translate(647,28)" d="m0 0h8l12 5 9 7 7 9 4 11 1 7-1 4v76l15-1 45 1 47 2 1 1 37 5 26 6 20 7 14 6 19 11 16 12 7 6 4 5 5 5 11 14 10 17 9 20 7 21 4 16 6 48 1 12 1 26v301l-2 38-6 41v7h-2l-2 11-6 18-6 15-8 16-9 14-8 10-6 8-4 1v3l-11 8-14 10-18 10-26 10-26 7-44 6-27 2-31 1h-49v88l-5 12-9 10-12 7-8 2-14-3-10-6-8-9-4-8-1-4v-955l3-9 6-8 8-7 11-5z" fill="#73787E"/>
<path transform="translate(687,218)" d="m0 0h69l30 2 34 5 25 6 19 8 15 9 4 4v2l5 2 7 10 8 14 6 15 1 7 2 3 6 36 1 8v2l1 4 1 19v25l1 11v251l-1 17v18l-2 29-1 2-1 12-4 22-4 15-9 21-7 11-7 9-12 9-14 8-15 6-25 6-27 4-25 2-23 1-58 1-1-49v-579z" fill="#F7F8F9"/>
<path transform="translate(272,147)" d="m0 0h194l10 3 8 5 8 10 4 10v15l-7 14-6 7-7 4-9 3-50 1h-153l-19 1h-15l-1 2-17 2-28 5-18 6-14 7-12 8-9 9-9 13-9 19-5 18-4 20-2 21-1 3-1 13-1 33v278l1 28 2 20 4 28 4 17 3 9 8 18 7 11 11 13 15 9 16 7 15 5 28 5 21 3 32 2 67 1h137l12 5 9 7 6 10 2 6v14l-5 12-8 9-10 6-10 2h-190l-42-2-33-4-12-2h-7l-9-3-23-7-16-6-19-10-11-7-14-11-2-4-4-2-10-11-12-17-11-21-8-20-5-21-2-2-1-11-4-26v-10l-3-1h2l-1-8-2-41v-279l2-47 6-42 6-28 8-22 9-19 10-16 11-14 14-14 17-12 16-9 15-7 20-7 18-4 10-2 42-6z" fill="#868B90"/>
<path transform="translate(746,148)" d="m0 0h23l25 1 1 1 37 5 26 6 20 7 14 6 19 11 16 12 7 6 4 5 5 5 11 14 10 17 9 20 7 21 4 16 6 48 1 12 1 26v301l-2 38-6 41v7l-50-1 1-46 10-1h34l2 1 1 11 1-8-2-7-1 2h-61v-14l1-15v-19l1-16v-251l-1-12v-24l-1-23-2-1 1-2-6-38-2-7-1-4-5-14-8-16-8-12-5-3-4-5-17-10-17-7-25-6-19-3-6-2v-10h46v18h2l-1-18h47l1 43 43 1v45h2l-1-25v-20l31-1-31-1v-44h-44l1-33h-2v33h-46l-1-40-1-8v48h-46l-1-47-1 47h-46v-46l39-1-40-1z" fill="#60666D"/>
<path transform="translate(42,726)" d="m0 0h46l1 30 1-29h10l2 2 5 28 4 16 3 9 8 17 9 13 8 9 15 9 16 7 15 5 28 5 21 3 32 2 67 1h137l12 5 9 7 6 10 2 6v14l-5 12-8 9-10 6-10 2h-190l-42-2-33-4-12-2h-7l-9-3-23-7-16-6-19-10-11-7-14-11-2-4-4-2-10-11-12-17-11-21-8-20-4-15v-6l3 1v2l2 1-1-5h45l1 13v28h2l-1-15v-26l7-1h10l2 1v-2h-64l-1-6v-9h-2z" fill="#61676D"/>
<path transform="translate(647,28)" d="m0 0h8l12 5 9 7 7 9 4 11 1 7-1 4v76l15-1 45 1-1 14h40l3 2h-42v46h46v-57h1l1 10v47h46l-1-49 2-1 1 10v40h46v-33h2v32l43 1v44h31l1 2h-32l1 20v25h-2v-45h-43l-1-1v-43l-46 1v17h-2v-18h-46v10l3 1-25-2-27-1-59-1v36l-2 1h-30v37l-1 8h-1v-45h-29l-7-1v47h-1v-243l3-9 6-8 8-7 11-5z" fill="#868B8F"/>
<path transform="translate(58,817)" d="m0 0h75l2 4v43l46 1v-22l2 1v21h46v-16l5 1 32 2 67 1h137l12 5 9 7 6 10 2 6v14l-5 12-8 9-10 6-10 2h-179l-9-1-1-17v-39h-46v45l-2-2v-43h-46l1 41-2 5h-1v-46h-46v30h-2v-30h-43v-2h43v-46h-42v44h-1l-1-10v-34h-29z" fill="#60666D"/>
<path transform="translate(746,148)" d="m0 0h23l25 1 1 1 37 5 26 6 20 7 14 6 19 11 16 12 7 6 4 5 5 5 11 14 10 17 9 20 7 21 2 8v8l-4 1h-67l-3-7-8-19-8-13-4-6-5-3-4-5-17-10-17-7-25-6-19-3-6-2v-10h46v18h2l-1-18h47l1 43 43 1v45h2l-1-25v-20l31-1-31-1v-44h-44l1-33h-2v33h-46l-1-40-1-8v48h-46l-1-47-1 47h-46v-46l39-1-40-1z" fill="#60666D"/>
<path transform="translate(910,300)" d="m0 0 2 1h69l-1 3-45-1v46h43l3 1v-18l2 1 1 15v15l1 36-1 182v41l1 9-1 44v15l-1 30h-2v-23l1-18h-24l-4-2h27l1-46h-46v43l1 2 16 1v1l-17 1v14l-1 31h-2v-38l1-7h-8l-3-2 8-1 1-29v-13l1-4-4 1-1-2h53v-41l-1-1h-51l-1-2h53v-45l-4-1h-56v-129l-1-12v-24l-1-23-2-1 1-2-6-38-2-7z" fill="#7D8287"/>
<path transform="translate(617,254)" d="m0 0 36 1 1 37 1-37 14-1h18v99l-1 44h-69l-1-48v-47z" fill="#61676E"/>
<path transform="translate(617,914)" d="m0 0 36 1v45h2v-45h69l21 1v7l-9 1h-49v88l-5 12-9 10-12 7-8 2-14-3-10-6-8-9-4-8-1-4v-56z" fill="#62686F"/>
<path transform="translate(30,398)" d="m0 0 11 1 1 11v29l1-39 1-1h45v42l-16 1h-23l-21-1v2h13v32l1-32h46v46l-49 1 1 1 1 32 1-32h46l1 27v19h-62l-1-8v-101l1-29z" fill="#60666D"/>
<path transform="translate(982,297)" d="m0 0 2 4 6 48 1 12 1 26v301l-2 38-6 41v7l-50-1 1-46 10-1h34l2 1 1 11 1-8-2-7h-1v-18h1v15h2l-1-3 1-27v-18l1-42-1-9v-44l1-179-1-35v-22l-1-8-1 17-46-1v-46h45z" fill="#666C72"/>
<path transform="translate(943,774)" d="m0 0h26l12 1-1 10-6 18-6 15-8 16-9 14-8 10-6 8-4 1v3l-11 8-14 10-18 10-26 10-15 4h-7l1-45h46l1 27 1-27 20-1h20l-41-1 1-46 42-1v47l1-1v-46h31l-31-1 1-42z" fill="#60666D"/>
<path transform="translate(647,28)" d="m0 0h8l12 5 9 7 7 9 4 11 1 7-1 4v76h13l1 1v13h-46l-1-31v-15h31v-2h-69v-55l3-9 6-8 8-7 11-5z" fill="#63696F"/>
<path transform="translate(459,488)" d="m0 0h14l12 3 10 6 9 8 7 10 4 14 1 10-5 17-8 11-8 7-14 7-8 2h-12l-13-4-9-6-7-6-7-10-5-11v-19l4-11 7-11 7-7 14-8z" fill="#60666D"/>
<path transform="translate(271,488)" d="m0 0h14l12 3 11 7 11 11 5 9 3 12v11l-3 12-6 10-10 10-10 6-13 4h-12l-13-4-11-7-10-11-7-14v-21l4-10 7-11 7-7 11-7z" fill="#60666D"/>
<path transform="translate(217,151)" d="m0 0h12l1 58h-47l-1-49h-2l1 4v45h-46l-1-31-1 31h-42l-1-1-1 45-36 1 1-6 10-18 10-14 11-12 8-8 17-12 16-9 15-7 20-7 18-4 10-2z" fill="#61676D"/>
<path transform="translate(141,866)" d="m0 0h20l20 1 1 44 1-4v-40h46l1 43 1-43h46l1 39v18l-29-1-24-2-29-4-14-1-9-3-23-7-16-6 1-33z" fill="#60666D"/>
<path transform="translate(617,866)" d="m0 0h16l20 1v45h2v-45h46v45h2v-45h42l1 46-26 1h-39l-64-1z" fill="#60666D"/>
<path transform="translate(922,538)" d="m0 0h58l2 2v41l-1 4-43 1h42l2 2v34l-1 7-52 1v1h-6v14h-1l-1-16v-44z" fill="#60666D"/>
<path transform="translate(58,817)" d="m0 0h75l2 4v43l46 1v-22l2 1v21h46v-16l5 1 32 2 67 1v1h-10v59h45l1 3h-46v8h-36l-9-1-1-17v-39h-46v45l-2-2v-43h-46l1 41-2 5h-1v-46h-46v30h-2v-30h-43v-2h43v-46h-42v44h-1l-1-10v-34h-29z" fill="#646A71"/>
<path transform="translate(370,147)" d="m0 0h96l10 3 8 5 8 10 4 10v15l-7 14-6 7-7 4-9 3-50 1h-153l-19 1h-14v-8l2-1h128l57 1-1 4h2v-4l57-1 2-1-11-1-2-58-1 11-40-1-5-1-1-8-1 9h-46z" fill="#61676E"/>
<path transform="translate(43,631)" d="m0 0h46v46l-12 1h12v47h-46l-1-11v-15l1-20 8-1-8-1z" fill="#60666D"/>
<path transform="translate(919,727)" d="m0 0h14v46h-22v2l13-1 9 1v42h-44v48h-47v-25l20-8 18-11 8-7 10-15 8-18 5-16 4-19 3-17z" fill="#60666D"/>
<path transform="translate(617,162)" d="m0 0h17l19 1v45h2v-45h46v46h-84z" fill="#60666D"/>
<path transform="translate(617,677)" d="m0 0h70v52l-2-2h-31v44h-1v-44h-32l-5-2v-47z" fill="#61676E"/>
<path transform="translate(617,210)" d="m0 0 36 1v41h2l-1-41h90l1 1v6h-58l-1 35h-69z" fill="#61676E"/>
<path transform="translate(617,726)" d="m0 0 37 1 32-1 1 26v20l-1 1h-69z" fill="#60666D"/>
<path transform="translate(28,587)" d="m0 0h13v41h2v-24l1-17h45v42h-60v2h12l1 46h-14l-1-21v-66z" fill="#60666D"/>
<path transform="translate(617,630)" d="m0 0 37 1 32-1v47h-69z" fill="#60666D"/>
<path transform="translate(617,350)" d="m0 0 37 1 32-1v47h-69z" fill="#60666D"/>
<path transform="translate(617,254)" d="m0 0 36 1 1 37 1-37 14-1h18v46l-1 1h-69z" fill="#60666D"/>
<path transform="translate(364,853)" d="m0 0h7l-1 4v66h-47v-7l11-1h34v-2h-45v-59z" fill="#60666D"/>
<path transform="translate(617,774)" d="m0 0 36 1 2-1h32v42l-1 1h-69z" fill="#60666D"/>
<path transform="translate(28,539)" d="m0 0h13l1 32 1-6 1-26h45l1 12v25l-1 9-14 1h-47l-1-9v-33z" fill="#60666D"/>
<path transform="translate(946,350)" d="m0 0 34 1 1 1 1 19v23l-1 3h-59l-2-23v-23h13v27h2v-27z" fill="#60666D"/>
<path transform="translate(922,442)" d="m0 0h58l2 1v43l-1 3h-58z" fill="#60666D"/>
<path transform="translate(922,490)" d="m0 0h58l2 2v41l-1 4h-58z" fill="#60666D"/>
<path transform="translate(31,350)" d="m0 0 10 1 1 11v26l1-32 1-5 7-1h37l1 1v46h-61v-17l1-23z" fill="#60666D"/>
<path transform="translate(943,774)" d="m0 0h26l12 1-1 10-6 18-6 15-8 16-9 14-8 10-6 8-3-2v-46h31l-31-1 1-42z" fill="#60666D"/>
<path transform="translate(804,866)" d="m0 0h37v48l-16 3-40 5-18 1h-20v-7l44-2 1 4h2l-1-3 18-1 9 1-8-2h-17v-46z" fill="#60666D"/>
<path transform="translate(920,398)" d="m0 0h12l2 7 1-6 13-1h32l2 2v40l-1 1h-59l-1-31z" fill="#60666D"/>
<path transform="translate(91,351)" d="m0 0h9v15l-1 33v278l1 28v20h-9z" fill="#666C72"/>
<path transform="translate(91,557)" d="m0 0h1v144l-1 24h9v-6h1l1 10-2-1-10-1v45h-1l-1-6v-13l-1-26-45-1v32h2l1 15h64v2h-19l1 26v15h-2l-1-28v-13l-43 1-1 4-3-1v-2l-5-2-1-12-4-26v-10l-3-1h2l-1-8-2-41h15l-1-3v-43h-12v-2h60v-42h-45v17l-1 24h-2v-41h-14v-7h1l1 5h60v-22zm-48 74v46l8 1-8 1-1 20v15l1 11h46v-47h-12l12-1v-46z" fill="#7F8489"/>
<path transform="translate(52,255)" d="m0 0h37v46h-46l-3-1v2l2 1h-2v29l-1 13-2 2-4 2h-2v-12l4-28 6-28 8-22z" fill="#61676E"/>
<path transform="translate(662,962)" d="m0 0h25v50l-5 12-9 10-12 7h-6l-1-30h31v-2h-31l1-46z" fill="#61676E"/>
<path transform="translate(214,162)" d="m0 0h15l1 47h-47l-1-46z" fill="#60666D"/>
<path transform="translate(256,162)" d="m0 0h20l1 1 1 46h-47v-45l1-1z" fill="#60666D"/>
<path transform="translate(43,491)" d="m0 0h46l1 27v19h-47z" fill="#60666D"/>
<path transform="translate(837,161)" d="m0 0 4 4v44h-46v-46l14-1h15l13 1z" fill="#60666D"/>
<path transform="translate(945,726)" d="m0 0h34l1 1v33l2 2 2-4v16l-50-1 1-46z" fill="#60666D"/>
<path transform="translate(43,443)" d="m0 0h46v46h-46z" fill="#60666D"/>
<path transform="translate(372,163)" d="m0 0h45l1 46h-47v-45z" fill="#60666D"/>
<path transform="translate(323,163)" d="m0 0h46v46h-46z" fill="#60666D"/>
<path transform="translate(419,163)" d="m0 0h45l1 1v45h-46z" fill="#60666D"/>
<path transform="translate(747,163)" d="m0 0h40l6 1v45h-46z" fill="#60666D"/>
<path transform="translate(753,867)" d="m0 0h40v45l-5 1h-41v-45z" fill="#60666D"/>
<path transform="translate(231,867)" d="m0 0h46v45l-38 1-8-1z" fill="#60666D"/>
<path transform="translate(52,302)" d="m0 0h20l16 1v46h-45v-46z" fill="#60666D"/>
<path transform="translate(431,867)" d="m0 0h33l1 1v45h-46l1-45z" fill="#60666D"/>
<path transform="translate(935,303)" d="m0 0h44l-2 1 2 5 2 34v7l-46-1z" fill="#60666D"/>
<path transform="translate(467,853)" d="m0 0 6 1 12 6 7 6 6 12 1 3v14l-5 12-8 9-10 6-3 1h-54v-7l8-1h20l21 1 14-2-15-1-1-58z" fill="#61676E"/>
<path transform="translate(90,254)" d="m0 0h44l-2 4-9 12-10 21-5 18-4 20-2 18-1 2-10 1-1-1v-19l1-27 9-1-10-1z" fill="#61676E"/>
<path transform="translate(183,867)" d="m0 0h46l1 46-17-1-19-3-3-2-1 2-7-2z" fill="#60666D"/>
<path transform="translate(287,162)" d="m0 0h34l1 47h-43v-46z" fill="#60666D"/>
<path transform="translate(703,163)" d="m0 0h42l1 46h-43z" fill="#60666D"/>
<path transform="translate(91,819)" d="m0 0h42v46h-42z" fill="#60666D"/>
<path transform="translate(943,586)" d="m0 0h37l2 2v34l-1 7h-45l-1-15 1-27z" fill="#60666D"/>
<path transform="translate(43,775)" d="m0 0h45l1 13 1 29h-35l-1 2h-2l-8-19-5-18v-6l3 1v2l2 1z" fill="#60666D"/>
<path transform="translate(289,867)" d="m0 0h32v45l-22 1h-19l-1-45z" fill="#60666D"/>
<path transform="translate(91,211)" d="m0 0h42v42h-43z" fill="#60666D"/>
<path transform="translate(890,211)" d="m0 0h42l1 17v25h-43z" fill="#60666D"/>
<path transform="translate(271,488)" d="m0 0h14v1h-8v48l-45 1v-12l4-10 7-11 7-7 11-7z" fill="#60666D"/>
<path transform="translate(455,489)" d="m0 0h10v48h-45v-10l4-11 7-11 7-7 14-8z" fill="#60666D"/>
<path transform="translate(617,962)" d="m0 0 36 1v46h-37v-45z" fill="#60666D"/>
<path transform="translate(617,914)" d="m0 0 36 1v45l2 1h-39z" fill="#60666D"/>
<path transform="translate(617,538)" d="m0 0 36 1v46h-36z" fill="#60666D"/>
<path transform="translate(617,490)" d="m0 0 36 1v46h-36z" fill="#60666D"/>
<path transform="translate(617,442)" d="m0 0 36 1v46h-36z" fill="#60666D"/>
<path transform="translate(617,114)" d="m0 0 36 1v46h-36z" fill="#60666D"/>
<path transform="translate(617,66)" d="m0 0 36 1 1 46h-38z" fill="#60666D"/>
<path transform="translate(617,818)" d="m0 0 36 1v45l-1 1h-35z" fill="#60666D"/>
<path transform="translate(654,115)" d="m0 0h32v32h14l1 1v13h-46l-1-31z" fill="#60666D"/>
<path transform="translate(467,539)" d="m0 0h42l1 11h2l-1 6-8 11-8 7-14 7-8 2h-7z" fill="#60666D"/>
<path transform="translate(834,842)" d="m0 0h6l1 3v20h-94l-1-5v-7l2-1 35-2 31-4z" fill="#61676E"/>
<path transform="translate(279,539)" d="m0 0h42v9h3l-1 7-6 9-9 9-10 6-13 4h-7z" fill="#60666D"/>
<path transform="translate(617,586)" d="m0 0 36 1v42l-11 1-25-1z" fill="#60666D"/>
<path transform="translate(617,398)" d="m0 0 36 1v42h-36z" fill="#60666D"/>
<path transform="translate(617,210)" d="m0 0 36 1v41l2 1h-38z" fill="#60666D"/>
<path transform="translate(232,539)" d="m0 0h45v43h-9l-9-4-10-6-10-11-7-14z" fill="#61676D"/>
<path transform="translate(420,539)" d="m0 0h45v43h-9l-10-4-8-6-6-5-7-10-5-11z" fill="#60666D"/>
<path transform="translate(685,302)" d="m0 0h1l1 22-1 25h-32v-46z" fill="#60666D"/>
<path transform="translate(685,678)" d="m0 0h1v47h-32v-46z" fill="#60666D"/>
<path transform="translate(685,538)" d="m0 0h1v47h-32v-46z" fill="#60666D"/>
<path transform="translate(685,490)" d="m0 0h1v47h-32v-46z" fill="#60666D"/>
<path transform="translate(685,442)" d="m0 0h1v47h-32v-46z" fill="#60666D"/>
<path transform="translate(668,254)" d="m0 0h19v46l-1 1h-32l1-46z" fill="#61676E"/>
<path transform="translate(616,113)" d="m0 0h69v2h-31l1 15v31h46l-1-14 2-1 45 1-1 14h40l3 2h-42v46h6l1 2h-8l-1-4v-44h-42v45h-1l-1-26v-19h-46v45h-2v-45h-19l-17-1-1-1zm1 1v47h36v-46z" fill="#8A8E93"/>
<path transform="translate(654,774)" d="m0 0h33v42l-1 1h-32z" fill="#62686E"/>
<path transform="translate(654,586)" d="m0 0h32v43h-32z" fill="#60666D"/>
<path transform="translate(654,398)" d="m0 0h32v43h-32z" fill="#60666D"/>
<path transform="translate(28,443)" d="m0 0h14v32l1 14-3 1 1 1 1 32 1 14h-15l-1-8v-83z" fill="#646A71"/>
<path transform="translate(135,211)" d="m0 0h46v18l-24 10-17 11-3 3h-2z" fill="#60666D"/>
<path transform="translate(922,538)" d="m0 0h17l-3 1 1 46-6 1h7l-2 1v42l-7 1v1h-6v14h-1l-1-16v-44z" fill="#60666D"/>
<path transform="translate(370,147)" d="m0 0h96l-2 15-40-1-5-1-1-8-1 9h-46z" fill="#61676E"/>
<path transform="translate(745,852)" d="m0 0 2 1v12h11l-1 2-10 1v45l46-1 1-4 1 4h17l8 1v2h-14l-12 1v2h-2l-1-3-17 1h-27v7l-2 1v-8h-44l-46-1v45h-2v-45h-28l-8-1v43h-1v-91l1-1h84v-10h1v10l42-1v-11zm-128 14v47l64 1h39l26-1-1-46h-42v45h-2v-45h-46v45h-2v-45l-27-1z" fill="#8D9195"/>
<path transform="translate(28,587)" d="m0 0h13v41l2 1h-14v2h12l1 46h-14l-1-21v-66z" fill="#62686F"/>
<path transform="translate(930,630)" d="m0 0h3v20l-1 26-4 2h7l-1 8v39h-15v-14l1-15v-19l3-46z" fill="#636970"/>
<path transform="translate(233,211)" d="m0 0h128l57 1-1 4 2 1-136 1-6 1h-13l-19 1h-14v-8z" fill="#60666D"/>
<path transform="translate(746,148)" d="m0 0h23l25 1 1 1 37 5 18 4-1 3h3l-1 2-8-1v6h-1l-1-8-1 4-3-2h-42l-1-1-1 2h-6l-1-2-40-1z" fill="#62686F"/>
<path transform="translate(58,817)" d="m0 0h75l2 4v43l46 1v-22l2 1v21h46v-16l2 4 1 12h47l1 51-1 7h-1l-1-17v-39h-46v45l-2-2v-43h-46l1 41-2 5h-1v-46h-46v30h-2v-30h-43v-2h43v-46h-42v44h-1l-1-10v-34h-29z" fill="#92969A"/>
<path transform="translate(647,28)" d="m0 0 6 1v36h-36l-1-1 1-11 6-10 7-7 14-7z" fill="#61676E"/>
<path transform="translate(130,173)" d="m0 0h3v36h-42l-1-8 7-8 13-9 16-9z" fill="#60666D"/>
<path transform="translate(793,152)" d="m0 0h1l1 10v47h46l-1-49 2-1 1 10v40h46v-33h2v32l43 1v44h31l1 2h-32l1 20v25h-2v-45h-43l-1-1v-43l-46 1v17h-2v-18h-48zm97 59v42h43v-25l-1-17z" fill="#92969A"/>
<path transform="translate(934,818)" d="m0 0h33l-3 9-10 17-10 13-7 9-3-2z" fill="#62686E"/>
<path transform="translate(277,906)" d="m0 0h1v18l-29-1-24-2-29-4-14-1-4-3h4l2-6 6 1h4l22 3 14 1h47z" fill="#686D74"/>
<path transform="translate(180,160)" d="m0 0h2l1 9v40h40l4 2-44 1v15l1 2-5 1 2-1v-18h-46l1 43-5 1h-40l-1 46h18v1l-8 1h-9l-9-1v-1h7v-46l-38 1 2-4 1 1h35v-49l2 4 42 1v-35l2 4v31h46zm-89 51-1 42h43v-42z" fill="#8F9398"/>
<path transform="translate(654,29)" d="m0 0 7 1 9 5 9 8 6 10 1 3v9l-1 1h-27l-4-2z" fill="#61676E"/>
<path transform="translate(182,842)" d="m0 0 13 2 24 4 9 1 1 1v15h-46z" fill="#61676E"/>
<path transform="translate(617,1010)" d="m0 0 36 1v31l-11-1-10-5-9-8-5-8-2-9z" fill="#61676E"/>
<path transform="translate(919,727)" d="m0 0h14v46l-22 1-2 1 4-18 4-25z" fill="#61676E"/>
<path transform="translate(982,581)" d="m0 0h2v41l1 9-1 44v15l-1 30h-2v-23l1-18h-24l-4-2h27l1-46h-46v43l1 2 16 1v1l-17 1v14l-1 31h-2v-38l1-7h-8l-3-2 8-1 1-29v-13l1-4-4 1-1-2h53v-41l-1-1h-51l-1-2h53z" fill="#7F8489"/>
<path transform="translate(368,147)" d="m0 0h2l1 2v12h46v-12l2 3v8l44 1 1-10 2-1 1 29v30h12l-3 3h-57v4h-2l1-4h-48l-2-51zm4 16-1 1v45h47l-1-46zm47 0v46h46v-45l-1-1z" fill="#8A8F93"/>
<path transform="translate(912,303)" d="m0 0h21l1 46h-15l-1-1-6-38z" fill="#61676E"/>
<path transform="translate(321,855)" d="m0 0h2v58h45l1 3h-46v8h-36l-8-1v-45h1v35l3-1h38z" fill="#72777D"/>
<path transform="translate(417,855)" d="m0 0h2l1 24v22l-1 12h46v-58h1l1 10v48h17l-2 2-14 2-21-1h-28v7h47v1h-140v-1h44l-1-29v-38l2 1v56h45v2h-37l-2 1h-6l1 6 46 1-1-35z" fill="#969A9E"/>
<path transform="translate(982,297)" d="m0 0 2 4 6 48 1 12 1 26v49h-1v-37h-6l-1-1-1-35v-22l-1-8-1 10h-1l-2-35-1-4 3-1z" fill="#666C73"/>
<path transform="translate(991,636)" d="m0 0h1v52l-2 38-5 35-2 1-2 3-2-3v-13l1-22h1l1 11 1-8-2-7h-1v-18h1v15h2l-1-3 2-42 1 2h5z" fill="#686D74"/>
<path transform="translate(420,853)" d="m0 0h47v2h-2v13h-45v11h-1v-25z" fill="#646A71"/>
<path transform="translate(795,211)" d="m0 0h46l1 20-28-6-16-3-3-1z" fill="#61676E"/>
<path transform="translate(984,399)" d="m0 0h7l1 37v36l-1 18-6-1-1-7z" fill="#62686F"/>
<path transform="translate(28,726)" d="m0 0h14v32h2l1 15h64v2h-19l1 26v15h-2l-1-28v-13l-43 1-1 4-3-1v-2l-5-2-1-12-4-26v-10z" fill="#666B72"/>
<path transform="translate(783,850)" d="m0 0h10l2 3v12h-48l-1-5v-7l2-1z" fill="#636970"/>
<path transform="translate(985,587)" d="m0 0h6l1 32v17l-1 42-6-1v-2l-2-1 1-44-1-9 1-32z" fill="#61676E"/>
<path transform="translate(29,491)" d="m0 0h12l1 32 1 14h-15l-1-8v-33z" fill="#63696F"/>
<path transform="translate(28,539)" d="m0 0h13l1 32 1 14-15 1-1-9v-33z" fill="#62686F"/>
<path transform="translate(333,147)" d="m0 0h35l1 1v13h-41l-5-1-1-10 1-2z" fill="#61666D"/>
<path transform="translate(182,211)" d="m0 0h47l1 11-13 1-27 5h-8z" fill="#61676E"/>
<path transform="translate(230,850)" d="m0 0 50 3-2 3h-1v9l-46 1z" fill="#61676E"/>
<path transform="translate(922,442)" d="m0 0h17l-3 1v46h-13z" fill="#60666D"/>
<path transform="translate(922,490)" d="m0 0h16l-2 1v46h-13z" fill="#60666D"/>
<path transform="translate(981,721)" d="m0 0 2 4 1 6-1 12h-1l-1-5v-11h-46v45l46 1 1 4-1-2h-46v41l31 1-1 2h-30v46h-2l-1-11v-35h-32v-1l33-1v-42h-22v-2h22v-46h-14l-1 2-1-3 1-1h62z" fill="#8B8F94"/>
<path transform="translate(920,351)" d="m0 0h13v27h2v18l-1 1h-12l-2-23z" fill="#62686F"/>
<path transform="translate(28,587)" d="m0 0h13v41l2 1h-14v2h-2v-41z" fill="#636970"/>
<path transform="translate(30,398)" d="m0 0 11 1 1 11v29l1 2h-14v2h-2v-15l1-29z" fill="#62676E"/>
<path transform="translate(920,398)" d="m0 0h12l2 7 1-6h1v42h-14l-1-31z" fill="#61676E"/>
<path transform="translate(706,147)" d="m0 0h38l1 1v13h-42v-13z" fill="#62686F"/>
<path transform="translate(31,350)" d="m0 0 10 1 1 11v35h-14v-17l1-23z" fill="#62686F"/>
<path transform="translate(272,147)" d="m0 0 4 1 1 1v11l-23 1h-15l-8-1-1-9 3-2z" fill="#62686F"/>
<path transform="translate(289,147)" d="m0 0h31l1 1v12h-42l-1-3v-9z" fill="#62686F"/>
<path transform="translate(29,679)" d="m0 0h12v46h-10l-2-7z" fill="#60666D"/>
<path transform="translate(616,162)" d="m0 0h1v47h36l42 1v1l-40 1v40h-2v-41h-32l-4-1v43h70l-2 2h-30v37l-1 8h-1v-45h-29l-7-1v47h-1z" fill="#91969A"/>
<path transform="translate(828,911)" d="m0 0h9l1 4-44 6-27 2h-20v-7l44-2 1 4h2l-1-3 18-1 9 1-4-1-4-2h11l5 1z" fill="#656B71"/>
<path transform="translate(616,727)" d="m0 0h1v46h70l-2 2h-30l-1 41h-1v-41h-29l-7-1v43h70l-2 2h-31v44h-1v-44h-31l-5-1v47h-1z" fill="#92969B"/>
<path transform="translate(729,853)" d="m0 0h15l1 1v10l-1 1h-42v-9l1-2z" fill="#60666D"/>
<path transform="translate(793,149)" d="m0 0 10 2 29 4 18 4-1 3h3l-1 2-8-1v6h-1l-1-8-1 4-3-2h-42l-1-1-1-8-2-4z" fill="#646A70"/>
<path transform="translate(634,397)" d="m0 0h53l-1 4-1-2h-30l-1 42h33l-1 4-1-2h-31v46h33l-1 4-1-2h-31v46h-1v-46h-28v-1l14-1h14v-46h-29v-1l16-1h13v-42h-29v-1z" fill="#8F9398"/>
<path transform="translate(930,630)" d="m0 0h3v20l-1 26-1 1-9 1v-33l1-14z" fill="#60666D"/>
<path transform="translate(476,211)" d="m0 0m-57 1h57v3l-9 3-50 1h-95l-39-1v-1h136z" fill="#757A80"/>
<path transform="translate(701,146)" d="m0 0 5 1-3 1v13h42v-14l2 1-1 13h40l3 2h-42v46h6l1 2h-8l-1-4v-44h-42v45h-1l-1-26v-19l-36-1v-1h36l-1-14z" fill="#8C9195"/>
<path transform="translate(616,961)" d="m0 0h71v1l-32 1v45l30 1v2l-30 1v29l2 1-4 1v-32h-37v-2h37v-46h-35l-2 1z" fill="#8C9195"/>
<path transform="translate(320,147)" d="m0 0h13v1h-10v12l45 1v2h-45v46h46v-28h1v31h-42l-6-1-1-4v-47z" fill="#8B8F94"/>
<path transform="translate(89,204)" d="m0 0 2 4 5 1v2h-5v41l42 1 1-30h1l1 31-5 1h-40l-1 46h18v1l-8 1h-9l-9-1v-1h7v-46l-38 1 2-4 1 1h35z" fill="#8F9397"/>
<path transform="translate(923,587)" d="m0 0h10v18l-1 22-5 2h-4z" fill="#60666D"/>
<path transform="translate(233,211)" d="m0 0h40l7 1-1 5 3 1-5 1h-13l-19 1h-14v-8z" fill="#636970"/>
<path transform="translate(701,855)" d="m0 0h1v10h13l-1 2h-11v45h-2v-45h-46v45h-2v-45h-27l-9-1v-1h84z" fill="#8E9297"/>
<path transform="translate(910,300)" d="m0 0 2 1h69l-1 3-45-1v46h20v1l-9 1h-11v27h-2v-27h-13l-1 4v-4l-2-1 1-1 15-1v-45h-21l-1 2-2-4z" fill="#878B90"/>
<path transform="translate(762,211)" d="m0 0h15l16 1 1 9-21-1-25-2-1-1v-5z" fill="#636970"/>
<path transform="translate(379,914)" d="m0 0 20 1 19 1v7h-47v-7z" fill="#60666D"/>
<path transform="translate(459,488)" d="m0 0h14v1h-6v48h28l-3 2h-25v43l-1 1h-5l4-1v-43h-45v-2h45v-48h-6z" fill="#94989C"/>
<path transform="translate(277,489)" d="m0 0h2v48h30v1l-6 1h-24v43l-1 1h-5l4-1v-43h-45l1-2h44z" fill="#93979B"/>
<path transform="translate(91,475)" d="m0 0 1 3v43l-2 2-1-11v-21h-46v45h-1l-1-16v-29h-12v-1l11-1h49v-13z" fill="#81868B"/>
<path transform="translate(27,677)" d="m0 0h33v1l-17 1v46h47v47h-1l-1-6v-13l-1-26-57-1 1-3v2h10v-46h-12v19h-1z" fill="#888D92"/>
<path transform="translate(934,630)" d="m0 0h5l-3 1v43l1 2 16 1v1l-17 1v14l-1 31h-2v-38l1-7h-8l-3-2 8-1 1-29v-13z" fill="#6E7379"/>
<path transform="translate(58,817)" d="m0 0h75l2 4v43h-2v-45h-42v44h-1l-1-10v-34h-29z" fill="#8D9196"/>
<path transform="translate(922,539)" d="m0 0h1v46h5l1 2h-6v42l8-2 1-33v-6l-1-2h7l-2 1v42l-7 1v1h-6v14h-1l-1-16v-44z" fill="#6E7379"/>
<path transform="translate(722,915)" d="m0 0 23 1v7h-42v-6l1-1z" fill="#60666D"/>
<path transform="translate(234,915)" d="m0 0 8 1h23l11 1 2 1v6l-29-1-15-1-4-1 1-5z" fill="#636970"/>
<path transform="translate(651,28)" d="m0 0 4 1v35l3 1h27l1-5h1l1 7-2 3-2-2-29-1-1 45h-1v-45h-35l-1 41h-1v-44l37 1-1-35z" fill="#8F9397"/>
<path transform="translate(289,916)" d="m0 0h21l12 1v6h-43v-6z" fill="#60666D"/>
<path transform="translate(890,213)" d="m0 0h1v39h43l31 1 1 2h-32l1 20v25h-2v-45h-43l-1-1z" fill="#8C9195"/>
<path transform="translate(841,840)" d="m0 0h1l1 24-3 3h-45v45l-2-4v-41h-36l1-2 36-1 47 1-1-23-2-1z" fill="#94989C"/>
<path transform="translate(984,399)" d="m0 0h7l1 42h-7z" fill="#60666D"/>
<path transform="translate(277,906)" d="m0 0h1v12l-18-1h-19l-10-1v2h-2v-4l-8 1-8-1v-1l17-1h47z" fill="#6E7379"/>
<path transform="translate(133,174)" d="m0 0 2 4v31h30v1l-13 1h-17l-1 40h-1v-40h-37v-2h37z" fill="#93979B"/>
<path transform="translate(40,300)" d="m0 0h3v2h9v1l-8 1v20l-1 25-1 1v5l-1-4h-12l1-5 1 3 5-2 2-3 1-12z" fill="#71767C"/>
<path transform="translate(321,855)" d="m0 0h2v58h45l1 3h-46v8h-36v-1h35z" fill="#93979B"/>
<path transform="translate(616,817)" d="m0 0h71l-2 2h-31v44h-1v-44h-31l-5-1v47h-1z" fill="#919599"/>
<path transform="translate(465,855)" d="m0 0h1l1 10v48h17l-2 2-14 2-21-1v-1l-11-1v-1h29z" fill="#8A8E93"/>
<path transform="translate(616,629)" d="m0 0h71l-1 4-1-2h-31v45h-1v-45h-29l-7-1v47h-1z" fill="#919599"/>
<path transform="translate(616,113)" d="m0 0h69v2h-31v45h-1v-45h-29l-7-1v47h-1z" fill="#8E9397"/>
<path transform="translate(133,864)" d="m0 0 45 1 1 2h-44v30h-2v-30h-43v-2z" fill="#91959A"/>
<path transform="translate(923,442)" d="m0 0h16l-3 1v46h-5v-24l1-22h-9z" fill="#6E7379"/>
<path transform="translate(368,147)" d="m0 0h2l1 2v12h46v2l-45 1-1 45 6 1v1l-7 1-2-51z" fill="#919599"/>
<path transform="translate(653,1008)" d="m0 0 32 1v2l-30 1v29l2 1-4 1v-32h-37v-2z" fill="#8F9397"/>
<path transform="translate(369,856)" d="m0 0 2 1v56h45v2h-37l-2 1h-6l1 6-2 1-1-29z" fill="#8E9297"/>
<path transform="translate(930,538)" d="m0 0h9l-3 1 1 46h-6l1-4-1-10 1-25v-6z" fill="#6E7379"/>
<path transform="translate(930,490)" d="m0 0h8l-2 1v46h-5l1-4-1-14 1-14v-14z" fill="#6E7379"/>
<path transform="translate(465,152)" d="m0 0h1l1 27v30h12l-3 3h-44v-2l32-1z" fill="#979B9F"/>
<path transform="translate(617,301)" d="m0 0h70v14h-1l-1-12h-31v45h-1v-45h-31l-5-1z" fill="#91959A"/>
<path transform="translate(43,773)" d="m0 0h66v2h-19l1 26v15h-2l-1-28v-13h-42z" fill="#8C9195"/>
<path transform="translate(793,908)" d="m0 0 2 4h17l8 1v2h-14l-12 1v2h-2l-1-3-17 1h-26l1-3 44-1z" fill="#7F8489"/>
<path transform="translate(842,865)" d="m0 0h44l1 2h-44v44l1 2h-3v-47z" fill="#8F9397"/>
<path transform="translate(617,349)" d="m0 0h70l-1 4-1-2h-31v45h-1v-45h-32z" fill="#91959A"/>
<path transform="translate(617,725)" d="m0 0h70l-1 4-1-2h-31v44h-1v-44h-32z" fill="#919599"/>
<path transform="translate(617,677)" d="m0 0h70l-1 4-1-2h-31v45h-1v-45h-29l-7-1z" fill="#919599"/>
<path transform="translate(184,907)" d="m0 0 6 1h4l22 3 9 1-4 2h8l-1 4-2-2-1 1-9-1-21-2-8-1v-3h-2z" fill="#6D7278"/>
<path transform="translate(701,146)" d="m0 0 5 1-3 1v13h17v1l-5 1h-12v45h-1l-1-26v-19l-36-1v-1h36l-1-14z" fill="#969A9E"/>
<path transform="translate(701,182)" d="m0 0h1l1 26 32 1 1 2-22 1h-23v-1l-38-1v-1h48z" fill="#878C90"/>
<path transform="translate(464,859)" d="m0 0h1v9h-45v11h-1v-18l1 3h20l7-1h14l3 1z" fill="#6E7379"/>
<path transform="translate(981,721)" d="m0 0 2 4 1 6-1 12h-1l-1-5v-11h-46l-1 15h-1v-15h-14l-1 2-1-3 1-1h62z" fill="#878C91"/>
<path transform="translate(369,181)" d="m0 0h1v31h-42l-6-1v-2h47z" fill="#878B90"/>
<path transform="translate(701,855)" d="m0 0h1v10h13l-1 2h-11v45h-2v-45h-29v-1l29-1z" fill="#8B9094"/>
<path transform="translate(40,727)" d="m0 0h2v31h2l1 15-5 1v-10l-1-6-1-11-1-2h2v-12z" fill="#74797F"/>
<path transform="translate(511,526)" d="m0 0 2 2v7h2l1 4-3 11h-3l-1 4v-15h-17l3-2h13v-10l2 1z" fill="#74797E"/>
<path transform="translate(647,253)" d="m0 0h40l-2 2h-30v37l-1 8h-1v-45l-6-1z" fill="#8C9195"/>
<path transform="translate(932,399)" d="m0 0h1l1 6 1-6h1v42h-5l1-15z" fill="#6E7379"/>
<path transform="translate(323,526)" d="m0 0 4 4v11l-2 9-5-1 1-8-3-1-15-1v-1l17-2v-7h2z" fill="#73787D"/>
<path transform="translate(276,855)" d="m0 0 3 1 1 7 10 1h28l3 1v2l-8 1h-34v-3h-2z" fill="#777C81"/>
<path transform="translate(228,158)" d="m0 0 1 4-15 1h-32v-1l5-1v-1l20-1h19l2 1z" fill="#70757B"/>
<path transform="translate(923,677)" d="m0 0h30v1l-17 1v14l-1 31h-2v-38l1-7h-8z" fill="#82878C"/>
<path transform="translate(922,539)" d="m0 0h1v46h5l1 2h-6v42l6-1v3h-6v14h-1l-1-16v-44z" fill="#6F747A"/>
<path transform="translate(268,865)" d="m0 0h11l1 51-1 7h-1l-1-17v-39h-20v-1z" fill="#8B9094"/>
<path transform="translate(375,209)" d="m0 0h43v3h-46z" fill="#858A8F"/>
<path transform="translate(828,911)" d="m0 0h9l1 4-29 4h-3l-3-4 8-1 9 1-4-1-4-2h11l5 1z" fill="#6A6F75"/>
<path transform="translate(794,156)" d="m0 0 1 4 6-1h27l7 2 2 2h-42l-1-1z" fill="#6E7379"/>
<path transform="translate(982,297)" d="m0 0 2 4v7l-1 2h-2l2 16v7h-1l-1 10h-1l-2-35-1-4 3-1z" fill="#70757B"/>
<path transform="translate(29,441)" d="m0 0h21l1 2h-8v45h-1l-1-13v-31l-12-1z" fill="#878B90"/>
<path transform="translate(417,855)" d="m0 0h2l1 24v22l-1 12h-1l-1-25z" fill="#8C9095"/>
<path transform="translate(324,913)" d="m0 0h44l1 3h-45z" fill="#7F8489"/>
<path transform="translate(279,878)" d="m0 0h1v35l3-1h12l4 1v2l-10 2h-10z" fill="#73787E"/>
<path transform="translate(134,223)" d="m0 0h1l1 31-5 1h-32l-5-1v-1h39z" fill="#878C90"/>
<path transform="translate(411,862)" d="m0 0 6 3-3 2h-18l-23 1 2-4h11l9 1 11-1z" fill="#6E7379"/>
<path transform="translate(980,727)" d="m0 0h1l2 16-1 12h2l1-3 1 3-1 6-2 1-2 3-2-3v-13z" fill="#6E7379"/>
<path transform="translate(89,679)" d="m0 0h1l1 32v14h9v-6h1l1 10-2-1-10-1-1-2z" fill="#80858A"/>
<path transform="translate(371,913)" d="m0 0h45v2h-37l-7 1z" fill="#7F8489"/>
<path transform="translate(133,864)" d="m0 0 2 2-2 2-43-1v-2z" fill="#95999D"/>
<path transform="translate(918,349)" d="m0 0h14l4 2-1 27h-2v-27h-13l-1 4v-4l-2-1z" fill="#7F8489"/>
<path transform="translate(42,350)" d="m0 0h9v1h-7l-1 37-1 8h-1v-41z" fill="#7F8489"/>
<path transform="translate(225,912)" d="m0 0h19l10 1-3 2h-11l-9 1v2h-2v-4l-8 1-8-1v-1z" fill="#7F8489"/>
<path transform="translate(466,160)" d="m0 0h14l5 2-1 2h-17v15h-1z" fill="#71767C"/>
<path transform="translate(41,539)" d="m0 0h3v26l-1 19h-1l-1-22z" fill="#767B81"/>
<path transform="translate(793,908)" d="m0 0 2 4h17l8 1v2h-14l-12 1v2h-2l-1-3-4-2 1-1h5z" fill="#7F8489"/>
<path transform="translate(921,386)" d="m0 0h1v11l13-1 20 1v1l-20 1v11h-1l-2-11h-9l-2-1z" fill="#898E92"/>
<path transform="translate(27,677)" d="m0 0h33v1l-17 1-1 3-1-3h-12v19h-1z" fill="#8A8E93"/>
<path transform="translate(984,403)" d="m0 0h1v38h7l-1 3h-5l-1 23h-1z" fill="#6E7379"/>
<path transform="translate(95,195)" d="m0 0m-2 1 2 1-4 5v6l-5 3h-5l-4 3 2-4z" fill="#6E7379"/>
<path transform="translate(41,333)" d="m0 0h1l1 16-1 1v5l-1-4h-12l1-5 1 3 5-2 2-3 2-2z" fill="#787D82"/>
<path transform="translate(39,398)" d="m0 0 5 1-1 41-2-1v-40z" fill="#81868B"/>
<path transform="translate(301,864)" d="m0 0h17l3 1v2l-8 1-19-1v-2z" fill="#6E7379"/>
<path transform="translate(302,209)" d="m0 0h20v2h6v1l-44-1v-1z" fill="#91959A"/>
<path transform="translate(90,668)" d="m0 0h1l1 9v24l-1 10h-1l-1-33z" fill="#8E9296"/>
<path transform="translate(418,913)" d="m0 0h18l13 1v1l-30 1v7h-1z" fill="#92969A"/>
<path transform="translate(27,580)" d="m0 0h1l1 5h19l3 2h-8v16h-1v-16h-15z" fill="#8F9398"/>
<path transform="translate(361,861)" d="m0 0 4 1 1 4-2 1h-19v-2l6-1 7-1z" fill="#6E7379"/>
<path transform="translate(735,209)" d="m0 0h11v2l7-1 4-1v2h5v1h-15l1 6-3 1-1-7h-6z" fill="#7C8186"/>
<path transform="translate(828,911)" d="m0 0h9l1 4-9 1-2-1h-7l-4-1-4-2h11l5 1z" fill="#72777D"/>
<path transform="translate(981,721)" d="m0 0 2 4 1 6-1 12h-1l-1-5v-11h-15v-2h14z" fill="#7F8489"/>
<path transform="translate(889,817)" d="m0 0h42v1l-31 1-11 1z" fill="#95999D"/>
<path transform="translate(29,629)" d="m0 0h17l4 2h-7v17h-1v-17h-13z" fill="#92969B"/>
<path transform="translate(720,913)" d="m0 0h26l-3 1v2h-19z" fill="#7F8489"/>
<path transform="translate(230,157)" d="m0 0 1 3h8l3 1 14 1v1l-25 1-1-1z" fill="#7F8489"/>
<path transform="translate(230,208)" d="m0 0 10 1-1 2-8 1v8h-2v-9l-6-1v-1z" fill="#8B8F94"/>
<path transform="translate(323,864)" d="m0 0h15l6 1v2h-13l-6 1-2-1z" fill="#6E7379"/>
<path transform="translate(466,208)" d="m0 0 13 1-3 3h-20v-1h10z" fill="#7F8389"/>
<path transform="translate(796,915)" d="m0 0h7l3 2v2l-4 1h-8z" fill="#666C73"/>
<path transform="translate(281,209)" d="m0 0h21l-2 3h-20z" fill="#7F8489"/>
<path transform="translate(842,158)" d="m0 0 8 1-1 3h3l-1 2-8-1v6h-1z" fill="#6D7278"/>
<path transform="translate(273,208)" d="m0 0 5 1v3l-23-1v-1l14-1z" fill="#81868B"/>
<path transform="translate(370,182)" d="m0 0h1v27l6 1v1l-7 1z" fill="#979B9F"/>
<path transform="translate(418,209)" d="m0 0 14 1v2h-13v4h-2z" fill="#92969A"/>
<path transform="translate(686,60)" d="m0 0h1l1 7-2 3-2-2-25-1v-1l26-1z" fill="#909499"/>
<path transform="translate(326,530)" d="m0 0h1v11l-2 9-1-2h-2l1-8 2-2z" fill="#797F84"/>
<path transform="translate(182,885)" d="m0 0h1l1 23-2 5h-1z" fill="#81868B"/>
<path transform="translate(471,864)" d="m0 0h9v2l2 1-7 1-6-1v-2z" fill="#6E7379"/>
<path transform="translate(90,502)" d="m0 0h1l1 10v9l-2 2-1-11z" fill="#888C91"/>
<path transform="translate(981,324)" d="m0 0 2 2v7h-1l-1 10h-1l-1-18z" fill="#6E7379"/>
<path transform="translate(89,204)" d="m0 0 2 4 5 1v2h-5v6l-2 1z" fill="#8E9297"/>
<path transform="translate(701,146)" d="m0 0 5 1-3 1v13h-2l-1-14z" fill="#868A8F"/>
<path transform="translate(793,908)" d="m0 0 2 4 2 2-2 2-1 2h-2l-1-3-4-2 1-1h5z" fill="#858A8F"/>
<path transform="translate(214,914)" d="m0 0h15l-1 4-2-2-1 1-9-1z" fill="#6E7379"/>
<path transform="translate(927,628)" d="m0 0 2 1v2h-6v14h-1l-1-16z" fill="#71767C"/>
<path transform="translate(918,349)" d="m0 0h11l2 2h-11l-1 4v-4l-2-1z" fill="#92969A"/>
<path transform="translate(746,913)" d="m0 0 3 1-2 9-2 1v-8h-2v-2z" fill="#93979B"/>
<path transform="translate(812,912)" d="m0 0h11l4 1v2h-7l-4-1z" fill="#6E7379"/>
<path transform="translate(648,629)" d="m0 0h9l7 1v1l-11 1-6-1z" fill="#969A9E"/>
<path transform="translate(419,160)" d="m0 0 13 1-4 2h-9z" fill="#85898E"/>
</svg>
