<?xml version="1.0" encoding="UTF-8"?>
<svg version="1.1" viewBox="0 0 2048 1955" width="1280" height="1280" xmlns="http://www.w3.org/2000/svg">
<path transform="translate(0)" d="m0 0h2048v1955h-2048z" fill="#FDFDFD"/>
<path transform="translate(526,47)" d="m0 0h488l87 1 173 1 92 1 44 1 77 1h46l1-2 2 2 25 4 28 7 29 9 27 10 13 5 16 8 25 12 22 12 19 12 11 8 18 13 9 7 10 9 8 7 15 14 18 18 7 8 8 9 13 17 10 12 18 27 15 25 18 36 11 23 2 3 7 25 8 29 6 25 5 32 1 13 2 2-1 2v122l-13 1 17 1-3 4-1 122h3l-1 3-1 19-1 105h3l-2 5-1 122 3 1v2h-2v27l-1 86h3l-1 3-1 16-1 109 4 1-2 1-1 16-1 107-1 1 6 1-3 4-1 16-2 61v47l-2 5-6 31-10 36-15 45-5 14-7 15-10 22-9 15-14 22-8 12-13 18-13 16-11 12-7 8-19 19-11 9-14 12-16 14-16 11-17 12-22 14-22 12-16 8-21 10-29 11-27 9-28 7-23 4-10 1-2 1-2 14-1 18h-1v-84l-1 51-5 2-84 2h-32l-3 6h-1v-47l-1 31-1 9-6 1h-115l-2 3-3-1 1-59 1-3-1-29-1 25-1 7-12 1-1 1 12 1 1 1 1 28v15l-1 9-4 1-83 1h-34l-5 1h-121l-2-1v2l-7-1h-108l-5 2-2-4-123 1v2l-3-1v-2l-53 1h-59l-11-1-2 5-2-2v-3l-8 1h-46l-43-2h-26l-2 6-2 4v-18l-2 7-8 1-9-2-40-8-42-12-24-8-14-7-15-6-16-8-25-12-19-12-18-12-17-11-8-9-14-11-11-9-29-29-9-11-11-12-13-17-16-21-10-15-17-32-10-19-7-14-5-12-8-21-10-30-10-40-4-24-3-1 3-1-1-9-1-30v-89l4-1-4-1v-125l2-1-2-1v-74l1-49 2-7 13-13 15-11 16-7 8-2 9-1h9l15 6 14 9 10 9 7 10 5 5 1 2-1 75-1 47-1 1h-7l10 2 1 126 2 4v21l3 72 2 27 4 5 3 18 12 36 13 33 15 31 6 7 3 2 7 14 10 14 9 11 18 20 16 16 11 9 13 10 18 13 16 10 10 5 5 4 16 8 35 14 37 12 26 7 16 2 44 2 68 1 8 1v-2h2v2h127l124 1 3-1 9 1h105l1-2v2l128-1 125 1 1-3h2v2h25l99-1 2-2 1 2h20l55-2 32-3 16-2 2-5 4 3 42-12 28-10 21-10 17-8 10-5h2l2-4 2-2 6-2 9-6 14-11 14-12 16-15 7-7 7-8 13-15 11-14 10-14 8-14 14-27 9-19 11-27 10-31 3-16 4-3-1-3 3-28 2-25 1-20v-47l-4-3h6l-1-2v-124l-2-2 2-1 1-42v-82l-2-2 2-1v-113l-2-2 3-1-1-124-4-2 4-1v-114l-1-8-5-2 3-2h3l-1-17-1-108-1-2h2l-2-81-3-43-3-10-4-22-9-31-7-20-17-41-6-10-7-11-11-18-8-10-9-10-7-8-34-34-8-7-11-9-27-18-11-7-16-9-17-9-29-12-30-10-24-6-1-1-32-3-51-3-40-1-3 1v-50l-1 6-1 41-1 1-123 1-1 7h-1l1-63v-19l-1-31v56l-1 48h-123l-3 3v-4l-124 1-3 2v-44l-1 40-1 1h-111l-1 4-2-3v-41l-1 39-1 1-26 1h-99l-1-47v54l-2-3-1-2-122 1-1-1v-86l-1-37-1 69-44 1-1 1 44 1v50l-1 1-48 1-45 2-23 2-5 1-1 6h-1l-1-61-1 1v39l-1 15-1 1-25 5-20 5-30 10-23 10-24 11-10 6-13 7-14 10-16 14-10 9-37 37-9 11-8 9-10 15-8 14-4 5h-2l-1 6-12 22-8 16-8 20-9 27-9 36-5 2 3 1 2-1 3 3-2 1-1 8-4 104-1 11-9 1 9 1 1 2-3 121-1 2-9 1 11 2-1 102-2 10-7 11-8 8-11 9-22 11-22-2-15-4-10-5-13-11-7-8-4-8-2-10-1-24v-79l4-1-4-1v-125l68-1h-67l-1-1v-75l1-37 1-12 1-1-2-1 2-17 7-34 9-34 13-38 8-19 13-28 10-19 14-25 13-18 9-14 8-10 12-14 18-18 7-8 15-14 14-14 11-9 14-11 20-13 21-14 19-10 23-13 28-13 8-4 12-5 30-10 30-8 40-8 13-1z" fill="#0D4483"/>
<path transform="translate(526,924)" d="m0 0h129l359 1h394l229 1 9 2 9 6 10 11 7 11 4 10 2 13v16l-2 16-4 10-9 11-5 6-15 9-13 2-27 1h-67l-3 3-1-5 1-63-1-23v36l-1 51-8 1h-116l-1-51v-48l-1 99h-123-4-503l-121 1v-46l-1 45-123 1h-4v-47l-1 45-18 1h-106-3l-3-5-11-8-10-10-7-11-4-12-1-5v-17l3-17 6-14 8-11 9-8 12-7z" fill="#0D4483"/>
<path transform="translate(146,1078)" d="m0 0h9l15 6 14 9 10 9 7 10 5 5 1 2-1 75-1 47-1 1h-7l10 2 1 126 2 4v21l3 72 2 27 4 5 3 18 12 36 13 33 12 25v6l2 4-2 2-51 1h-49l-1-84-1-25v-14l-4 1v39l3 72v8l-2 2h-28l2 2 10 1h126l2 6 1 14 1 50 1 24v30h-35l-19-1-8-1-1 4 4 1 58 2 1 1 1 55 3 6v-61l7-1h72l12 1 30 1 1 2 1 61v71l-6-1-19-8-16-8-25-12-19-12-18-12-17-11-8-9-14-11-11-9-29-29-9-11-11-12-13-17-16-21-10-15-17-32-10-19-7-14-5-12-8-21-10-30-10-40-4-24-3-1 3-1-1-9-1-30v-89l4-1-4-1v-125l2-1-2-1v-74l1-49 2-7 13-13 15-11 16-7 8-2z" fill="#0D4584"/>
<path transform="translate(1277,325)" d="m0 0h19l31 1 31 3 32 5 16 4 23 7 23 8 20 8 17 9 26 16 15 10 8 7 12 9 12 11 21 21 9 11 12 15 10 15 11 15 17 28 13 25 7 20 7 29 4 15 1 1 2 27 3 35 1 19v18l-2 33-3 11-4 6-10 12-5 5-11 7-17 6-5 1h-14l-16-5-15-8-13-12-9-14-2-5-1-6v-25l-4-36-10-63-6-23-8-19-12-19-14-18-12-13-6-7-8-7-13-11-15-10-15-9-20-10-7-4-20-6-25-5-46-6-32-3-4-1-10 2-2-1h-11l-13-8-13-11-9-12-5-13-2-10v-15l3-16 6-10 9-11 11-10 14-8 7-3z" fill="#0D4483"/>
<path transform="translate(671,329)" d="m0 0h78l31 1 5 2 10 3 12 9 10 10 9 14 4 10 1 8-1 21-6 15-7 10-6 7-8 7-8 4-9 3h-6v4h-2l-1-2-6-1-33 2-27 3-39 6-14 3-23 7-20 9-14 8-13 9-11 9-12 11-7 6-7 8-10 11-11 16-12 21-9 19-7 20-4 13-4 31-7 76v6 3l-3 11-6 9-10 10-13 9-11 5-8 2-11 1-14-2-11-3v-2l-5-2-12-8-9-9-6-10-5-12v-2h-7v-1h7l-2-31v-33l3-37 3-24 1-1 3-15 8-29 9-26 11-25 9-17 14-23 9-10 11-14 12-14 27-27 14-11 13-10 14-10 9-7 13-7 15-9 29-14 24-9 18-6 24-6 3-1z" fill="#0D4483"/>
<path transform="translate(414,1176)" d="m0 0h21l13 4 11 6 10 8 9 10 7 14 2 11 1 17 1 21 5 40 6 33 6 25 11 25 10 19 11 16 11 13 18 18 11 9 13 10 18 11 28 12 17 9 5 3 63 7 42 3h12l4-3 6 2 13 7 11 9 8 9 8 15 4 12 1 5v13l-2 10-8 19-6 8-10 9-10 6-12 3-1 1-22 2h-48l-59-6-15-4-36-10-21-7-20-11-16-8-10-6-8-5-8-7-19-14-10-9-8-7-30-30-11-14-10-12-21-31-10-15-10-22-6-15-8-26-7-28-4-23-2-19v-74l3-2 1-12 3-17 4-10 6-8 10-9 10-6 9-3z" fill="#0D4483"/>
<path transform="translate(1600,1178)" d="m0 0h13l21 3 15 6 8 6 12 12 7 11 4 11 2 16 1 3-3 31-7 67-3 25-2 1-4 19-7 27-9 21-11 22-15 25-7 10-4 7-8 9-8 10-11 13-14 14-11 9-18 14-11 9-13 8-29 17-18 10-25 11-36 9h-3l-1 2v-94l-1 93-6 2-30 5-23 2h-55l-23-2-16-3-10-4-11-7-9-11-6-14-3-14-1-14 3-17 6-12 9-10 12-9 9-4 15-3 16-1 10 2 55-8 28-5 26-6 14-4 18-10 18-13 16-12 13-12 13-13 11-14 14-20 12-20 5-13 1-5 5-15 5-26 8-64 1-14 1-6-2-2v-14l4-10 8-14 11-12 13-8 5-2z" fill="#0D4584"/>
<path transform="translate(1784,361)" d="m0 0h2v2l4 1 14 1 41 1h51l2 7 1 4 1 18 1 50v44l-24 1h-47v3h129v124l-13 1 17 1-3 4-1 122h3l-1 3-1 19-1 105h3l-2 5-1 79-1 42h-55v-22l1-75v-25h-4v40l-1 82-4 1-53 1-5-1 1 2h62l-1 113-19 1h-44l-1-112-3-3 3-1-1-124-4-2 4-1v-114l-1-8-5-2 3-2h3l-1-17-1-108-1-2h2l-2-81-3-43-3-10-4-22-9-31-7-20-17-41-4-6z" fill="#0D4584"/>
<path transform="translate(1533,50)" d="m0 0 3 2 25 4 28 7 29 9 27 10 13 5 16 8 25 12 22 12 19 12 11 8 18 13 9 7 10 9 8 7 15 14 18 18 7 8 8 9 13 17 10 12 18 27 15 25 18 36 11 23 2 3 7 25 8 29 6 25 5 32 1 13 2 2h-130v-3l47-1h24l-2-94-1-18-2-10h-51l-41-1-14-1-4-2v-2h-2l-1 2-8-13-11-18-8-10-9-10-7-8-34-34-8-7-11-9-27-18-11-7-16-9-17-9-29-12-30-10-24-6-1-1-32-3-51-3-40-1-3 1v-50l-1 6-1 41-1 1-123 1-1 7h-1l1-63 41 1 84 1v-67h4v66l122 1v-68h-5v-1h8z" fill="#0D4483"/>
<path transform="translate(274,155)" d="m0 0h1v44l-1 47 10-1 80-2v3l-16 14-10 9-37 37-9 11-8 9-10 15-8 14-4 5h-2l-1 6-12 22-8 16-8 20-9 27-9 36-5 2 3 1 2-1 3 3-2 1-1 8-4 104-1 11-9 1 9 1 1 2-3 121-1 2-9 1 11 2-1 102-2 10-7 11-8 8-11 9-22 11-22-2-15-4-10-5-13-11-7-8-4-8-2-10-1-24v-79l4-1-4-1v-125l68-1h-67l-1-1v-75l1-37 1-12 1-1-2-1 2-17 7-34 9-34 13-38 3-8 1 3 3-1h15l18 2v-16l1-20 2-12h1l1 47 34-1 18-1 35-1 5-3 5-2 7-9 2-5 2-74v-16h-74v-3l6-1 47-1 21-1 1-7 1-28 1-47 3-7z" fill="#0D4483"/>
<path transform="translate(153,1501)" d="m0 0h4l2 39v84l100-2v-3l-1-3 2-3 6 9 5 4 7 14 10 14 9 11 18 20 16 16 11 9 13 10 18 13 16 10 10 5 5 4 16 8 35 14 37 12 26 7 16 2 44 2 68 1 8 1v-2h2v2h127v69l125 1 1 2v47l-1 5h-2v-51h-124v52l-3 4v-2l-53 1h-59l-11-1-2 5-2-2v-3l-8 1h-46l-43-2h-26l-2 6-2 4v-18l-2 7-8 1-9-2-40-8-42-12-24-8-6-3 2-1-2-134h-30l-12-1h-79l1 2v60l-2 1-3-8-1-55-58-2-4-2 1-4 27 1 35 1-2-54-1-53-2-16h-126l-10-1-3-3 1-1h28l1-1-1-31-2-49v-39z" fill="#2B6EAB"/>
<path transform="translate(213,1497)" d="m0 0 5 1 1 1 3 18 12 36 13 33 12 25v6l2 4-2 2-51 1h-49l-1-84-1-25v-14l-4 1v39l3 72v8l-2 2h-28l2 2 10 1h126l2 6 1 14 1 50 1 24v30h-35l-19-1-8-1-1 4 4 1 58 2 1 1 1 55 3 6v-61l7-1h72l12 1 30 1 1 2 1 61v71l-6-1-19-8-16-8-25-12-19-12-18-12-17-11-8-9-14-11-11-9-29-29-9-11-11-12-13-17-16-21-10-15-17-32-10-19-7-14-5-12-8-21-10-30-10-40-4-24-3-1 4-2h81z" fill="#0D4483"/>
<path transform="translate(526,924)" d="m0 0h129l1 14 1 60 111-1h12l-1-9v-50l1-10 3-1 1 46v75l5-1 104-1 303 1 20 1v1l-441 1-121 1v-46l-1 45-123 1h-4v-47l-1 45-18 1h-106-3l-3-5-11-8-10-10-7-11-4-12-1-5v-17l3-17 6-14 8-11 9-8 12-7z" fill="#1E63A4"/>
<path transform="translate(1277,325)" d="m0 0h19l31 1 31 3 32 5 16 4 23 7 23 8 20 8 17 9 26 16 15 10 6 5-2 1v3l4 2 6 5v2l-5-2-5-4 1 44v37h70l4 2v2l-25 1-50 1 1 6 2 61v32l-2-1-1-5-1-19-1-4-1-15-1-37v-18h-67l-4 3-10-2v-2l-6-1-7-4-2 1-24-12-7-4-20-6-25-5-46-6-32-3-4-1-10 2-2-1h-11l-13-8-13-11-9-12-5-13-2-10v-15l3-16 6-10 9-11 11-10 14-8 7-3z" fill="#0D4483"/>
<path transform="translate(1600,1178)" d="m0 0h13l21 3 15 6 8 6 12 12 7 11 4 11 2 16 1 3-3 31-7 67-3 25-2 1-4 19-7 27-9 21-11 22-15 25-7 10-4 7-8 9-8 10-11 13-14 14-11 9-18 14-5 4h-2v-75l1 2 58-2 16-1 2-1 1-3-5 1-6 1h-66v-48l1-38v-29l-1-2-4 2 3-10 1-5 5-15 5-26 8-64 1-14 1-6-2-2v-14l4-10 8-14 11-12 13-8 5-2z" fill="#0D4483"/>
<path transform="translate(1903,875)" d="m0 0 2 1v28l-1 72-1 22h55v-42h1v43l3 1v2h-2v27l-1 86h3l-1 3-1 16-1 109 4 1-2 1-1 16-1 107-1 1 6 1-2 2h-63l-69 1-2-2h6l-1-2v-124l-2-2 2-1 1-42v-82l-2-2 2-1 1-112h1v112l44-1h19v-109l1-4-8 1h-54l-1-3 62-1v-82l1-40z" fill="#0E4584"/>
<path transform="translate(671,329)" d="m0 0h78l31 1 5 2 10 3 12 9 10 10 9 14 4 10 1 8-1 21-6 15-7 10-6 7-8 7-8 4-9 3h-6v4h-2l-1-2-6-1-33 2-27 3-39 6-14 3-23 7-20 9-9 5-3-1 1-2-15 1h-60v-98l-2-1 2-4 15-8 15-9 29-14 24-9 18-6 24-6 3-1z" fill="#0D4483"/>
<path transform="translate(1024,48)" d="m0 0h77l173 1 92 1 44 1 77 1 43 1v68h-110l-12-1-1-66h-2l-1 67h-84l-37-1-3-1-2-50-1 51-124-1-1-68-2 1v67l-8 1-116-1z" fill="#0D4483"/>
<path transform="translate(1022,48)" d="m0 0 3 1 1 36v34h124l-1-19v-48l3-1 1 7v61h122l2 1v-16h1v21l-1 48h-123l-3 3v-4l-124 1-3 2v-44l-1 40-1 1h-111l-1 4-2-3v-41l-1 39-1 1-26 1h-99l-1-47v54l-2-3-1-2-122 1-1-1v-54l1-1 122 1 3 1-1-2-1-53v-18h4l1 70 1 1 123 1-1-12v-59l4-1v71h112z" fill="#0E4584"/>
<path transform="translate(1533,50)" d="m0 0 3 2 25 4 28 7 29 9 27 10 13 5 16 8 13 6 1 4 11 7 9 3 12 8 1 2-7 1-8-1-6 1-38-2 1 49v55l-1 7h-3l-22-13-21-11-29-12-30-10-24-6-1-1-32-3-51-3-40-1-3 1v-50l-1 6-1 41-1 1-123 1-1 7h-1l1-63 41 1 84 1v-67h4v66l122 1v-68h-5v-1h8z" fill="#0D4483"/>
<path transform="translate(391,84)" d="m0 0h5v26l-1 1 2 1v5l-3 2-54 1-10 2v2l2 1h64l1 101-19 10-11 8-93 2v-90l-3 7-1 47-1 28-1 7-1 1-21 1-53 1v3l75-1v17l-2 74-3 6-8 10-7 3-2 1-35 1-49 2-4-1-1-44-1 9-2 36h-12l-6-1h-18l1-8 16-34 10-19 14-25 13-18 9-14 8-10 12-14 18-18 7-8 15-14 14-14 11-9 14-11 20-13 21-14 19-10 23-13z" fill="#0D4483"/>
<path transform="translate(414,1176)" d="m0 0h21l13 4 11 6 10 8 9 10 7 14 2 11 1 17 1 21 5 40 6 33 6 25 11 25 10 19 11 16 11 13 18 18 11 9 13 10 18 11 28 12 12 6-8 2h-9v-2h-17l-17-1-70-2 1 12v66h-2v5l-3-3-1-19-1-59-68-2-14-1-3-3 1-4 30 2 55 1-1-32-3-40-2-11-5-17-9-21-1-2-7-1h-95l-18-2h-8l-2 2-4-18-4-26-1-10v-74l3-2 1-12 3-17 4-10 6-8 10-9 10-6 9-3z" fill="#0D4483"/>
<path transform="translate(1784,361)" d="m0 0h2v2l4 1 14 1 41 1h51l2 7 1 4 1 18 1 50v44l-24 1h-47v3h129l-1 123h-54v-121l-3-1v123h-67l-1-50-1-30-2-17-2-25-3-10-4-22-9-31-7-20-17-41-4-6z" fill="#0D4483"/>
<path transform="translate(526,47)" d="m0 0 2 1v72h19l61 1-1 2 44 1v50l-1 1-48 1-45 2-23 2-5 1-1 6h-1l-1-61-1 1v39l-1 15-1 1-25 5-20 5-30 10-23 10-24 11-4 2-1-2v-98l-45 1h-19l-3-2 3-3 8-2 54-1 2-1 1-5-3-1 1-1 1-26-2-1 9-5 25-9 35-10 37-8 17-3h7z" fill="#0D4483"/>
<path transform="translate(274,155)" d="m0 0h1v44l-1 47 10-1 80-2v3l-16 14-10 9-37 37-9 11-8 9-10 15-8 14-4 5h-2l-1 6-12 22-8 16-8 20-9 27-9 36-5 2v2l-13 1-37 1-3-1-4 1-14 1h-51l-3-3 2-17 7-34 9-34 13-38 3-8 1 3 3-1h15l18 2v-16l1-20 2-12h1l1 47 34-1 18-1 35-1 5-3 5-2 7-9 2-5 2-74v-16h-74v-3l6-1 47-1 21-1 1-7 1-28 1-47 3-7z" fill="#0D4584"/>
<path transform="translate(1959,873)" d="m0 0 3 1-2 3-1 79-1 42h-55v-22l1-75v-25h-4v40l-1 82-4 1-53 1-5-1 1 2h62l-1 113-19 1h-44l-1-112-3-3 3-1v-125z" fill="#0D4483"/>
<path transform="translate(782,1872)" d="m0 0h124v51h2l1-51h113v52h3v-52h123l1 1v45l-1 8-4 1-29 1h-86l-2-1v2l-7-1h-108l-5 2-2-4-123 1v2h-2l1-5z" fill="#0D4584"/>
<path transform="translate(374,1369)" d="m0 0 19 1 7 1h99l4 2 3 5 4 12 4 8 4 15 2 11 3 40v32h-55l-23-2h-6l-1 3 2 2 14 1 68 2 1 1 1 59 1 19 1 2 1-4h2v-64h1l2 46v16l1 7-2 3h-4l-1 2-11-9-16-12-15-13-32-32-11-14-10-12-21-31-10-15-10-22-6-15-8-26-3-12v-6z" fill="#0D4483"/>
<path transform="translate(526,924)" d="m0 0 126 1v75l-119-1-4-1-1-16-1-44-1-10-1 71-123-1-1-2v-65l-1-4 1-1z" fill="#0D4483"/>
<path transform="translate(1521,1792)" d="m0 0h9v76h-123l-2-48-1 47-1 2h-118l-4-1-1-4-1-36v-31h2v2h25l99-1 2-2 1 2h20l55-2 32-3z" fill="#0D4483"/>
<path transform="translate(1151,1799)" d="m0 0 124 1 1 1v68h-113l-9-1-1-2-1-64h-3v67h-122l-1 2h-2l-1-3h3l-2-67 1-1z" fill="#0D4483"/>
<path transform="translate(1530,926)" d="m0 0h107l9 2 9 6 10 11 7 11 4 10 2 13v16l-2 16-4 10-9 11-5 6-15 9-13 2-27 1h-67l-3 3-1-5 1-63-1-23h-1z" fill="#0D4584"/>
<path transform="translate(1901,494)" d="m0 0 4 1v111l-1 10h54v-79h1v80l-13 1 17 1-3 4-1 122h3l-1 3-1 19-1 105 3 1-3 1h-119l-4-2 35-1h29v-81l1-41-64-1-1-3 47-1h17v-38l1-86h-64l-4-1-2-90h1l1 8 1 30v50h67z" fill="#0E4584"/>
<path transform="translate(1638,1371)" d="m0 0h19l-3 8h-2l-1 5-3 8-2 17-1 8-3 8-2 5-3 9-6 12-1 8 4-4 4-2-1 6-15 25-7 10-4 7-8 9-8 10-11 13-14 14-11 9-18 14-5 4h-2v-75l1 2 58-2 16-1 2-1 1-3-5 1-6 1h-66v-48l1-38v-29l-1-2-4 2 3-9z" fill="#0D4483"/>
<path transform="translate(1406,926)" d="m0 0h124l1 1 1 71-1 51-8 1h-116l-1-51z" fill="#0D4483"/>
<path transform="translate(1899,1371)" d="m0 0h63l-1 3-1 16-3 84-1 21-4 1h-48l-1-1 1-119 1-3-4 1-2 121-1 1h-72l4-42 2-33v-47l-1-2z" fill="#0D4483"/>
<path transform="translate(212,489)" d="m0 0 4 2-2 2-1 8-4 104-1 11h-53l1-63 1-22v-36l-4-1-1 80-1 42-25 1h-44v-75l1-37 1-12h53l14-1 5-1 4 1 35-1 16-1z" fill="#0D4483"/>
<path transform="translate(1277,325)" d="m0 0h19l31 1 31 3 32 5 16 4 10 3-1 3 4 1 20 7 13 5 6 1 10 6 5 5v2l2 1h-2l1 6-9-1-23-8-7-2-10-1h-15l-1-2v94l-1 11-2 3h-2l-1-23-1-48v-30h-24l-19-1-60-1-18-1v84l6 1v1h-7l-4-1-10 2-2-1h-11l-13-8-13-11-9-12-5-13-2-10v-15l3-16 6-10 9-11 11-10 14-8 7-3z" fill="#165293"/>
<path transform="translate(1395,1503)" d="m0 0h9l-1 117-32 2h-84l-7-1-2-91-1-10 4-1 10 2 55-8 28-5z" fill="#0D4483"/>
<path transform="translate(1488,1499)" d="m0 0h42l-1 77h2l-2 4-29 17-26 15-26 12-27 7-9 2h-5v-35l1-90 16-4 17-2z" fill="#0D4483"/>
<path transform="translate(1686,102)" d="m0 0 5 1 25 13 21 13 14 10 18 13 9 7 10 9 3 3h-3l3 4-1 2-11-8h-2l1 6v71h-1l-1-54-1-24-4-1 2 67v11l-2 2h-35l-31-2-14-1-10-1v2h2v2h-2v2l-4-2-13-8-3-2 1-9v-55l-1-49 2-1 38 2 7-1 10 1 2-1-14-9-9-2-4-4-7-5z" fill="#0D4483"/>
<path transform="translate(655,1510)" d="m0 0 24 2 33 4 65 5 1 14v87l-2 1-19 1-6 1-9-1-10 1-18-2-29-1-18-2-11-3-1-68-1-38z" fill="#0D4483"/>
<path transform="translate(1547,620)" d="m0 0h102l6 2 3 46v74l-1 1-26 1h-47v-2h-12l-5-3-3-5-1-12-2-1-3-1-1-4 2-4-4-7v-13-3l-1-5h-3l1-9-3-2-2-13-1-5h-2l-4-25v-9z" fill="#0D4483"/>
<path transform="translate(1812,1628)" d="m0 0h85v15l-3 18 1 5 2 5 3-3-1 5-12 19-14 22-12 16-10 13-4 5h-8l-8 2h-18l-36-1v-43l1-36v-41z" fill="#0D4483"/>
<path transform="translate(1651,1746)" d="m0 0h4l2 11v107l-11 1-42 1h-69l-1-20-1-49-1-9 2-2 3 3 42-12 28-10 21-10 17-8z" fill="#0D4483"/>
<path transform="translate(1046,125)" d="m0 0h104l1 43h2v-42l24-1h100v48h-123l-3 3v-4h-126v-45l1-1z" fill="#0D4584"/>
<path transform="translate(502,617)" d="m0 0 1 3-4 11-4 26-7 72-1 13-2 2-31 1h-54v-81l2-42 2-1 24-1 72-1z" fill="#0D4483"/>
<path transform="translate(400,1751)" d="m0 0 6 2 14 7 35 14 37 12 26 7 6 1v73h-63l-53-3-8-1z" fill="#0D4483"/>
<path transform="translate(1281,368)" d="m0 0h18l60 1 43 2 1 30 1 48v22l-1 1-9-1-19-5-38-6-46-5-10-2-1-4z" fill="#0D4483"/>
<path transform="translate(1751,1753)" d="m0 0h21v67l-20 14-17 12-22 14-22 12-26 13h-3l-1-14h6l2 2v4l10-2v-2l7-3 1-2h3l-1-3-28 1v-111l30-1z" fill="#0D4483"/>
<path transform="translate(730,367)" d="m0 0h41l6 1 1 86-26 1-34 3-41 6-19 4h-4l1-9 1-90 14-1z" fill="#0D4483"/>
<path transform="translate(1600,1178)" d="m0 0h13l21 3 15 6 8 6 12 12 7 11 4 11 2 16 1 3-3 31-7 67-3 25-2 1-4 19-7 27-9 21-9 18h-3l-4 2-2 3-1-3 2-9 8-16 1-6 2-2 2-10 2-14 2-11 4-10h2l2-7h-122l4-4h94l31-1v-13l-3 10h-2v2l-6-1-1-2 3-31 2-35 1-41 1-10-103-1-1-5-1-1v-14l4-10 8-14 11-12 13-8 5-2z" fill="#0D4584"/>
<path transform="translate(671,329)" d="m0 0h78l31 1 5 2 10 3 12 9 10 10 9 14 4 10 1 8-1 21-6 15-7 10-6 7-8 7-8 4-9 3h-6v4h-2l-1-6v-83h-47l-74 1v90l-1 7-3 1v-105h-2v-2h2v-25l-1-2 6-2z" fill="#165293"/>
<path transform="translate(369,614)" d="m0 0h1v5l3-1 117-2 10-2h4l-2 4-2 2-72 1-24 1-1 2-2 40-1 81 54-1 31-1 3 7-2 6-4 10-11 12-11 9-16 8-8 2-11 1-14-2-11-3v-2l-5-2-12-8-9-9-6-10-5-12v-2h-7v-1h7l-2-31v-33l3-37 3-24 1-1z" fill="#0D4584"/>
<path transform="translate(1563,124)" d="m0 0h67l26 1 1 25 1 57v26l-5-2-22-12-15-8-29-12-30-10-24-6v-4h2l-1-4v-50z" fill="#0D4483"/>
<path transform="translate(651,1506)" d="m0 0 6 3-2 3 1 37v68l11 2 18 2 29 1 19 2 13-1 6 1 8-1 18-1-1-87-1-15 4-3 6 2 13 7 11 9 8 9 8 15 4 12 1 5v13l-2 10-8 19-6 8-10 9-10 6-12 3-1 1-22 2h-48l-59-6-15-4-36-10-3-2-4-3-6-2v-2l-5-1-5-2 1-3 4-1 38 3 20 4 8 1z" fill="#1F64A5"/>
<path transform="translate(219,365)" d="m0 0 38 1-1 5-15 29-9 21-10 30-9 36-1 1-23 1h-33l1-49 1-73 6-1z" fill="#0D4483"/>
<path transform="translate(522,124)" d="m0 0h1v58l-25 5-20 5-30 10-23 10-22 10h-3v-96l30-1z" fill="#0D4483"/>
<path transform="translate(82,746)" d="m0 0h59l12 1-1 117-1 4h-46v5l3 3v2l4 2h7l5 1v2h3v-2l6 1 1-2 9 1 8 1v3l-1 3-6 1-2 2h-2v2l2 1h-13l-15-5-10-7-12-11-6-9-3-13-1-24z" fill="#0D4584"/>
<path transform="translate(527,1795)" d="m0 0 51 2 68 1 5 1 1 70h-56l-51-1-17-2z" fill="#0D4483"/>
<path transform="translate(1279,926)" d="m0 0h125v72l-55-1h-39l-28-1-1-17-1-44z" fill="#0D4483"/>
<path transform="translate(654,1797)" d="m0 0h2v2h73l49 1 1 1v68h-113l-10-1v2l-3-1 2-1-1-46z" fill="#0D4483"/>
<path transform="translate(130,1371)" d="m0 0 21 1 1 82 1 40-6 2-14 1h-48l-2-7-1-30v-84l1-4z" fill="#0D4483"/>
<path transform="translate(84,1114)" d="m0 0 4 2 63 2 1 1v103l-1 19-35 1h-34v-74l1-49z" fill="#0D4483"/>
<path transform="translate(139,1244)" d="m0 0h13v124l-32 1h-38v-120l1-4z" fill="#0D4483"/>
<path transform="translate(147,618)" d="m0 0 5 1-1 124h-69v-124z" fill="#0D4483"/>
<path transform="translate(909,1800)" d="m0 0 113 1v68h-111l-1-1-2-67z" fill="#0D4483"/>
<path transform="translate(1901,1373)" d="m0 0h4l-1 122h52v-21h1l1 24-2 5-6 31-10 36-15 45-5 14-7 15-10 22-5 5-2 1-3-10 2-11 2-23h-119v-4h119l1-64 3-60-76-1 2-3 71-1 2-121z" fill="#0D4584"/>
<path transform="translate(414,1176)" d="m0 0h21l13 4 11 6 10 8 9 10 7 14 2 11 1 15-5 1-81 1-1 46-1 12-4-3v-4-9l-1-3v-11l-1-23v-5h-11l-18-1v15h-1l-1-16 3-2 1-12 3-17 4-10 6-8 10-9 10-6 9-3z" fill="#165293"/>
<path transform="translate(1259,1521)" d="m0 0h15l1 9 1 57v33h-16l-24-1-2 4 5 7 12 5 18 2h10l1-1 17-3 33-2 12-1 5-1 36-1 19-1 1 9-35 6-23 2h-55l-23-2-16-3-10-4-11-7-9-11-6-14-3-14-1-14 3-17 6-12 9-10 12-9 9-4z" fill="#0D4483"/>
<path transform="translate(117,366)" d="m0 0 36 1v51l-1 70-1 2-18 1h-50l2-17 7-34 9-34 13-38z" fill="#0D4483"/>
<path transform="translate(1666,615)" d="m0 0 1 2 2 1-4 2-1 7 1 29 2 41v53l2 1h-2l2 9v6l-4 5v3l-6 8-14 9-17 6-5 1h-14l-16-5-15-8-13-12-9-14-2-5-1-6v-25l-4-36-4-26v-6l3 1 1 14 1 3 3 2-1 8 3 1v4l2 2-1 2v13l2 6 2 1-2 6v2l3-1 3 6 1 9 3 5 4 2 12 1v2l49-1 24-1v-74l-3-46-6-1h-108l-1 3-1-6 13-1 113-1z" fill="#0D4483"/>
<path transform="translate(1959,1116)" d="m0 0h2l-1 18-1 71-1 36h-56v-20l1-71 1-28 1-4 14-1z" fill="#0D4584"/>
<path transform="translate(1959,1243)" d="m0 0 4 1-2 1-1 16-1 107h-56l1-117 1-6 12-1z" fill="#0D4483"/>
<path transform="translate(1933,619)" d="m0 0h30l-3 4-1 104-1 17h-54l-1-2 2-122z" fill="#0D4483"/>
<path transform="translate(1170,1872)" d="m0 0h105l1 1 1 28v15l-1 9-4 1-83 1h-34l-5 1-1-3 2-1 1-10 1-41z" fill="#0D4584"/>
<path transform="translate(655,1872)" d="m0 0h123v53l-2 1-50 1h-59l-2-1-9-1-1-2z" fill="#0D4483"/>
<path transform="translate(528,1872)" d="m0 0h123v53l-7 2h-46l-43-2h-16l-12-1v-22z" fill="#0D4483"/>
<path transform="translate(1295,1872)" d="m0 0h108v53l-6 1h-115l-3 1 1-54z" fill="#0D4483"/>
<path transform="translate(1771,1630)" d="m0 0h2v2h3l-1 9-1 11v30l-1 23-1 45-56 1h-40l-15-2v6l-3-2v-10l3-5 6-2 9-6 14-11 14-12 16-15 7-7 7-8 13-15 11-14 10-14z" fill="#0D4483"/>
<path transform="translate(398,1349)" d="m0 0 3 4 1 14 6 1h97l2-1 10 23 10 19 11 16 11 13 18 18 11 9 13 10 18 11 28 12 12 6-8 2h-9v-2h-17l-17-1-70-2 1 12v66h-2v5l-3-3-1-19-1-59-68-2-14-1-3-3 1-4 30 2 55 1-1-32-3-40-2-11-5-17-9-21-1-2-7-1h-95l-18-2h-8l-2 2-1-5 4-1 21 1 1-9z" fill="#3E85BF"/>
<path transform="translate(1407,952)" d="m0 0h1v46h73l50 1v50l-8 1h-116l-1-51z" fill="#0D4584"/>
<path transform="translate(1424,1872)" d="m0 0h105v51l-4 1-84 2h-24l-10-1v-52z" fill="#0D4483"/>
<path transform="translate(561,124)" d="m0 0h90v50l-1 1-48 1-45 2-23 2h-6v-55z" fill="#0D4483"/>
<path transform="translate(1434,125)" d="m0 0h96v56h-10l-20-2-51-3-40-1-3 1 1-50z" fill="#0D4584"/>
<path transform="translate(156,1244)" d="m0 0h51v124h-51z" fill="#0D4584"/>
<path transform="translate(1960 1e3)" d="m0 0h2v2h-2v27l-1 63-1 22h-55l1-90 1-22 13-1z" fill="#0D4483"/>
<path transform="translate(271,1632)" d="m0 0 3 1 10 16 13 16 18 20 16 16 11 9 13 10 18 13 12 8 1 5 3 2v2l-2 1h-42l-70-1-1-1-1-31-1-66z" fill="#0D4584"/>
<path transform="translate(1280,125)" d="m0 0h124l-1 49h-123z" fill="#0D4483"/>
<path transform="translate(782,125)" d="m0 0h124v47l-26 1h-98z" fill="#0D4483"/>
<path transform="translate(752 1e3)" d="m0 0h27l1 3 1 46-6 1h-120l1-46 60-1 28-1h3z" fill="#0E4584"/>
<path transform="translate(522,390)" d="m0 0h3l-1 71-1 26-1 2-10 1h-84l-1-4h-2v8h-3l-2-5 11-13 11-14 12-14 27-27 14-11 13-10z" fill="#0D4584"/>
<path transform="translate(1267,326)" d="m0 0h5l2 1 1 9v27l-7-6-2-1h-9l-3 1-7-2h-11v-2h-2v2l-8 3-2 2-1 8v9h5l2 3 5-2 3-4h7v-2l4-4h26l1 6 1 18 1 59h-3l-1 3-8 1-2-1h-11l-13-8-13-11-9-12-5-13-2-10v-15l3-16 6-10 9-11 11-10 14-8 7-3z" fill="#0D4584"/>
<path transform="translate(158,1118)" d="m0 0 12 1 29 1 6 5v115h-49l1-77z" fill="#0D4483"/>
<path transform="translate(528 1e3)" d="m0 0h124v45l-9 1h-115z" fill="#0D4483"/>
<path transform="translate(146,1078)" d="m0 0h9l15 6 14 9 10 9 7 10 5 5 1 2-1 75h-1v-69l-3-1v-2l-3-1-29-1-12-2v45l-1 70-1 7h49l-1 2h-7l8 1v1h-49l1 3v28l-1 93h51v-13h1v16l-78 1h-47l-1 4v-5l4-2 34-1h32l-1-25v-97l1-2-13 1h-56l-1 4v-5l3-2 31-1h35v-122l-43-1-20-1-3-2v-3l13-13 15-11 16-7 8-2z" fill="#2B6DAA"/>
<path transform="translate(1403 1e3)" d="m0 0h1v47l-1 1h-114l-8-1v-44l2-1h120z" fill="#0D4483"/>
<path transform="translate(998,124)" d="m0 0h15l9 1v47h-111l-1 4-2-3v-3h2v-45z" fill="#0E4584"/>
<path transform="translate(400,1870)" d="m0 0h38l85 2v48l-1 3h-2v2l-7-1-28-5-26-6-35-10-24-8z" fill="#0D4584"/>
<path transform="translate(408 1e3)" d="m0 0h116v37l-1 5h-33l-21-1h-36l-21 1-5-2-2 1v-2l-4-1v-37z" fill="#0D4483"/>
<path transform="translate(1534 1e3)" d="m0 0 2 2h111l7-1 1 1 1 24h7l1-2h2l-2 5-6 7-15 9-3 1h-22v-6l-3 1v-2l-10 1h-26l-45-1z" fill="#0D4483"/>
<path transform="translate(1022,48)" d="m0 0 3 1 1 36v34h124l-1-19v-48l3-1 1 7v61h122l2 1v-16h1v21l-101 1h-24v42l-3 1v-44l-104 1-20 1v27l-1 18 2 1-3 2v-44l-1 40h-1v-46h-112v45h-1l-1-38-1 39h-1v-46h-124v48h-1l-1-47-2-1-123-1v51h-1v-54l1-1 122 1 3 1-1-2-1-53v-18h4l1 70 1 1 123 1-1-12v-59l4-1v71h112z" fill="#397FBA"/>
<path transform="translate(365,1245)" d="m0 0h29l1 1v14l1 16v11l1 3v7l1 2h-2l3 4 1-14 1-43h1l1 14 1 54v49l-1 5-2-1-1-14-1-2-1 7-1 9-1 1-25-1-3-13-4-26-1-10v-51z" fill="#0D4483"/>
<path transform="translate(1654,1207)" d="m0 0h4l6 1 4 4 3 4 1 13 4 10 1 3h2l1 7-3 5-3 17-2 5-1 16-3 7-1 29h2l1 9v33h-2l-4 19-7 27-9 21-9 18h-3l-4 2-2 3-1-3 2-9 8-16 1-6 2-2 2-10 2-14 2-11 4-10h2l2-7h-122l4-4h94l31-1v-13l-3 10h-2v2l-6-1-1-2 3-31 2-35 1-41 1-10-103-1 1-4 100 1-3-21v-12z" fill="#155192"/>
<path transform="translate(781,1518)" d="m0 0 5 1 13 7 11 9 8 9 8 15 4 12 1 5v13l-2 10-8 19-6 8-10 9-10 6-4 1h-8l-1-10 3-3 4 2 1 4h6l6-4h3l2-4 1-3-9 1-5 1-8-1-3-1-1-103h-2z" fill="#165293"/>
<path transform="translate(527,386)" d="m0 0 2 2 1 2-1 97 75-1 1 4-13 8-14 11-13 12-7 6-7 8-10 11-11 16-8 14-3-1-1-5 2-7 1-26 1-44-55 1h-42l-1-4 1-4 3-1v5l94-1 1-28 1-72z" fill="#0E4584"/>
<path transform="translate(368,621)" d="m0 0h28l3 2h-2l-2 34-1 81-1 7-6 1-8-5h-5v-2l-4-2-1-4-1 8 1 2-2 2-3 2-2-16-1-15v-33l3-37 3-24z" fill="#0E4684"/>
<path transform="translate(1777,1636)" d="m0 0h2v34l-2 79h54l11-2 4 1-6 8-15 16-16 16-11 9-14 12-8 7-4 3-1-3 1-63-21 1-60 1h-30v-6l15 1h96v-45l1-23 3-43z" fill="#0E4585"/>
<path transform="translate(414,1176)" d="m0 0h21l13 4 11 6 10 8 9 10 7 14 1 4v19l-16 1-56-1-4-1-1-2-1-10-1-5 5-5 1 3h3v-2l5-3 3-7h6l3 3h2l1-4h-2v-2h-3l-1-6h2l1-4-2-5 4-1-3-3-7-4-2-3-5 2-7-1-3 3-4 1-5-2 1-3 9-3z" fill="#0D4584"/>
<path transform="translate(1660,1739)" d="m0 0v3l-1 1v10l2 2v110l-1 8h-4v-2l-97 2h-25l1 50-2 14-1 18h-1v-84l-1 51h-1v-50l-122 1v52l2 1-3 6h-1v-47l-1 31h-1v-44l-123 1v49l-1 5 2 1h-4l1-59 1-3-1-29-1 25h-1v-61l3-1 2 68 122 1 1-65h1l2 35v29h123l-1-75 4-3 1 7 1 49v20l122-2-1-107-1-11-2-1 4-1 2-4z" fill="#3B81BB"/>
<path transform="translate(1611,1489)" d="m0 0h5v4l-6 9-7 8-8 10-11 13-14 14-11 9-18 14-5 4h-2v-75l1 2 58-2 16-1 2-1 1-3-6 1 1-3z" fill="#0E4685"/>
<path transform="translate(1666,615)" d="m0 0 1 2 2 1-4 2-1 7 1 29 2 41v53l2 1h-2l2 9v6l-4 5v3l-4 1-3-1v-3l-2-1 1-19-87 2-13 1h-3l-1-6v-25l-4-36-4-26v-6l3 1 1 14 1 3 3 2-1 8 3 1v4l2 2-1 2v13l2 6 2 1-2 6v2l3-1 3 6 1 9 3 5 4 2 12 1v2l49-1 24-1v-74l-3-46-6-1h-108l-1 3-1-6 13-1 113-1z" fill="#1F64A5"/>
<path transform="translate(1525,52)" d="m0 0h8l1 2v65h76l47 2 1-22 2 4 2 71v40l-1 19h-2l-1-5-1-21-1-57v-25h-122l1 54h-2l-1 3-2-1v-56l-96 1h-28l-1 6-1 41h-1v-46l1-2h-124v50l-1 7h-1l1-63 41 1 84 1v-67h4v66l122 1v-68h-5z" fill="#4C8CC2"/>
<path transform="translate(776,331)" d="m0 0 4 1v14h-2v15l-1 1h-39l-27 1-7-3h-42l-6-1v-20l16-2h43l12-1h9l3-1h20l4 1 5-2h8z" fill="#0D4483"/>
<path transform="translate(395,928)" d="m0 0h4l-1 11-1 2v57l-3 1v5l4 3-1 22 2 15v2l-4-1-11-8-10-10-7-11-4-12-1-5v-17l3-17 6-14 8-11 9-8z" fill="#0E4584"/>
<path transform="translate(531,1436)" d="m0 0h5l1 3 3 1 6 9 9 7 6 3v2l12 6-6-7 4-1 13 11 18 12 14 7-1 3h-5l-1 4-10 1-7-1-63-1v-38l2-4h3l-1-8-2-4z" fill="#0D4483"/>
<path transform="translate(1405,1501)" d="m0 0h3l-1 5v127l2 1h-3l-1 2v-94l-1 93-2-1v-7l-19 2h-11l-28 1-4 1-28 2-15 1-17 3-1 1h-10l-18-2-12-5-6-8v-3l3-2 40 2-1-33-1-66h-9v-1l13-1 1 11 1 38v53h91l19-1h13v-101l1-16-4-1z" fill="#1F64A5"/>
<path transform="translate(1901,494)" d="m0 0 4 1v111l-1 10h54v-79h1v80l-18 2-4 1h-32v55l-1 68 54 1v-17h1l1 19-1 1-53 1-1 4-2 76-1 43h56v-47h1v48l3 1-3 1h-119l-4-2 35-1h29v-81l1-41-64-1-1-3 47-1h17v-38l1-86h-64l-4-1-2-90h1l1 8 1 30v50h67z" fill="#4487BF"/>
<path transform="translate(784,333)" d="m0 0 9 1 13 9 11 11 9 14 4 10 1 8-1 21-6 15-7 10-6 7-8 7-8 4-9 3h-4v-85l19 1 3 1-1 3h-7l-1 2h-2l1 7 1 19 3 9 5 1v2h2v3h3l1 5 4-2 4-4 4-2 3-5 3-14v-11l-4-12-7-6-7-4v-2l-10-3-4-2-3-6-2-1v-2l-5-2-2-1v-5l4-2z" fill="#0E4584"/>
<path transform="translate(1530,926)" d="m0 0h4l1 53 1 19 119 1-1-2-2-47 6 1 3 4 5 36 2 16v13l-1 4v3l-3-1-1 3-7-1-1-3-1-21-7 1h-111l-1-1-1 37h81l3 1 1 5 11 1v1l-27 1h-67l-3 3-1-5 1-63-1-23h-1z" fill="#1F64A5"/>
<path transform="translate(1337,328)" d="m0 0h13l35 5 19 4v10l-1 10-6 1-13-1h-28l-14 1-29-1-6-1h-14l-12-1-1-3v-9l9-2h8v-2h18l12 1h9l6-2h7l8-2-1-3-17-1z" fill="#0D4483"/>
<path transform="translate(651,1799)" d="m0 0h3l1 23v46l-1 1 2 1v-2l123 1-1-69 5-1v69l125 1 1 2v47l-1 5h-2v-51h-124v52l-3 4v-2l-2-1 1-53h-123l1 53h9v1h-9l-2 5-2-2v-3l-4-1 2-2 1-51h-123v30h-1v-32h-2v-2h2l1-3 17 2 107 2-1-2z" fill="#639AC8"/>
<path transform="translate(1657,577)" d="m0 0h2l3 9 2 5 1 6 2-3 5 21 2 3 2 27 3 35 1 19v18l-2 33-3 11-4 6-4 5-3-1 4-5v-6l-1-7-1-56-3-65v-9l5-5-2-2-2 1h-30v-1l21-1-1-1-3-19 4-17z" fill="#104887"/>
<path transform="translate(369,614)" d="m0 0h1v5l3-1 117-2 10-2h4l-2 4-2 2-72 1-24 1-1 2-2 40-1 81 54-1 31-1 1 5-4 2-81 2 1 16-1 21h-2v-18h-2v4h-2v-9l2-10-1-4h-32l-1-4h-7v-1h7v-5l2 4 3-4-1-1 1-9 3 2 1 4 2 1v2l5-1 8 5h6l1-88 2-31v-4l-27-1z" fill="#2E70AB"/>
<path transform="translate(1901,1373)" d="m0 0h4l-1 122h52v-21h1l1 24-1 1-40 1-10 1-2 84-1 1-1 36-1 4-5 1-53 1h-66v-4h119l1-64 3-60-76-1 2-3 71-1 2-121z" fill="#3072AC"/>
<path transform="translate(1655,1226)" d="m0 0h3v2h3v2h2l1 3 2 1 2 13-1 32-3 40-1 19-1 6 1 4-1 2 5-2v17l-1 5-28 2h-104l4-4h94l31-1v-13l-3 10h-2v2l-6-1-1-2 3-31 2-35 1-41 1-10-103-1 1-4 100 1z" fill="#1F64A5"/>
<path transform="translate(152,748)" d="m0 0 6 1v97l-1 24h10l10-1 13 1h3l-6 6-3 5-9 7-18 8-3 1-20-2v-1l6-1v-2l-4-1 2-1 4 1 2-2 5-1 2-4-10-1-7-1-5 1-2-1v2h-3v-2h-12l-8-8v-5l1-1 46 1z" fill="#1F64A5"/>
<path transform="translate(1024,1798)" d="m0 0 1 4 1 32v34l-2 1v2h2l1-3 122 1v-67h3l1 8 1 58 110 1-1 3-110 1v41l-1 10-3 1v2h-5l4-1v-53l-123-1v52h-3v-52h-112l1-4 111 1v-68h-100v-1h102z" fill="#4E8FC5"/>
<path transform="translate(1150,51)" d="m0 0h2l1 7v61h122l2 1v-16h1v21l-101 1h-24v42l-3 1v-44l-104 1-21 1v-6l1-2h124l-1-19v-48z" fill="#2A6DAA"/>
<path transform="translate(400,925)" d="m0 0h66v1l-65 1 1 4v67h121l2 1-1 6-123 1 1 37 4 2 2-1v2h13l19-1h31l52 2v-5h1v6l-1 1-16 1h-106-3l-1-4h2l-1-2-2-17 1-20-4-3v-5l4-1-1-43v-17h1l2-10-2-1z" fill="#3376B1"/>
<path transform="translate(1903,875)" d="m0 0 2 1v28l-1 72-1 22h55v-42h1v43l2 1-1 1-55 1v22l-1 80-1 10h55v-22h1v23h3l-1 2h-123l-1-2 43-1h19v-109l1-4-8 1h-54l-1-3 62-1v-82l1-40z" fill="#3E81BB"/>
<path transform="translate(398,1349)" d="m0 0 3 4 1 14 6 1h97l2-1 10 23 10 19 11 16 11 13 21 21-2 1 5 5v2l-5-2-7-4v-2l-6-2-7-5v-2l-3-1-6-9-3-3-5-1 4 13-1 4h-3l-1 4-1 38h-1l-2-38-1-6h-1v12l1 15v16l-2 2-1-32-3-40-2-11-5-17-9-21-1-2-7-1h-95l-18-2h-8l-2 2-1-5 4-1 21 1 1-9z" fill="#175495"/>
<path transform="translate(1533,400)" d="m0 0 3 2h-2v3l4 2 6 5v2l-5-2-5-4 1 44v37h70l4 2v2l-25 1-50 1 1 6 2 61v32l-2-1-1-5-1-19-1-4-1-15-1-37v-18h-23l-57-2-10-5 1-5 19 3 24 2h44v-87z" fill="#3C82BD"/>
<path transform="translate(365,751)" d="m0 0h31l2 5-2 10-1 9h2v-4h2v18h2v-29l1 2 4 1 2 6 1 4 6 2 2-1v2l5 1 10-2h3l7 1 6 5 4 2-3 7-2 4-11 3-11 1-14-2-11-3v-2l-5-2-12-8-9-9-6-10-3-7z" fill="#165292"/>
<path transform="translate(153,1117)" d="m0 0h3v28l-1 4v92l22-1h28l-1 2h-7l8 1v1h-49l1 3v28l-1 93h51v-13h1v16l-78 1h-47l-1 4v-5l4-2 34-1h32l-1-25v-97l1-2-13 1h-56l-1 4v-5l3-2 31-1h35v-19l1-80v-14z" fill="#3B81BC"/>
<path transform="translate(646,334)" d="m0 0h7v27l-3-1v2h2v104h-1v-103l-28 2-20 3-17 4-8 2-1-6h2v-2l3-2 1-4-1-4 16-7 26-9 18-5z" fill="#0E4685"/>
<path transform="translate(527,386)" d="m0 0 2 2 1 2-1 97 75-1 1 4-10 5-2-1h-25l-39 1-1 28-1 4-1 23-1 8-3 1v-66l-55 1h-42l-1-4 1-4 3-1v5l94-1 1-28 1-72z" fill="#3E84BF"/>
<path transform="translate(1771,167)" d="m0 0 4 1 1 2 1 22v54h72l3 3v1l-54 2h-21l1 8 2 56 1 37-2-2-2-8-2-20-3-67v-4h-34l-19-1h-29l-7-4v-2h-2v-2l6-1 4 1 24 2 21 1h35l1-1-1-45z" fill="#3A80BB"/>
<path transform="translate(274,155)" d="m0 0h1v44l-1 47 10-1h66v3h-5v2l-26 1-5 1-27 1h-13l-1 54-1 19-2 7h-3v-82h-74v-3l6-1 47-1 21-1 1-7 1-28 1-47 3-7z" fill="#3D84BE"/>
<path transform="translate(1404,338)" d="m0 0 12 3-1 3 4 1 20 7 13 5 6 1 10 6 5 5v2l2 1h-2l1 6-9-1-23-8-7-2-10-1h-15l-1-2v94l-1 11-2 3h-2l-1-23v-89z" fill="#165293"/>
<path transform="translate(396,1751)" d="m0 0h2l2 5v107l25 1 36 2 63 1v-72h3l1 3v67l-1 3h-2v2h2v54l2 1-2 6-2 4v-18l-2 7-3-1h2l1-51h-41l-82-2v24l-6-2 2-1z" fill="#3C82BD"/>
<path transform="translate(1228,1616)" d="m0 0 29 2v1h-21l-2 4 5 7 12 5 18 2h10l1-1 17-3 33-2 12-1 5-1 36-1 19-1 1 9-35 6-23 2h-55l-23-2-16-3-10-4-11-7-3-3-1-6z" fill="#165293"/>
<path transform="translate(1280,925)" d="m0 0h128l-1 2v24h-1l-1 99-2-1v-45l-8 1h-113v45h-4v-91l1-14h1l2 34v17h74l45 1 3 1v-72h-124z" fill="#165293"/>
<path transform="translate(157,316)" d="m0 0h1l1 47 34-1h63l1 3-93 2h-6v73l-1 41-1 8 33-1h19v3l-13 1-37 1-3-1-4 1-14 1h-51l-1-3 48-1h18l2-123h-38l2-7 1 3 3-1h15l18 2v-16l1-20z" fill="#4789C1"/>
<path transform="translate(1777,1636)" d="m0 0h2v34l-2 79h63v3l-9 2-19 1-34 1v58l-6 5-1-3 1-63-21 1-60 1h-30v-6l15 1h96v-45l1-23 3-43z" fill="#3B81BC"/>
<path transform="translate(204,746)" d="m0 0h3l-1 102-2 10-7 11-8 8-3 1 2-4 3-4-4 1-11-1-17 1-2-1v-24h1l1 18 1 1h16l12-2v-2h2l2-12 3-44v-52l1-3h2v-2z" fill="#185596"/>
<path transform="translate(374,1369)" d="m0 0 19 1 7 1v18l3 20 2 5 4 21 1 2v10h-2l-1 2-5-1-2-3h-3l-12-28-9-29-3-12v-6z" fill="#165293"/>
<path transform="translate(1897,346)" d="m0 0 1 2 3 1 2 13h8v2h12l3 2v2h-18l-5-1 1 23 1 52v47h49l6 3v1h-130v-3l47-1h24l-2-94-1-18-2-10h-51l-41-1-14-1 1-3h22l44 1 41-1-1-7z" fill="#3A80BB"/>
<path transform="translate(146,1078)" d="m0 0h9v4h-2l-1 2-1 30-2 1-4-2v-2h-8l-3 2-13 1h-14l-9-1 1-3-4-3-4 3h-2v2l-4 1 6-7 7-7 15-11 16-7 8-2z" fill="#0E4584"/>
<path transform="translate(674,1629)" d="m0 0h25l30 1 36 1 10 1 1 5-3 3h-2l-1 5h-11l-2-4-7-1h-16l-5 1 1 2 8 2v1h-38l-43-5-2-4 1-1 7-1 2-2 7-1z" fill="#165293"/>
<path transform="translate(1605,751)" d="m0 0h52v19l2 4h4l-2 5-5 5-11 7-17 6-5 1h-14l-13-4-5-5-6-4 2-4 9-3 9 1 2 1 4-1 10 1 8-6 6-3 7-1 6-5 5-8 3-5h-51z" fill="#165293"/>
<path transform="translate(653,924)" d="m0 0 2 1 1 13v113h-2v-46l-1 45h-10v-1h9v-45l-123 1-1 45 2 1h-4v-47l-1 45-2-1 1-47 1-74 2 1 1 10 1 44v16l122 1 1-74z" fill="#2D6FAB"/>
<path transform="translate(1534,1388)" d="m0 0h1l1 8-1 100 66-1 11-1-1 4-2 1-38 2h-36v74l-4 2-2-1v-75l1-2-42 1-31 2h-25v-1l15-2 27-2 33-1h23v-37l2-49z" fill="#3C82BD"/>
<path transform="translate(1661,90)" d="m0 0 9 3 17 8 1 4 11 7 9 3 12 8 1 2-7 1-8-1-6 1-38-2 1 49v55l-1 7h-3l-2-2 1-5h1v5h2v-59l-2-71-1 16-1 2h-18v-1h17l1-27 1-2z" fill="#155192"/>
<path transform="translate(1660,1739)" d="m0 0v3l-1 1v10l2 2v110l-1 8h-4v-2l-97 2h-25l1 50h-2v-57l1-20h1v20l122-2-1-107-1-11-2-1 4-1 2-4z" fill="#639BCA"/>
<path transform="translate(671,329)" d="m0 0h78l24 1 3 1v3l-10 2-6 1-4-1h-17l-2-1-1 2h-15l-7 1h-44l-9 1h-5v20h48l5 2 5 1 25-1 38 1-4 2-27 1h-32l-58 1-1-1v-32l2-2z" fill="#165393"/>
<path transform="translate(402,531)" d="m0 0 7 4 1 9-3 14-3 21-3 39-31 1v-2l2-2 2-5 3-4 2-5 6 2 3-6 3-11 1-1v-7l-1-5 2-5 2-10 1-18 3-4v-3z" fill="#165293"/>
<path transform="translate(1666,615)" d="m0 0 1 2 2 1-4 2-1 7 1 29 1 17v77h-2l-2-5v-23l-2-9-1-1-1-43-1-1-3-46-6-1h-108l-1 3-1-6 13-1 113-1z" fill="#1E63A4"/>
<path transform="translate(1275,329)" d="m0 0 3 1 2 24 1 4 23 2h12l12 1h10v2l13-1 13 3h6l5 2 11 1 2 2h-29l-60-1-18-1v84l6 1v1h-7l-5-1v-2h3l-1-7z" fill="#2065A5"/>
<path transform="translate(655,331)" d="m0 0 1 2v32l65-1h26l30-1 2-11h1l1 9v84l-3 1-1-39v-39h-47l-74 1v90l-1 7-3 1v-105h-2v-2h2v-25l-1-2z" fill="#3072AD"/>
<path transform="translate(778,49)" d="m0 0h4l1 70 1 1 122 1v3l-70 1h-54v48h-1l-1-47-2-1-123-1v51h-1v-54l1-1 122 1 3 1-1-2-1-53z" fill="#488CC4"/>
<path transform="translate(1667,1357)" d="m0 0h3v13h-2l-4 19-7 27-9 21-9 18h-3l-4 2-2 3-1-3 2-9 8-16 1-6 2-2 2-10 2-14 2-11 4-10h2l2-7-8-1v-1h18z" fill="#175394"/>
<path transform="translate(583,1611)" d="m0 0 39 3 20 4 8 1 1-8h1v28l-10-1-40-11-3-2-4-3-6-2v-2l-5-1-5-2 1-3z" fill="#165293"/>
<path transform="translate(781,1799)" d="m0 0 2 1v68l125 1 1 2v47l-1 5h-2v-51h-124v52l-3 4v-2l-2-1 1-53h-19l1-3h19l-1-69z" fill="#5795C8"/>
<path transform="translate(1901,494)" d="m0 0 4 1v111l-1 10h54v-79h1v80l-18 2-4 1h-100l-4-1-2-90h1l1 8 1 30v50h67z" fill="#3A80BB"/>
<path transform="translate(152,621)" d="m0 0 5 1v32l-1 89 23-1h26v1l-9 1 8 1v1h-118l-4-3h69v-121z" fill="#387EB9"/>
<path transform="translate(153,1372)" d="m0 0 3 1 1 43v79h47l8 1-2 2-57 1h-69l1-3h48l14-1 5-1-1-40v-80z" fill="#286AA7"/>
<path transform="translate(398,1193)" d="m0 0 3 1 1 7-1 39 85 1v-12h1l1 15-5 1-81 1-1 46-1 12-4-3v-4-9l-1-3v-11l-1-23v-5h-11l-18-1v15h-1l-1-16 4-2 27-1 2-4 1-22v-21z" fill="#1E63A4"/>
<path transform="translate(385,1742)" d="m0 0 6 2 8 4 2 3-1 5-2-3v-2h-2l1 7-1 62h-1l-1-63h-30l-12-1h-79l1 2v60l-2 1-3-8-1-55-58-2-4-2 1-4 27 1 35 1v1l-28 1-6-1v2l43 1h97v-2h-25v-1l39-1v-2l-5-2z" fill="#2D6FAB"/>
<path transform="translate(526,47)" d="m0 0 2 1v72h19l61 1-1 3-46 1h-33l1 56-1 6h-1l-1-61-1 1v39l-1 15h-1v-58l-2 1h-73v-3l58-1h18l-1-67-1-4h-5v-1h7z" fill="#3B81BC"/>
<path transform="translate(1901,1373)" d="m0 0h4l-1 122h52v-21h1l1 24-1 1h-132l2-3 71-1 2-121z" fill="#3E83BD"/>
<path transform="translate(1403,347)" d="m0 0h1l-1 54h-1v-30h-24v-1l8-1-11-1-7-2-8-1-10-2h-12l-3-1h-13l-11-1-23-1-7-2-1-6 1 3h26l12 1 25 1 18-1h26l15 1z" fill="#165293"/>
<path transform="translate(1904,1585)" d="m0 0h1l1 33 12-1 5 1-3 11-7 15-10 22-5 5-2 1-3-10 2-11 2-23h-53v-1l58-1v-14l1-26z" fill="#1E63A3"/>
<path transform="translate(388,1245)" d="m0 0h6l1 1v14l1 16v11l1 3v7l1 2h-2l3 4 1-14 1-43h1l1 14 1 54v49l-1 5-2-1-1-14-1-2-1 7-1 9-2-1-2-7-1-28-1-8v-43l1-2-1-10 1-7 1-15h-5z" fill="#165293"/>
<path transform="translate(1900 1e3)" d="m0 0 5 1v22l-1 80-1 10h55v-22h1v23h3l-1 2h-123l-1-2 43-1h19v-109z" fill="#3D83BD"/>
<path transform="translate(1290,325)" d="m0 0 37 1 14 1-4 1v2l3 1 17 1 2 2h-2v2l-9 3-18 2h-9l-7-1h-14l-3-1v2l-12 2h-5v-6l3 1v-3h-3l1-3 6 1 6-2v-2l-3 1-1-4z" fill="#165293"/>
<path transform="translate(401,996)" d="m0 0 1 2h121l2 1-1 6-123 1z" fill="#1F64A5"/>
<path transform="translate(159,1081)" d="m0 0 6 1 12 6 13 10 8 9 1 5-4-1-2-1 2 4v4h-2l-1-4h-10l-21-3-3-1v-25z" fill="#0E4684"/>
<path transform="translate(1278,1800)" d="m0 0h1l2 68 122 1 1-65h1l2 35v30l2 1-2 2-1 5h-1l-1 39h-1v-44l-123 1v49l-1 5 2 1h-4l1-59 1-3-1-29-1 25h-1v-61z" fill="#458AC3"/>
<path transform="translate(783,1046)" d="m0 0 1 2 5-1 104-1 303 1 20 1v1h-433z" fill="#2F75B2"/>
<path transform="translate(1024,1798)" d="m0 0 1 4 1 32v34l-2 1 1 2v53h-3v-52h-112l1-4 111 1v-68h-100v-1h102z" fill="#488CC4"/>
<path transform="translate(365,751)" d="m0 0h31l2 5-2 10-1 9h2v-4h2l1 18 2 3-6-2-10-7-8-7-7-8-6-13z" fill="#0E4685"/>
<path transform="translate(1395,1627)" d="m0 0h7l1 9-35 6-23 2h-55l-13-1-3-3h6v-2l16-1h51l15-2 14-2 6-1 2-2z" fill="#104988"/>
<path transform="translate(1902,1245)" d="m0 0 3 1-1 120-1 2h55v1l6 1-2 2h-125l-2-2 4-1h32l29-1v-121z" fill="#3D83BD"/>
<path transform="translate(1407,952)" d="m0 0h1v46h73l50 1v50h-1v-44l-95-1-27-1v47h-1l-1-51z" fill="#256AAA"/>
<path transform="translate(616,1490)" d="m0 0 9 3 16 7 8 4-8 2h-9v-2h-17l-17-1-70-2 1 12v66h-2v-51l-1-29 47 1 14-1-11-1-47-2v-1h63l12 1h5l1-5h5z" fill="#2A6BA7"/>
<path transform="translate(612,351)" d="m0 0 4 1 1 5 8-1 3-1h12l2 2-1 2 9 1v2h2v104h-1v-103l-28 2-20 3-17 4-8 2-1-6h2v-2l3-2 2-5 5-1 6-1 10-4z" fill="#165293"/>
<path transform="translate(153,494)" d="m0 0 5 1v36l-1 22-1 51-1 12h44v1l9 1v1h-58v-1h-67v-1l43-1h25v-42l1-78z" fill="#397EBA"/>
<path transform="translate(153,1117)" d="m0 0h3v28l-1 4v92l22-1h28l-1 2h-7l8 1v1l-66 1h-56l-1 4v-5l3-2 31-1h35v-19l1-80v-14z" fill="#4B8DC3"/>
<path transform="translate(1026,119)" d="m0 0h124l1 2-1 4-104 1-21 1v-6z" fill="#3172AD"/>
<path transform="translate(270,1642)" d="m0 0h1l2 85 1 23 76 1 25 1v2l-6 1h-99l-25-1-10-1v-2h34l-1-31v-60l1-17z" fill="#3F86C0"/>
<path transform="translate(788,1522)" d="m0 0 6 1 10 7 10 9 7 10 6 13 3 9v12l-2-1-2-5-4-5-5-10v-3h-3l-1-4-9-9-5-1-5 3v3h-6v-9h2l-2-14 4-1-3-3z" fill="#0F4685"/>
<path transform="translate(546,1917)" d="m0 0 26 1 13-1 40 2 7 2 8 3h9l1-6h1v7l-7 2h-46l-43-2h-16v-1h6l-1-6z" fill="#1B5999"/>
<path transform="translate(1534,1041)" d="m0 0h81l3 1 1 5 11 1v1l-27 1h-67l-3 3-1-5h2z" fill="#175495"/>
<path transform="translate(1903,1118)" d="m0 0 2 1-1 31-1 71-1 20h56v-36h1v39l-61 1h-60l-1-2 59-1 4-1v-122z" fill="#5E9ACA"/>
<path transform="translate(1897,346)" d="m0 0 1 2 3 1 2 13h8v2h12l3 2v2h-18l-5-1 1 23 1 52v47h-1l-2-84-1-30-1-6h-2l-1 4-1-6h-51l-41-1-14-1 1-3h22l44 1 41-1-1-7z" fill="#276AA8"/>
<path transform="translate(1681,1247)" d="m0 0h1l-1 18-5 52-5 43-2-3v-29h-2l-1-10 1-19 3-7 1-17 3-8 2-13z" fill="#114988"/>
<path transform="translate(1902,748)" d="m0 0 3 1-2 79-1 43h56v-47h1v48l3 1-3 1h-119l-4-2 35-1h29v-81l1-41z" fill="#498DC4"/>
<path transform="translate(401,1012)" d="m0 0h1v22h6l10 4 11 1 6 2 55 1h33v5h-33l-21-1h-36l-21 1-5-2-2 1v-2l-4-1z" fill="#155192"/>
<path transform="translate(488,648)" d="m0 0 7 1-1 17-4 41-1-3-4 2-2 3v-2h-2l-3-10 2-18 2-20 3-9z" fill="#185595"/>
<path transform="translate(156,1079)" d="m0 0 5 1-2 1v12l-1 17 24 3 10 1 1 4h2l-2-8 6 2 1-2 3 5 4 4-1 75h-1v-69l-3-1v-2l-3-1-29-1-12-2-1-9-3-1-1-2-1 6h-1v-28l3-3z" fill="#2368A8"/>
<path transform="translate(1545,655)" d="m0 0 3 1 1 14 1 3 3 2-1 8 3 1v4l2 2-1 2v13l2 6 2 1-2 6v2l3-1 3 6 1 9 3 5 4 2 12 1v1l-11 1-3 2-6-2-5 5 1 4-3 1h-3l-1-6v-25l-4-36-4-26z" fill="#195697"/>
<path transform="translate(153,1501)" d="m0 0h4l2 39v83h-1l-1-26-1-48-1-15v14l2 60v15l-2 2 6 1v1h-23l-10-1-3-3 1-1h28l1-1-1-31-2-49v-39z" fill="#2769A7"/>
<path transform="translate(1404,338)" d="m0 0 4 2v33l1 85-1 11-2 3h-2l-1-23v-89z" fill="#3B81BC"/>
<path transform="translate(1655,1226)" d="m0 0h3v2h3v2h2l1 3 2 1 2 13v5l-2 1-2 7-2-4v-2h-3l-1-2v-6l-103-1 1-4 100 1z" fill="#1F64A5"/>
<path transform="translate(398,83)" d="m0 0 3 2v35h17v2h-18v2h22v1l-21 1v97l-4 2-1-2v-100l2-7z" fill="#3E84BE"/>
<path transform="translate(93,862)" d="m0 0 7 1 7 2 6 1-2 2h-6v5l3 3v2l4 2h7l5 1v2h3v-2l6 1 1-2 9 1 8 1v3l-1 3-6 1-2 2h-2v2l2 1h-13l-15-5-9-6-4-7-5-4v-2h-2l-1-2z" fill="#165293"/>
<path transform="translate(791,995)" d="m0 0h108l-1 2-7 1-24 1-7-1-9 1h-9l-9-1h-9l-1 2-6 2h-12l-5 2h-9l-5 1-1-2-1 42h-1v-47l1-2z" fill="#165293"/>
<path transform="translate(338,1859)" d="m0 0h9l27 2v2h16l6 1v17h-1v-13l-7 1v2h-2l-1 2h-10l-5 2-8-1-12-5-12-6-2-3z" fill="#165293"/>
<path transform="translate(1897,316)" d="m0 0 5 3 3 4 2 5 1 8-1 2 2 1 1 7-1 3 1 5h2l4 5 2 5h-7v-2h-8l-3-13-2-1-2 3-3-20 2-9z" fill="#165293"/>
<path transform="translate(396,1751)" d="m0 0h2l2 5v92l-1 45-5-1 2-1z" fill="#3E84BE"/>
<path transform="translate(398,1349)" d="m0 0 3 4 1 14 6 1h97l2-1 1 4-13 1h-95l-18-2h-8l-2 2-1-5 4-1 21 1 1-9z" fill="#3479B4"/>
<path transform="translate(1658,91)" d="m0 0h2l2 26v2l10-2 18-1 8 1h2l5 1-4 4-4 1v1h-35l1 49v55l-1 7h-3l-2-2 1-5h1v5h2v-59l-2-71-1 16-1 2h-18v-1h17l1-27z" fill="#1F64A5"/>
<path transform="translate(676,1918)" d="m0 0h53l1 4 3 1-6 2-39 1-21 1-10-3 4-2 3-1-4-1v-1z" fill="#165293"/>
<path transform="translate(651,1506)" d="m0 0 6 3-2 3v124l-2 4-2-1z" fill="#3F85C0"/>
<path transform="translate(780,1517)" d="m0 0 2 1-2 3h2l1 2v98h-4l-2-86-1-15z" fill="#2E70AC"/>
<path transform="translate(438,1493)" d="m0 0 30 2 55 1v7l-69-2-14-1-3-3z" fill="#2C6FAB"/>
<path transform="translate(651,1611)" d="m0 0h1v28h-6l4-2v-2h-8l-18-5-9-2-17-6-1-2 15 2 2 1v-2l9-1h4 14l10 2z" fill="#1F64A5"/>
<path transform="translate(779,330)" d="m0 0 6 2-2 1-1 26 9 1 13 3 8 3 1 4h-12l-15-1-4-1 1 20v46l-1 19h-2v4h-2l-1-6v-44h1v39l2-1v-84l-2-2v-13h2l-1-13z" fill="#3275B0"/>
<path transform="translate(1657,577)" d="m0 0h2l3 9 2 5 1 6 2-3 2 11h-2l2 12-3-1-2 1h-30v-1l21-1-1-1-3-19 4-17z" fill="#165393"/>
<path transform="translate(400,1030)" d="m0 0h1l1 13 4 2 2-1v2h13l19-1h31l52 2v-5h1v6l-1 1-16 1h-106l-2 1z" fill="#2B6FAD"/>
<path transform="translate(527,386)" d="m0 0 2 2 1 2-1 97 75-1 1 4-10 5-2-1h-56l-5-1 3-2h18l7 1v-2l15-1-47-1v-96h-2v5h-1l-1-8z" fill="#3173AD"/>
<path transform="translate(346,1867)" d="m0 0 9 3 7 3 8 1 5-2h10l3-1v-2l7-1 1 13v10l-6-1-19-8-16-8-11-5z" fill="#104886"/>
<path transform="translate(392,1185)" d="m0 0h2v2l-2 1-2 7-5 5-1-2-5 4 1 8h2l1 3 4 2-1 10-5 8-3 1-5-5-4-1v-11l3-10 6-10 8-8z" fill="#0E4685"/>
<path transform="translate(655,336)" d="m0 0h1v23h48l5 2 5 1 25-1 38 1-4 2-27 1h-32l-58 1-1-1z" fill="#1F64A5"/>
<path transform="translate(200,1122)" d="m0 0h2l3 3v115h-1l-1-61-2 2-2-1-2-17-1-19 2-13 2-3z" fill="#165293"/>
<path transform="translate(1533,400)" d="m0 0 3 2h-2v3l4 2 6 5v2l-5-2-3-3h-3v-2l-3 1v81l-7 2h-31l-34-2 1 2 12 1v1h-21l-10-5 1-5 19 3 24 2h44v-87z" fill="#2A6DAA"/>
<path transform="translate(273,256)" d="m0 0h1v53l-1 23-1 8-1 5-5 10-4 5h-2l-1 6-2 1-37-1v-1h37l-1-2-45-1v-1l35-1 5-3 5-2 7-9 2-5 1-35h1v27h3l1-7 1-19z" fill="#175394"/>
<path transform="translate(1276,1519)" d="m0 0 2 1 1 10 1 38v51l-1 3h-2l-1-2-1-33-1-66h-9v-1z" fill="#4388C1"/>
<path transform="translate(397,94)" d="m0 0h1l1 23-1 6h-2v2l-45 1h-19l-3-2 3-3 8-2 54-1 2-1z" fill="#1F64A5"/>
<path transform="translate(369,614)" d="m0 0h1v5l3-1 117-2 10-2h4l-2 4-2 2-72 1-26 1-33-1z" fill="#3D83BE"/>
<path transform="translate(653,924)" d="m0 0 2 1 1 13v113h-2v-46l-1 45h-10v-1h9v-124z" fill="#96BCDC"/>
<path transform="translate(1778,1624)" d="m0 0h120l-1 3-53 1h-66z" fill="#3D84BE"/>
<path transform="translate(1659,660)" d="m0 0 3 2 1 8 2 20 1 14v46h-2l-2-5v-23l-2-9-1-1z" fill="#3374AE"/>
<path transform="translate(376,1380)" d="m0 0 3 3v3h2l1-4h4v3h2l1 2 2 20 1 4 1 7v3 4l2 10-2 1-8-19-9-29z" fill="#104887"/>
<path transform="translate(1275,329)" d="m0 0 3 1 2 24 1 98 6 1v1h-7l-5-1v-2h3l-1-7z" fill="#5A98CA"/>
<path transform="translate(1538,1368)" d="m0 0h128v2l-28 2h-104z" fill="#3D83BD"/>
<path transform="translate(517,1407)" d="m0 0 4 1 3 6 3 12 1 7 1 36v26h-1l-2-38-1-6h-1v12l1 15v16l-2 2-1-32-3-40-2-11z" fill="#2C6EAA"/>
<path transform="translate(1281,392)" d="m0 0h1l1 20 1 3 6 5 1 6h-3v6 4l3 5v2l4 1 7 3-1 4-20 2-1-4z" fill="#165293"/>
<path transform="translate(1150,51)" d="m0 0h2l1 7v110l-3 1v-49l-1-20v-48z" fill="#3A7FBA"/>
<path transform="translate(484,748)" d="m0 0 4 1-4 13h-2l-5 6h-3l-1 3-5 3h-2v2l-4 1-2-2 2-5h-2l-2-9 2-3h11l3-3 3-1 1-4z" fill="#165293"/>
<path transform="translate(158,1085)" d="m0 0h2l1 2v7h2l1 3 4 2 2 6 9 1 5-1 1-2 12 7 1 2-5-2 2 4v4h-2l-1-4h-10l-21-3-3-1z" fill="#165293"/>
<path transform="translate(1405,1501)" d="m0 0h3l-1 5v127l2 1h-3l-1 2v-94l-1 93h-1l-1-11-8 1-4 1-2-2 6-3 9-1v-101l1-16-4-1z" fill="#4188C2"/>
<path transform="translate(1551,617)" d="m0 0h105v3l-8 1h-108l-1 3-1-6z" fill="#3D83BD"/>
<path transform="translate(616,1490)" d="m0 0 9 3 16 7 8 4-8 2h-9v-2h-17l-17-1v-1l15-2-3-1-10-1 1-2h8l1-5h5z" fill="#1F63A4"/>
<path transform="translate(653,48)" d="m0 0h1l1 41v32l-1 3h-2v36h-1v-36h-44l-8-1v-1l9-1h44v-69z" fill="#6DA3D0"/>
<path transform="translate(1901,1501)" d="m0 0h4l-1 45-1 15-1 32-1 11-2 3v-71z" fill="#4087C1"/>
<path transform="translate(401,119)" d="m0 0h37l33 1v1l-14 1h-8v1h74l-1 2-92 1h-29l-1-4h18v-2h-17z" fill="#2769A7"/>
<path transform="translate(1958,1092)" d="m0 0h1v23h3l-1 2h-123l-1-2 43-1h78z" fill="#5997C9"/>
<path transform="translate(527,523)" d="m0 0h1v24l5-3 4-2 3 3-1 4-9 13-8 14-3-1-1-5 2-7 1-26h1v22l2-1 1-8 1-23z" fill="#185595"/>
<path transform="translate(789,1576)" d="m0 0 4 4 2 25-2 7-5 2-1 2-3-2v-25l1-11z" fill="#0D4483"/>
<path transform="translate(656,1868)" d="m0 0 104 1-1 3h-104z" fill="#468BC3"/>
<path transform="translate(153,1117)" d="m0 0h3v28l-1 4v69l-1 1-1 11v10l-2 1v-19l1-80v-14z" fill="#387DB7"/>
<path transform="translate(525,927)" d="m0 0 2 1 1 10v112l2 1h-4v-47l-1 45-2-1 1-47z" fill="#9CC0DE"/>
<path transform="translate(1529,1468)" d="m0 0h1v28l-56 2-29 2-8 1 4 2-17 2-11 3h-5v90h-1v-91l5-3 13-3 5-2 19-2 5-1h19l32-1h24z" fill="#1E5F9F"/>
<path transform="translate(154,1532)" d="m0 0 2 2 1 15 1 51 1 23 5 1h76l-1 2-33 1h-45l-8-2 3-2v-15l-2-60z" fill="#4188C2"/>
<path transform="translate(193,362)" d="m0 0h63l1 3-93 2h-3l1-4z" fill="#3D83BE"/>
<path transform="translate(779,352)" d="m0 0h1l1 9v84l-3 1-1-39v-40h-5l2-2h4z" fill="#4188C2"/>
<path transform="translate(190,1495)" d="m0 0h14l8 1-2 2-57 1h-69l1-3h48z" fill="#4087C1"/>
<path transform="translate(1487,999)" d="m0 0h44v50h-1v-44l-37-1-19-1-4-2v-1z" fill="#2368A8"/>
<path transform="translate(1772,1755)" d="m0 0h4l1 2 1 57-6 5-1-3z" fill="#4188C2"/>
<path transform="translate(1689,1864)" d="m0 0 1 4-7 5h-4v2l-6 2h-4v-4l-3-1-5-1 2 15-6 2-1-8 1-4h2v-2l-2-1h3v-8z" fill="#1F64A5"/>
<path transform="translate(95,1106)" d="m0 0 2 1 3 4-1 1 14 1h11l9-1 4-2 8 1 1 2 5 1v2h-28l28 1v1h-43l-20-1-3-2-1-2 5-1v-2z" fill="#1F64A5"/>
<path transform="translate(1568 1e3)" d="m0 0h3 2v2l9-2h71v2l-10 2h-76z" fill="#3374AE"/>
<path transform="translate(368,992)" d="m0 0 13 2 4 3 9 1v6l2 2-8 1h-19l-2-1-1-4 1-3v-6z" fill="#165293"/>
<path transform="translate(1279,945)" d="m0 0h1l1 14 1 47v44h-4v-91z" fill="#387EBA"/>
<path transform="translate(400,925)" d="m0 0h66v1l-65 1 1 4v53h-1l-1-6v-40l-2 69-5-2v-6l4-1-1-43v-17h1l2-10-2-1z" fill="#2E74B2"/>
<path transform="translate(1153,1869)" d="m0 0h111l-1 3-109 1z" fill="#4188C2"/>
<path transform="translate(152,748)" d="m0 0h3v106l-1 12h-1l-1-26z" fill="#4087C1"/>
<path transform="translate(1556,1241)" d="m0 0 74 1 29 1-1 2h-103z" fill="#3D83BE"/>
<path transform="translate(1280,925)" d="m0 0h128l-1 2v24h-1l-1 99-2-1 1-123h-124z" fill="#4087C1"/>
<path transform="translate(760,1869)" d="m0 0h21l1 2v53l-3 4v-2l-2-1 1-53h-19z" fill="#9ABFDE"/>
<path transform="translate(1530,926)" d="m0 0h4l1 53 1 19 14 2 1 1 2-1 2 2 1 2-2 1h-18l-1-1-1 44h-1v-63l-1-23h-1z" fill="#367CB8"/>
<path transform="translate(1791,362)" d="m0 0h22l84 2-3 2h-90l-14-1z" fill="#3B81BC"/>
<path transform="translate(656,1610)" d="m0 0 2 4v2l17 2 27 2 76 1-2 2-19 1-6 1-9-1-10 1-18-2-29-1-18-2-11-3z" fill="#165293"/>
<path transform="translate(1149,1802)" d="m0 0h3l1 8 1 58h9v1h-10v3h-2v-3h-2z" fill="#9FBFDB"/>
<path transform="translate(1179,995)" d="m0 0h92l5 1-2 2-16 1h-28l-43-1-8-1z" fill="#165293"/>
<path transform="translate(403,559)" d="m0 0 2 1v10l-4 48h-5l2-1v-8h-2l1-16v-13l2-4v-9l2-6h2z" fill="#1F64A5"/>
<path transform="translate(1278,1800)" d="m0 0h1l2 68 2 1h-3v3h15v1h-15v49l-1 5 2 1h-4l1-59 1-3-1-29-1 25h-1v-61z" fill="#4086C0"/>
<path transform="translate(371,1862)" d="m0 0 19 1 6 1v17h-1v-13l-7 1v2h-2l-1 2h-11l-3-2-1-1h-4l-1 2-1-1-7-1-1-2-2-2 6-1 10 1z" fill="#1F64A5"/>
<path transform="translate(477,743)" d="m0 0h8l1 5-4 2h-32v-1l31-1-4-2-10 2h-50l-9-1-4 1-4-2v-1l54-1z" fill="#1F64A5"/>
<path transform="translate(1423,477)" d="m0 0 8 1 13 3 16 4v1h-8l-11-3-1 5 10 4 57 2v1h-44l-4 3-10-2v-2l-6-1-10-6-4-3v-2l-4-1z" fill="#175394"/>
<path transform="translate(523,493)" d="m0 0 3 2 1 4v28l-1 23-1 8-3 1v-51z" fill="#4188C2"/>
<path transform="translate(398,1193)" d="m0 0 3 1 1 7-1 39 69 1v1h-76l2-5 1-22v-21z" fill="#2065A5"/>
<path transform="translate(1404,1804)" d="m0 0h1l2 35v30l2 1-2 2-1 5h-1l-1 39h-1v-44h-17l1-3h16z" fill="#90B9DB"/>
<path transform="translate(1904,1585)" d="m0 0h1l1 33 12-1 5 1-3 11-7 15-3-1 1-10 2-9h-9z" fill="#185495"/>
<path transform="translate(781,927)" d="m0 0h2v69h-3l-1-8v-50l1-10z" fill="#1F64A5"/>
<path transform="translate(1544,1868)" d="m0 0h19l8 1v1h24l10-1 27-1 5 1h17l4 2-2 2v-2l-97 2h-22v-1l10-1h-8l-1-2z" fill="#3273AD"/>
<path transform="translate(155,749)" d="m0 0h3v21l-1 5-1 89-1 11-3-1v-34h1l1 14v-101z" fill="#3374AE"/>
<path transform="translate(368,732)" d="m0 0 3 2 1 4 2 1v2l5-1 8 5h6l4 3-2 1h-25v1l9 1v1h-15l-1-4h-7v-1h7v-5l2 4 3-4-1-1z" fill="#1F63A4"/>
<path transform="translate(1024,1798)" d="m0 0 1 4v45l-1 2h-2v-48h-100v-1h102z" fill="#4E8FC4"/>
<path transform="translate(1228,1616)" d="m0 0 29 2v1h-21l-2 4 5 7 12 5 18 2 6 4v1h-8l-16-3-10-4-11-7-3-3-1-6z" fill="#165190"/>
<path transform="translate(908,49)" d="m0 0h2v61l-3 1-1-2v-59z" fill="#4183BC"/>
<path transform="translate(1897,1628)" d="m0 0h1l1 5 2-2 2 1v5l-3 6-2 7 2 6 4-2 5-4-1 5-7 14-5 3-3-10 2-11z" fill="#175494"/>
<path transform="translate(780,1536)" d="m0 0h1l1 13v73l-3-1v-84z" fill="#4188C2"/>
<path transform="translate(781,1799)" d="m0 0 2 1v72l-2-1v-2h-2l-1-69z" fill="#7BABD3"/>
<path transform="translate(1525,52)" d="m0 0h8l1 2v58l-3 1-1-8v-52h-5z" fill="#79ABD3"/>
<path transform="translate(906,1802)" d="m0 0h3l1 25v41l-4-1z" fill="#8BB4D7"/>
<path transform="translate(734,1639)" d="m0 0h16l7 1 3 4 7 1v1l-7 1h-48v-1l21-1-4-2-3-3z" fill="#2368A8"/>
<path transform="translate(783,1046)" d="m0 0 1 2 5-1 104-1 6 1-1 2h-115z" fill="#1D5D9D"/>
<path transform="translate(395,1373)" d="m0 0 3 1 5 35v16l-3-3v-3h-2l-1-14-2-7-1-12v-10z" fill="#1F64A5"/>
<path transform="translate(161,295)" d="m0 0h1l-1 12-2 27h-1l-1-15-1 9-2 36h-12v-1h11l-1-31-2-5 2-9 1-3h2l1-8 3-10z" fill="#286BA9"/>
<path transform="translate(270,1757)" d="m0 0 4 1v60l-2 1-2-11z" fill="#4188C2"/>
<path transform="translate(1660,1739)" d="m0 0v3l-1 1v10l2 2v15h-1l-2 85h-1l-1-98-1-11-2-1 4-1 2-4z" fill="#3479B5"/>
<path transform="translate(649,360)" d="m0 0 1 2h2v104h-1v-103l-28 2-20 3h-7l2-2 13-2 1-1 14-2z" fill="#2468A7"/>
<path transform="translate(526,47)" d="m0 0 2 1-1 71h-3l-1-66-1-4h-5v-1h7z" fill="#94BBDB"/>
<path transform="translate(1900 1e3)" d="m0 0 5 1v22l-1 80-1 10h-4l1-3v2h2v-99l1-10h-3z" fill="#2B6DAA"/>
<path transform="translate(1668,618)" d="m0 0 2 1-1 24-1 11-1 1v42h-1l-3-65v-9z" fill="#165293"/>
<path transform="translate(671,329)" d="m0 0h78l2 3h-83z" fill="#114A89"/>
<path transform="translate(655,120)" d="m0 0 61 1-1 3h-60v51h-1v-54z" fill="#3F86C0"/>
<path transform="translate(1390,1620)" d="m0 0h11v1l-10 2-1 2 4-1h8l1 2v8h-1v-7h-26l-17-2-10 1-9-2v-1l22-1z" fill="#2F71AC"/>
<path transform="translate(782,359)" d="m0 0 9 1 13 3 8 3 1 4h-12l-15-1-4-1z" fill="#1F64A5"/>
<path transform="translate(398,1349)" d="m0 0 3 4 1 14 6 1-2 2 59 1v1h-65l-18-2h-8l-2 2-1-5 4-1 21 1 1-9z" fill="#3374AE"/>
<path transform="translate(1277,1806)" d="m0 0h1l2 62-1 2v9l-3-1-1-5-12-1-52-1v-1l65-1z" fill="#B8D2E8"/>
<path transform="translate(1303,1923)" d="m0 0h64l3 1 27 1v1h-110v-1z" fill="#1F5E9E"/>
<path transform="translate(1532,1790)" d="m0 0h1l1 7v47l-1 1-1 16h-1l-1-24-1-44z" fill="#5D98C9"/>
<path transform="translate(367,1242)" d="m0 0h108l1 2-90 1-20-1z" fill="#4188C2"/>
<path transform="translate(385,1742)" d="m0 0 6 2 8 4 2 3-1 5-2-3v-2h-2l1 7-1 62h-1l-1-63h-30v-1h27l-1-3-9-1v-1l8-1v-2l-5-2z" fill="#1B5A9B"/>
<path transform="translate(744,358)" d="m0 0h22l11 3v1h-39l-27 1-7-3v-1h36z" fill="#165293"/>
<path transform="translate(398,134)" d="m0 0h1l1 54 1 35-4 2-1-2v-39l1-12z" fill="#76A8D1"/>
<path transform="translate(397,94)" d="m0 0h1l1 23-1 6h-2v2h-17l-9-2-17-2v-1l6-1 35-1 2-1z" fill="#3072AC"/>
<path transform="translate(350,1751)" d="m0 0h31l9 1 1 4h-39l-74-1v-1h97v-2h-25z" fill="#2D6FAB"/>
<path transform="translate(652,999)" d="m0 0 1 2-1 3h-55l-1-2 7-2z" fill="#3476B0"/>
<path transform="translate(1022,48)" d="m0 0 3 1v68l-3-1z" fill="#76A9D2"/>
<path transform="translate(526,1499)" d="m0 0 47 1 15 1v1h-30l-30-1 1 12v66h-2v-51z" fill="#296CA9"/>
<path transform="translate(1532,927)" d="m0 0h1l1 63-1 58h-2v-86z" fill="#FEFEFE"/>
<path transform="translate(177,879)" d="m0 0h6v3l-8 6-12 5h-3l-2-4-2-1-1-6 10-1v2l9-2h2z" fill="#175394"/>
<path transform="translate(399,1848)" d="m0 0h1v15l25 1 36 2v1h-17l-28-1h-14l-1 3h41l25 1v1h-29l-38-1v24h-1z" fill="#286BA8"/>
<path transform="translate(153,1372)" d="m0 0h2v73l-1 5h-1l-1-24v-53z" fill="#4087C1"/>
<path transform="translate(1958,824)" d="m0 0h1v48l3 1-3 1h-51l1-3h49z" fill="#4188C2"/>
<path transform="translate(156,1079)" d="m0 0 5 1-2 1v12l-1 17-4-2-1-2-1 6h-1v-28l3-3z" fill="#2064A5"/>
<path transform="translate(1771,159)" d="m0 0 6 3 4 5 9 7v3l-11-8h-2l1 6v71h-1l-1-54-1-24-4-1v17h-1v-23z" fill="#195898"/>
<path transform="translate(1277,325)" d="m0 0 12 1 2 3h2l1 3-8 2-5-1-1 2h3v3h-2l-1 16h-1l-2-24-1 2v42h-1l-1-38-1-8-1-2z" fill="#2266A6"/>
<path transform="translate(1407,1598)" d="m0 0h1v22l18-2 9 2-2 3-8 3-12 2h-2l-1-3-3 1z" fill="#165293"/>
<path transform="translate(1025,85)" d="m0 0h1v69l-1 18 2 1-3 2v-44l-1 40h-1v-46h-9v-1h8l1-8h2z" fill="#367BB7"/>
<path transform="translate(486,1229)" d="m0 0h1l1 15-5 1-100 1-18-1v15h-1l-1-16h24l88-1-1-2h12z" fill="#3476B0"/>
<path transform="translate(1315,450)" d="m0 0h15l18 2 6 3-1 2-1 1-13-1-5-1-18-1v-3l-2-1z" fill="#165293"/>
<path transform="translate(1410,358)" d="m0 0 17 1 13 5 4 2v2l-19-2h-15l-1-3z" fill="#1F64A5"/>
<path transform="translate(906,121)" d="m0 0 5 1-1 48h-1l-1-38-1 39h-1v-46h-70v-1l70-1z" fill="#3276B2"/>
<path transform="translate(1535,1377)" d="m0 0 2 4v29l-1 38h-1v-52l-1 3-1 11-1 30h-1l-1-20-2-4 3-10 2-26z" fill="#1B5A9A"/>
<path transform="translate(1151,89)" d="m0 0h1l1 29v50l-3 1v-50z" fill="#98BEDD"/>
<path transform="translate(1777,1618)" d="m0 0 1 2h3v3l2 1h-5v4h34v1l-33 1v6h-2l-2 35h-1l-1-19 1-11 2-9h-3v-2l-2-1z" fill="#1F5F9E"/>
<path transform="translate(152,1244)" d="m0 0h4l1 3v28l-1 93h-1l-1-103 1-19h-3z" fill="#1F64A5"/>
<path transform="translate(653,379)" d="m0 0h1l1 15v53l-3 1v-53z" fill="#7AABD4"/>
<path transform="translate(1408,407)" d="m0 0h1l1 43 5 12-1 4-2 4 2 4-7 2-6-3 3-2 2 1 1-3 1-12z" fill="#185596"/>
<path transform="translate(150,1629)" d="m0 0 4 1 3 12 5 33-2 1-3-7-3-15-1-1z" fill="#2367A6"/>
<path transform="translate(653,48)" d="m0 0h1l1 41v31h-3v-68z" fill="#FEFEFE"/>
<path transform="translate(1880,1114)" d="m0 0h29l-1 3h-70l-1-2z" fill="#84B1D7"/>
<path transform="translate(1837,999)" d="m0 0h57l3 1v2h-59z" fill="#3E85BF"/>
<path transform="translate(397,1837)" d="m0 0 1 3h2l-1 53-5-1 2-1v-50z" fill="#458AC3"/>
<path transform="translate(1533,120)" d="m0 0 2 1 10 1v1h88l23 1v1h-122v16h-1z" fill="#2768A6"/>
<path transform="translate(1897,346)" d="m0 0 1 2 3 1 2 13h8v2h12l3 2v2h-18l-6-1-1-4h-7l4-1-1-7z" fill="#1F64A5"/>
<path transform="translate(655,331)" d="m0 0 1 2v32l10 2v1h-11v26l-3 1v-33h-2v-2h2v-25l-1-2z" fill="#4086C0"/>
<path transform="translate(153,1501)" d="m0 0 3 1 1 31v16h-1l-1-15-1 14h-1l-1-7v-39z" fill="#2D6FAB"/>
<path transform="translate(355,1725)" d="m0 0 5 2h5l11 8 6 4-3 2-4 1-3-1v-2l-4-1-8-5-6-5z" fill="#185595"/>
<path transform="translate(270,1626)" d="m0 0 2 3 1 3h-2l1 3v41h-1l-1-33-1 17-1 36h-1v-68h2z" fill="#3072AD"/>
<path transform="translate(191,238)" d="m0 0h2l3 7 7 1-4 2h-6v3h17v1h-29l-1-6 5-1v-2z" fill="#175495"/>
<path transform="translate(362,243)" d="m0 0 3 1-5 6-5 3-1-2h-35v-1h26v-2h5l-2-2-32-1v-1z" fill="#1F62A2"/>
<path transform="translate(447,1496)" d="m0 0h19v2h26l6 1v1l-26 1h-18l-7-1z" fill="#2F70AC"/>
<path transform="translate(1959,1243)" d="m0 0 4 1-2 1-1 16-1 107h-1v-122h-3v-2z" fill="#2A6CAA"/>
<path transform="translate(284,245)" d="m0 0h66v3h-5v2h-16l-8-2v-1l-37-1z" fill="#3172AD"/>
<path transform="translate(529,1515)" d="m0 0h1l2 46v16l1 7-2 3h-4l-1 2-1-4 2-6h2z" fill="#175394"/>
<path transform="translate(153,1654)" d="m0 0h2l3 15 3 6v-5l2 3 3 8v5l-3 1-6-4-2-4v-8l-1-1v-5l-2-1z" fill="#165293"/>
<path transform="translate(97,1106)" d="m0 0 2 1 16 2 22 1-3 3-13 1h-14l-9-1 1-3-3-3z" fill="#165293"/>
<path transform="translate(410,787)" d="m0 0 18 3 2 2v3l6 1v1l-11 1-10-1 3-2-9-2-2-4z" fill="#2066A6"/>
<path transform="translate(396,752)" d="m0 0 2 4-2 10-1 9h2v-4h2v17l-5-5-5-7 1-7 3-4z" fill="#165394"/>
<path transform="translate(1905,1499)" d="m0 0h12v1l-10 1-2 84h-1l-1-24v-15l1-41 1-4-4-1z" fill="#2C6EAB"/>
<path transform="translate(1659,1241)" d="m0 0h5l2 5-1 13-2 1-1-6h-3l-1-2v-6h-19v-1l19-1-28-1v-1z" fill="#2F71AC"/>
<path transform="translate(396,938)" d="m0 0h3v34l-1 35-5-2v-6l4-1-1-43z" fill="#1F64A5"/>
<path transform="translate(655,370)" d="m0 0h1v89l-1 7-3 1v-19l2-1z" fill="#2A6DAA"/>
<path transform="translate(513,1388)" d="m0 0 4 2 10 19 11 16 1 4v3l-6-7-8-11-12-24z" fill="#144D8C"/>
<path transform="translate(752 1e3)" d="m0 0h27v3l-3 1h-60v-1l28-1h3z" fill="#165293"/>
<path transform="translate(1551,617)" d="m0 0h105v3l-8 1h-9l-3-2-85-1z" fill="#3072AC"/>
<path transform="translate(1257,925)" d="m0 0h23l1 10v24h-2l-1 13h-1v-43l1-3h-21z" fill="#1C5E9F"/>
<path transform="translate(1686,242)" d="m0 0 5 1 24 2v1l-15 1 1 1 10 1v1l-13 1h-8l-7-4v-2h-2v-2z" fill="#1F64A5"/>
<path transform="translate(1403,1542)" d="m0 0h1v93h-1l-1-11-8 1-4 1-2-2 6-3 9-1z" fill="#4188C2"/>
<path transform="translate(1189,1046)" d="m0 0h40l43 1v1l-7 1h-49l-20-1-7-1z" fill="#165293"/>
<path transform="translate(527,386)" d="m0 0 2 2 1 2-1 97h18v1h-19v-96h-2v5h-1l-1-8z" fill="#2667A5"/>
<path transform="translate(1243,120)" d="m0 0h21v4h-52v-1h11v-2z" fill="#4087C1"/>
<path transform="translate(1153,1869)" d="m0 0h41l-1 3-23 1h-16z" fill="#4589C2"/>
<path transform="translate(1548,1046)" d="m0 0h19l19 2 17 1v1h-35l-30-1 2-2z" fill="#2E74B2"/>
<path transform="translate(1771,167)" d="m0 0 4 1 1 2v18h-1l-1-11-1-1v17l1 36v17h-3l1-1-1-45z" fill="#286BA9"/>
<path transform="translate(430,1213)" d="m0 0h6v3l3-3 3 3-1 9-1 3h-6v-3h-2l-3-10z" fill="#165293"/>
<path transform="translate(1871,871)" d="m0 0h27v3h-58l-4-2z" fill="#7DADD5"/>
<path transform="translate(1533,400)" d="m0 0 3 2h-2v3l4 2 6 5v2l-5-2-3-3h-3v-2l-3 1-1 68h-1v-75z" fill="#195899"/>
<path transform="translate(781 1e3)" d="m0 0 2 1v49l-3-1v-48z" fill="#3D82BD"/>
<path transform="translate(1667,708)" d="m0 0h1l1 16v12l-1 3h2l2 4 1 3-2 17-2 2-2-7z" fill="#165293"/>
<path transform="translate(1280,1864)" d="m0 0 1 4 2 1h-3v3h15v1h-15v49l-1 5 2 1h-4l1-59z" fill="#2164A4"/>
<path transform="translate(153,1117)" d="m0 0h3v28l-1 4v13l-2 1-1-9v-26z" fill="#4087C1"/>
<path transform="translate(778,49)" d="m0 0h4v33h-1l-1 38h-1l-1-53z" fill="#3D84BE"/>
<path transform="translate(1661,130)" d="m0 0h1l1 43v55l-1 7h-3l-2-2 1-5h1v5h2z" fill="#1A5B9C"/>
<path transform="translate(1530,406)" d="m0 0 3 1 1 2 1 43v37h-1l-1-32v-46h-3v23h-1v-26z" fill="#296CA9"/>
<path transform="translate(500,1344)" d="m0 0 2 4 4 17-1 4-8-1v-7l-1-8v-2h4z" fill="#1B5999"/>
<path transform="translate(363,1267)" d="m0 0h1l1 28 2 5v15l-1 2v20h-1l-2-19z" fill="#286AA8"/>
<path transform="translate(399,751)" d="m0 0 2 1 1 16-1 21h-2v-18h-2v4h-2v-9l2-10v-4z" fill="#2367A7"/>
<path transform="translate(655,999)" d="m0 0h1v52h-2v-46l-1 45h-10v-1h9v-48z" fill="#3C83BE"/>
<path transform="translate(782,389)" d="m0 0h2l1 36-1 19-1 8 3 1h-4z" fill="#195999"/>
<path transform="translate(1406,1796)" d="m0 0 2 3-2 2 1 13v25h-1l-1-19-1 47h-1l-1-68 3-1z" fill="#3A80BB"/>
<path transform="translate(1441,483)" d="m0 0 19 3 10 1v1l-14 1-1 2 3 2h-8l-10-5z" fill="#1E63A4"/>
<path transform="translate(1835 1e3)" d="m0 0h1l1 112 1 2-4 1-2-2 2-1z" fill="#2262A1"/>
<path transform="translate(427,485)" d="m0 0h1v5h38v1h-30v2h31v1h-42l-1-4 1-4z" fill="#286BA9"/>
<path transform="translate(1926,1368)" d="m0 0h32v1l6 1-2 2-56-1-3-2z" fill="#5393C8"/>
<path transform="translate(528 1e3)" d="m0 0h1v36l6 1 16 1 2 2-4 2-20-1-1 2z" fill="#165293"/>
<path transform="translate(1628,1868)" d="m0 0 9 1h17l4 2-2 2v-2l-69 1v-1l18-2z" fill="#2D6FAB"/>
<path transform="translate(1278,1519)" d="m0 0 12 2-4 3-2 2v5l-1 2h-3v35h-1l-1-38-1-10z" fill="#1F5F9E"/>
<path transform="translate(589,486)" d="m0 0h15l1 4-10 5-2-1-16-1v-1l11-2 3-2z" fill="#1F64A5"/>
<path transform="translate(779,330)" d="m0 0 6 2-2 1v51h-2l-1-23-2-2v-13h2l-1-13z" fill="#3273AD"/>
<path transform="translate(117,360)" d="m0 0 1 3 3-1h15v1l-10 1 2 1 26 1v35h-1v-34h-38z" fill="#2568A6"/>
<path transform="translate(430,482)" d="m0 0 7 1 5-1 2 4-1 2 5 1v1h-20l-1-6z" fill="#155192"/>
<path transform="translate(1278,65)" d="m0 0h1l1 35v19l-1 6h-1l-1-21v-35z" fill="#FEFEFE"/>
<path transform="translate(1424,1923)" d="m0 0 63 1v1l-46 1h-24l-6-1v-1z" fill="#2869A7"/>
<path transform="translate(1658,91)" d="m0 0h2l1 8v46h-1l-1-42-1 16-1 2h-18v-1h17l1-27z" fill="#286AA8"/>
<path transform="translate(259,1613)" d="m0 0 4 5 5 6 2 1-1 4-2-1 1 8v13l-1 7h-1v-13l-2-16-2-1v-2h-5l3-4-2-4z" fill="#2164A4"/>
<path transform="translate(1140,121)" d="m0 0 10 1v3h-76v-1l55-1v-1z" fill="#1F64A5"/>
<path transform="translate(1276,53)" d="m0 0h4v47h-1l-1-31-1 19h-1z" fill="#377CB7"/>
<path transform="translate(236,1754)" d="m0 0h34l10 1v1h-7l-1 2-2-1 1 55-2-1-1-55-32-1z" fill="#2568A7"/>
<path transform="translate(433,1489)" d="m0 0 12 2 2 1 17 2v1h-11l-14-1-1 3 2 2 14 1v1l-9 1-5 2-4-5-3-6z" fill="#165293"/>
<path transform="translate(784,1629)" d="m0 0 5 2 1 4 6 1-3 2h-2v2l4 1-4 1h-8l-1-10z" fill="#175394"/>
<path transform="translate(395,928)" d="m0 0h4l-1 11-1 2-1 14h-1l-1-14-3-2v-2h-2l-1-5z" fill="#175494"/>
<path transform="translate(273,256)" d="m0 0h1v53l-1 23-2 5h-3l-1-4h3l1-7 1-19z" fill="#286BA9"/>
<path transform="translate(350,1751)" d="m0 0h31l9 1 1 4h-22l1-2h5v-2h-25z" fill="#3273AD"/>
<path transform="translate(1651,937)" d="m0 0 4 2 4 5 3 5v11h-1l-2-7-7-3-1-5z" fill="#165293"/>
<path transform="translate(517,1407)" d="m0 0 4 1 3 6 2 8-1 4-3-7v28h-1l-3-31z" fill="#1F64A5"/>
<path transform="translate(477,745)" d="m0 0 5 2-1 2-31 1h-14l-1-2 2-1h31z" fill="#3374AE"/>
<path transform="translate(368,732)" d="m0 0 3 2 1 4 2 1v2l5-1 4 3-3 1h-12l1 4-6 2v-2h-7v-1h7v-5l2 4 3-4-1-1z" fill="#1C5A9A"/>
<path transform="translate(398,83)" d="m0 0 3 2v34l-3-3z" fill="#3A80BA"/>
<path transform="translate(398,1748)" d="m0 0 3 3-1 5-2-3v-2h-2l1 7-1 62h-1v-64h-2l-1-4 2-2h4z" fill="#1F64A5"/>
<path transform="translate(1837,1369)" d="m0 0 61 1v1l-26 1h-35l-2-2z" fill="#FEFEFE"/>
<path transform="translate(780,61)" d="m0 0h1l1 21 1 38-3 1z" fill="#FEFEFE"/>
<path transform="translate(1664,976)" d="m0 0 2 4v3l2 1 1 5 1 21-1 11-2 1v-15l-3-21z" fill="#165293"/>
<path transform="translate(147,1081)" d="m0 0 5 1-1 6-6 1-8 2h-5l1-4 6-3h6v-2z" fill="#165293"/>
<path transform="translate(105,880)" d="m0 0 8 4 11 4 5 1v3l10 1v1h-10l-15-5-9-6z" fill="#134C8B"/>
<path transform="translate(155,749)" d="m0 0h3v21l-2 8-2-2v-23z" fill="#2E70AC"/>
<path transform="translate(619,1629)" d="m0 0 8 1 16 4 7 1 1 3h-9l-22-6z" fill="#144E8E"/>
<path transform="translate(781,961)" d="m0 0 2 1v34h-3v-26z" fill="#4188C2"/>
<path transform="translate(1406,1872)" d="m0 0h18v1h-17v52l2 1-3 6h-1v-55z" fill="#397FBA"/>
<path transform="translate(655,1637)" d="m0 0h15l7 2 9 3-4 1-25-2z" fill="#124B8A"/>
<path transform="translate(1228,1616)" d="m0 0 29 2v1h-21l-2 4 4 5-1 2-11-9z" fill="#165293"/>
<path transform="translate(1654 1e3)" d="m0 0h1l1 24h7l1-2h2l-2 5-5 3-5 1-2-9 1-3z" fill="#165293"/>
<path transform="translate(1025,1834)" d="m0 0h1v34h-4v-19h2z" fill="#3E84BE"/>
<path transform="translate(651,1799)" d="m0 0h3v16h-1l-1 52h-1z" fill="#3072AD"/>
<path transform="translate(177,879)" d="m0 0h6v3l-8 6-7 3h-5l1-4 11-5z" fill="#124B8A"/>
<path transform="translate(526,527)" d="m0 0h1v29l-4 13h-2v-32h1v22l2-1 1-8z" fill="#2568A7"/>
<path transform="translate(600,1489)" d="m0 0h12l3 3h-5l-1 4-10 1-6-1v-1h5l1-4z" fill="#165293"/>
<path transform="translate(85,1242)" d="m0 0h26v1l28 1v1h-56l-1 4v-5z" fill="#377DB8"/>
<path transform="translate(274,155)" d="m0 0h1v44h-1v-36h-2l-1 26h-1v-26l3-7z" fill="#2065A5"/>
<path transform="translate(1405,1501)" d="m0 0h3l-1 5v6h-1l-1 30h-2v-23l1-16-4-1z" fill="#367CB8"/>
<path transform="translate(1534,1846)" d="m0 0h1l1 24-1 3v50h-2v-57z" fill="#2669A8"/>
<path transform="translate(1535,1377)" d="m0 0 2 4v29l-1 38h-1v-41l1-23h-3l1-5z" fill="#1F5E9E"/>
<path transform="translate(1277,104)" d="m0 0h1v21l-26-2v-1h12v-2h13z" fill="#3678B2"/>
<path transform="translate(391,1868)" d="m0 0h4v6l-14 2h-5l-2-3 1-1h10l3-1v-2z" fill="#165293"/>
<path transform="translate(153,315)" d="m0 0h1v49h-12v-1h11l-1-31-2-5 2-9z" fill="#195798"/>
<path transform="translate(438,1493)" d="m0 0 30 2v1l-21 1v3h-7l-3-3z" fill="#1F64A5"/>
<path transform="translate(152,1244)" d="m0 0h4l1 3v28l-1 1-1 7h-1v-18l1-19h-3z" fill="#2B6DAA"/>
<path transform="translate(1672,1862)" d="m0 0h23v2l3 1h-3v2l-5 1-1-3h-24v-1h7z" fill="#165293"/>
<path transform="translate(1554,1221)" d="m0 0 2 3 4 1 1 3 1 2-3 5-3 1-1 3h-2v-14z" fill="#1B5999"/>
<path transform="translate(401,1881)" d="m0 0 4 1 6 7v2l-6 1-5-1v-9z" fill="#165293"/>
<path transform="translate(1674,240)" d="m0 0h10l14 3v1h-7l-10-1v2h2v2h-2v2l-4-2-5-4 2-2z" fill="#185495"/>
<path transform="translate(150,1629)" d="m0 0 4 1 3 12v7l-2-2v7l-2-1z" fill="#1E62A3"/>
<path transform="translate(1958,824)" d="m0 0h1v48l3 1-5 1-22-1v-1l23-1z" fill="#78AAD3"/>
<path transform="translate(1958,727)" d="m0 0h1l1 19-1 1h-19l-1-3h19z" fill="#6FA5D0"/>
<path transform="translate(207,1748)" d="m0 0 27 1v1l-17 1v1l6 1v1h-13l-4-2z" fill="#1F64A5"/>
<path transform="translate(1443,1498)" d="m0 0h17v1l-23 2 4 2-18 1 2-1 1-3 4-1z" fill="#2C6EAB"/>
<path transform="translate(760,1869)" d="m0 0h21l1 6-4-1v-2h-19z" fill="#4087C1"/>
<path transform="translate(274,1763)" d="m0 0 2 4v49l-1 4-3-1 1-4z" fill="#165293"/>
<path transform="translate(398,1349)" d="m0 0 3 4 1 14 6 1v1h-8l-4-2 1-9z" fill="#1F64A5"/>
<path transform="translate(1545,655)" d="m0 0 3 1 1 14 1 3 3 2-2 9-2 3-4-26z" fill="#2161A0"/>
<path transform="translate(781,936)" d="m0 0 2 1v25h-1l-1 8h-1v-22z" fill="#3374AE"/>
<path transform="translate(1536,1866)" d="m0 0 26 1v1l-18 1-5 1h14l3 2-21 1v-6z" fill="#4188C2"/>
<path transform="translate(1897,1628)" d="m0 0h1l1 5 2-2 2 1v5l-3 6-3 7h-1z" fill="#165293"/>
<path transform="translate(630,1497)" d="m0 0 7 1 12 6-8 2h-9l3-2 2-1-7-4z" fill="#1A5797"/>
<path transform="translate(399 1e3)" d="m0 0h1l1 12v13l-1 17-2 3-1-4h2l-1-17v-11z" fill="#4087C1"/>
<path transform="translate(1276,392)" d="m0 0h1l1 59-5-4 2-2z" fill="#1F5F9F"/>
<path transform="translate(259,359)" d="m0 0 3 1h-2l-1 6-2 1-37-1v-1h37l-1-2-8-1v-1z" fill="#2366A6"/>
<path transform="translate(486,1229)" d="m0 0h1l1 15-5 1h-20v-1l12-1-1-2h12z" fill="#286CAA"/>
<path transform="translate(420,1896)" d="m0 0h6l24 8 5 1-1 2-16-4-13-3-1-2z" fill="#165293"/>
<path transform="translate(273,1758)" d="m0 0h1v60l-2 1-1-7h1z" fill="#2D6FAB"/>
<path transform="translate(1249,364)" d="m0 0h11l12 2v1h-32v-2z" fill="#1F64A5"/>
<path transform="translate(1455,488)" d="m0 0h29l5 1v1h-15l-16-1 1 2 12 1v1h-13l-4-2z" fill="#2F71AC"/>
<path transform="translate(1662,1351)" d="m0 0 2 3-1 13-2 1h-12l3-4 6 2v-2h2z" fill="#165293"/>
<path transform="translate(396,1009)" d="m0 0h1v20l2 15v2l-4-1 1-5-2-13z" fill="#175394"/>
<path transform="translate(1438,999)" d="m0 0h26l6 2v1h-14l-17-1z" fill="#3374AE"/>
<path transform="translate(161,295)" d="m0 0h1l-1 12-1 11h-1v-7h-2l-1 4-1-4 4-14z" fill="#1F64A5"/>
<path transform="translate(213,1484)" d="m0 0h1l1 10 1 3-6 1v-1l-6-1v-1h6v-2h-2v-6h4z" fill="#2262A1"/>
<path transform="translate(400,1030)" d="m0 0h1l1 13 4 2 2-1v2l5 1v1l-12 2-2 1z" fill="#2669A8"/>
<path transform="translate(475,1245)" d="m0 0h8l1 1-1 7-1 2-4-2-3-5z" fill="#165293"/>
<path transform="translate(535,491)" d="m0 0h18l5 1v2h-21l-5-1z" fill="#3374AE"/>
<path transform="translate(1831,1749)" d="m0 0h9v3l-9 2h-18v-1l15-1-6-1v-1z" fill="#276AA8"/>
<path transform="translate(465,1497)" d="m0 0 27 1 6 1v1h-33l-2-2z" fill="#4188C2"/>
<path transform="translate(207,1355)" d="m0 0h1v16l-23-1v-2h22z" fill="#80AFD6"/>
<path transform="translate(1548,1046)" d="m0 0h14l2 1v2h-26l2-2z" fill="#2B71AF"/>
<path transform="translate(1611,490)" d="m0 0 4 2 6 8-1 3-5-6v-2l-31-1v-1h25v-2z" fill="#165293"/>
<path transform="translate(207,475)" d="m0 0 4 1v9l2 2-1 1h-6v-11z" fill="#195697"/>
<path transform="translate(1660,1873)" d="m0 0 2 3 1 10-6 2-1-8 1-3h3z" fill="#3174B0"/>
<path transform="translate(1837,999)" d="m0 0 29 1-1 2h-27z" fill="#94BCDC"/>
<path transform="translate(203,842)" d="m0 0 2 2v12l-4 7-2-2 1-7z" fill="#124B8A"/>
<path transform="translate(1792,178)" d="m0 0 4 2 15 15-1 3v-2l-5-2-7-7z" fill="#165293"/>
<path transform="translate(1153,122)" d="m0 0h29l1 2h-28v2h-2z" fill="#1F64A5"/>
<path transform="translate(599,1622)" d="m0 0 9 3 10 3 1 3-10-2-10-3z" fill="#195594"/>
<path transform="translate(1421,1502)" d="m0 0 4 1-1 2-11 3h-5v16h-1v-17l5-3z" fill="#1D61A2"/>
<path transform="translate(1533,120)" d="m0 0 2 1 10 1v1l7 1v1h-18v16h-1z" fill="#3679B3"/>
<path transform="translate(1776,1799)" d="m0 0h1l1 15-6 5-1-3 1-9h4z" fill="#266AA8"/>
<path transform="translate(1905,1499)" d="m0 0h12v1l-10 1-1 36h-1l-1-32 1-4-4-1z" fill="#2367A6"/>
<path transform="translate(1692,245)" d="m0 0h23v1l-15 1 1 1 10 1v1l-13 1-6-5z" fill="#2F71AC"/>
<path transform="translate(1278,1879)" d="m0 0h1v48l2 1h-4z" fill="#3E84BF"/>
<path transform="translate(1664,1866)" d="m0 0h22l-1 2-20 2-2-1z" fill="#3374AE"/>
<path transform="translate(908,1752)" d="m0 0 53 1v1h-52l-1 2-1-3z" fill="#4188C2"/>
<path transform="translate(367,1242)" d="m0 0h28l-1 2-8 1-20-1z" fill="#3F85BF"/>
<path transform="translate(527 1e3)" d="m0 0h1v48l2 1h-4z" fill="#3D83BE"/>
<path transform="translate(654,447)" d="m0 0h1v19l-3 1v-19z" fill="#4188C2"/>
<path transform="translate(1660,1865)" d="m0 0h26v1l-22 1-1 2 4 2h-6l-1 2zm-3 8h3v4l-3-1h2v-2z" fill="#2266A6"/>
<path transform="translate(525,561)" d="m0 0 2 3-1 5-4 7-3-1-1-5 2-7h1v6h2l1-6z" fill="#185595"/>
<path transform="translate(1149,1802)" d="m0 0h3v7h-1l-1 37h-1z" fill="#4188C2"/>
<path transform="translate(374,1366)" d="m0 0 22 2-4 2h-18l-2 2-1-5z" fill="#2265A4"/>
<path transform="translate(1470 1e3)" d="m0 0h17l7 2v1h-20l-4-2z" fill="#3374AE"/>
<path transform="translate(779,330)" d="m0 0 6 2-2 1-1 25h-1l-2-18z" fill="#2469A8"/>
<path transform="translate(258,1626)" d="m0 0h6l2 6 1 14-1 7h-1l-1-12-1-4v-7l-1-2z" fill="#165293"/>
<path transform="translate(374,1369)" d="m0 0h8l-2 6-2 1v-2h-2v5l-3-3v-6z" fill="#104988"/>
<path transform="translate(1537,999)" d="m0 0 13 1 1 1 2-1 2 2 1 2h-10l1-2-4 1-3 1v-2l-4-1z" fill="#3273AD"/>
<path transform="translate(369,614)" d="m0 0h1v5l3-1h23v1l-13 1v1h-14z" fill="#2E71AD"/>
<path transform="translate(1279,435)" d="m0 0h1l1 17 6 1v1h-7l-5-1v-2h3l-1-7v-8z" fill="#4087C1"/>
<path transform="translate(400,79)" d="m0 0 2 1-3 3-2 29-3-1 1-1 1-26-2-1z" fill="#1C5B9A"/>
<path transform="translate(1677,1871)" d="m0 0h7l-1 2h-4v2l-6 2h-4l-1-5z" fill="#155192"/>
<path transform="translate(1655,781)" d="m0 0m-5 1h5v3l-10 6h-5l5-4z" fill="#134C8B"/>
<path transform="translate(653,872)" d="m0 0 2 2-2 1-47-1v-1z" fill="#4188C2"/>
<path transform="translate(585,1475)" d="m0 0 8 4 2 4-3 1-6-3-3-3v-2z" fill="#165293"/>
<path transform="translate(1536,562)" d="m0 0h1v32l-2-1-1-5v-8h1z" fill="#276AA8"/>
<path transform="translate(1918,364)" d="m0 0 7 1 1 3h-18v-2l10-1z" fill="#1F64A5"/>
<path transform="translate(117,360)" d="m0 0 1 3 3-1h15v1l-10 1 2 2-13 1z" fill="#296DAA"/>
<path transform="translate(1772,1753)" d="m0 0 40 1v1l-34 1h-3l-3-1z" fill="#276AA8"/>
<path transform="translate(1607,1494)" d="m0 0h5l-1 4-2 1h-11v-1l-6-1v-1z" fill="#2A6DAA"/>
<path transform="translate(436,1191)" d="m0 0 7 2 1 4-5 3-3-1-2-6z" fill="#155192"/>
<path transform="translate(437,747)" d="m0 0h12l9 1v1l-8 1h-14l-1-2z" fill="#3273AD"/>
<path transform="translate(326,121)" d="m0 0h6l-2 1v2l2 2-14 1 1-3z" fill="#165293"/>
<path transform="translate(401,589)" d="m0 0h1v20l-2 6h-1v-10z" fill="#2E70AC"/>
<path transform="translate(1258,1638)" d="m0 0h12l5 3v1h-8l-9-2z" fill="#144E8D"/>
<path transform="translate(1779,316)" d="m0 0h1l1 37-2-2-1-7z" fill="#286BA9"/>
<path transform="translate(478,739)" d="m0 0 4 1v2l2 1-7 1h-18v-1l13-1z" fill="#165293"/>
<path transform="translate(524,490)" d="m0 0h2v3l3 1-1 29h-1l-1-24-2-5z" fill="#3274AE"/>
<path transform="translate(1275,327)" d="m0 0 4 1 1 7h3v3h-2l-1 16h-1l-2-24-2-1z" fill="#286BA9"/>
<path transform="translate(1532,1922)" d="m0 0 2 1-2 32h-1v-32z" fill="#4188C2"/>
<path transform="translate(207,1752)" d="m0 0 3 1 26 1v1l-20 1-2 1h-6z" fill="#165293"/>
<path transform="translate(1611,1489)" d="m0 0h5v4l-3 4-1-3-6 1 1-3z" fill="#1A5797"/>
<path transform="translate(478,757)" d="m0 0h2l1 3-3 5-1 3-4 1v-3-4l4-2z" fill="#1F64A5"/>
<path transform="translate(1648,617)" d="m0 0h8v3l-8 1h-9l-3-2h12z" fill="#3073AE"/>
<path transform="translate(1952,1371)" d="m0 0h10l-2 4-1 9-2-1v-7l-2-1v-2z" fill="#175394"/>
<path transform="translate(646,334)" d="m0 0h7v27l-2-2v-17l-2-7z" fill="#1F61A1"/>
<path transform="translate(153,1501)" d="m0 0 3 1-1 24h-1l-1-10z" fill="#4188C2"/>
<path transform="translate(779,427)" d="m0 0h1l1 6v12l-3 1v-12z" fill="#71A6D1"/>
<path transform="translate(1665,92)" d="m0 0 5 1 12 6v2l-7-2-10-5z" fill="#144D8C"/>
<path transform="translate(398,1748)" d="m0 0 3 3-1 5-2-3v-2h-2l1 7-2 3v-5h-2l-1-4 2-2h4z" fill="#2F70AB"/>
<path transform="translate(1956,1474)" d="m0 0h1l1 24-1 1h-6l2-2-1-2h4z" fill="#3C82BC"/>
<path transform="translate(242,382)" d="m0 0 5 1 1 3-3 4-5-3 1-4z" fill="#195696"/>
<path transform="translate(1530,406)" d="m0 0 3 1v4h-3v23h-1v-26z" fill="#3374AE"/>
<path transform="translate(1772,169)" d="m0 0 4 1v18h-1l-1-11-2-1z" fill="#3374AE"/>
<path transform="translate(782,1843)" d="m0 0h1v29l-2-1v-2h-2v-2h3l-1-3z" fill="#296DAA"/>
<path transform="translate(823,1607)" d="m0 0h1l-1 7-4 7-2-1 1-7 3-3z" fill="#134C8B"/>
<path transform="translate(1279,945)" d="m0 0h1l1 21h-1l-1 6h-1v-13z" fill="#3374AE"/>
<path transform="translate(601,486)" d="m0 0h3l1 4-10 5-3-3 9-4z" fill="#1A5797"/>
<path transform="translate(1900,1114)" d="m0 0h9l-1 3h-9l-8-1v-1z" fill="#8FB9DB"/>
<path transform="translate(803,1632)" d="m0 0m-1 1m-1 1 1 3-5 3h-6v-2z" fill="#134C8A"/>
<path transform="translate(396,1368)" d="m0 0 10 1-1 3-12-1-1-2z" fill="#2D6FAB"/>
<path transform="translate(1023,990)" d="m0 0h1l1 13-1 15h-1l-1-21z" fill="#165293"/>
<path transform="translate(651,1799)" d="m0 0h3v16h-1v-7h-2z" fill="#4087C1"/>
<path transform="translate(1660,1739)" d="m0 0v3l-1 1-1 10h-2l-1-7-2-1 4-1 2-4z" fill="#377CB8"/>
<path transform="translate(1227,1623)" d="m0 0 5 2 5 4 2 1-1 3-9-6z" fill="#185290"/>
<path transform="translate(786,1557)" d="m0 0 4 2-3 10-2-4-1-6z" fill="#0D4483"/>
<path transform="translate(198,1246)" d="m0 0 5 1 1 3-1 2-5-1-2-4z" fill="#165293"/>
<path transform="translate(153,1147)" d="m0 0 2 2v13l-2 1-1-9v-6z" fill="#4188C2"/>
<path transform="translate(783,973)" d="m0 0h1v25l-2 3-2-5h3z" fill="#2468A7"/>
<path transform="translate(1646,1748)" d="m0 0h2v5l-4 2-3-1 1-1-3-1z" fill="#1E5C9C"/>
<path transform="translate(1394,1624)" d="m0 0h8l1 2v8h-1v-7h-9z" fill="#2C6EAB"/>
<path transform="translate(126,1622)" d="m0 0h17v1l-12 1v2l-5-1z" fill="#1F64A5"/>
<path transform="translate(1538,1368)" d="m0 0h14v1h-12l3 2-1 1h-8z" fill="#2B6FAC"/>
<path transform="translate(531,555)" d="m0 0h2l-2 5-3 5-2-1v-5l5-2z" fill="#124C8A"/>
<path transform="translate(157,311)" d="m0 0h2v23h-1l-1-15h-1z" fill="#2D6FAB"/>
<path transform="translate(1661,214)" d="m0 0h1v21h-3l-2-2 1-5h1v5h2z" fill="#2D6FAC"/>
<path transform="translate(527,386)" d="m0 0 2 2 1 2-1 9h-1v-7h-2v5h-1l-1-8z" fill="#2469A8"/>
<path transform="translate(1024,1913)" d="m0 0h1v11h-3v-10z" fill="#3E84BF"/>
<path transform="translate(272,1637)" d="m0 0 4 5 1 4h-3l-1 6h-1z" fill="#165293"/>
<path transform="translate(1340,1623)" d="m0 0h19l-4 2-4 1-11-2z" fill="#3374AE"/>
<path transform="translate(1533,1384)" d="m0 0h3v12l-3 3z" fill="#2D6FAB"/>
<path transform="translate(147,1081)" d="m0 0 5 1-1 6-6-2v-4z" fill="#134E8F"/>
<path transform="translate(672,1046)" d="m0 0 10 1-3 2h-12l-1-2z" fill="#165293"/>
<path transform="translate(1900 1e3)" d="m0 0 5 1v22h-1l-1-20h-3z" fill="#2267A6"/>
<path transform="translate(1545,655)" d="m0 0 3 1v17h-1l-2-12z" fill="#2566A5"/>
<path transform="translate(1538,618)" d="m0 0h10l-1 3h-7l-1 3z" fill="#2C70AD"/>
<path transform="translate(1903,363)" d="m0 0h8l7 1 1 2h-12l-4-2z" fill="#3374AE"/>
<path transform="translate(626,361)" d="m0 0h8v3l-14 1 4-3z" fill="#286BA9"/>
<path transform="translate(643,1634)" d="m0 0 7 1 1 3h-9l-1-3z" fill="#134E8E"/>
<path transform="translate(370,748)" d="m0 0 12 1v2h-12l-3-2z" fill="#3375AF"/>
<path transform="translate(513,580)" d="m0 0 1 3-1 4-3 3h-2l1-6z" fill="#165293"/>
<path transform="translate(205,1745)" d="m0 0 10 2v1h-8l-2 4-2-5z" fill="#165293"/>
<path transform="translate(189,488)" d="m0 0h19v3h-6v-2h-13z" fill="#3479B5"/>
<path transform="translate(1533,120)" d="m0 0 6 2-4 1-1 18h-1z" fill="#2F71AC"/>
<path transform="translate(632,1632)" d="m0 0 10 2-1 3-11-2z" fill="#1B5796"/>
<path transform="translate(406,792)" d="m0 0 12 2 2 2h-9l-5-2z" fill="#185392"/>
<path transform="translate(1407,340)" d="m0 0 9 1-1 2-8 2z" fill="#144D8C"/>
<path transform="translate(1277,325)" d="m0 0h3l-1 4-3-1-1 8h-1l-1-8-1-2z" fill="#2162A2"/>
<path transform="translate(1668,1872)" d="m0 0h6l1 4-6 1z" fill="#1A5A9B"/>
<path transform="translate(380,1864)" d="m0 0h10v3l-9-1z" fill="#3374AE"/>
<path transform="translate(829,1594)" d="m0 0 1 2-5 13-2-3 3-6 2-5z" fill="#1C5896"/>
<path transform="translate(1278,1519)" d="m0 0 12 2v1l-10 2z" fill="#1B5795"/>
<path transform="translate(1553,738)" d="m0 0h3l-1 10h-2z" fill="#1C5896"/>
<path transform="translate(1783,357)" d="m0 0 4 2 1 3 3 1-2 1-3-1v-2h-2l-1 2-1-4z" fill="#1B5A9A"/>
<path transform="translate(651,343)" d="m0 0h1v13l-3-1v-2l-2-1h2v-2h2z" fill="#165293"/>
</svg>
