<?xml version="1.0" encoding="UTF-8"?>
<svg version="1.1" viewBox="0 0 2048 2048" width="1280" height="1280" xmlns="http://www.w3.org/2000/svg">
<path transform="translate(0)" d="m0 0h2048v2048h-2048z" fill="#FEFEFD"/>
<path transform="translate(804,580)" d="m0 0 4 2 63 63 7 8 102 102 7 6 7 8 22 22 5 4 3 3 4-1 17-17h2l2-4 35-35 8-7 151-151 4-3 4 1 9 10 79 79 7 6 7 8 119 119 2 1v2l4 2 14 15 41 41 7 8 39 39 2 1v2l4 2 84 84 7 8 11 11 4 3-1 4-39 39-2 3h-2l-2 4-8 7-14 15-21 21-8 7-210 210-7 8-69 69-8 7-25 25-7 8-19 19-4-1-30-30-7-6v-2l-3-1-7-8-16-16-8-7-142-142-5-6-5 2-43 43-7 8-163 163-4 3-4-2-8-7-7-8-55-55-6-5-25-25-5-6-6-5-6-7-6-5-7-8-25-25-7-8-8-7-6-7-8-7-103-103v-2l-3-1-7-8-7-7-8-7-41-41-6-5-7-8-53-53-7-8-13-13 2-4 16-16 3-4h2l2-4 80-80 8-7 46-46 7-8 275-275z" fill="#EF1F27"/>
<path transform="translate(1024,803)" d="m0 0 4 1 7 8 18 18 7 8 29 29 8 7 72 72v2l3 1 5 6 7 6 7 8 18 18 16 14v2l4 2 12 12v2l4 2-1 5-43 43-6 7-50 50-6 7h-2l-2 4-8 7-41 41h-2v2l-8 7-19 19-7 8-23 23-4-1-33-33-7-8-12-11-90-90-7-8-11-11v-2l-4-2-7-8-9-9-2-1v-2l-4-2-32-32 2-4 10-9 85-85 7-8 11-11 8-7 71-71 7-8 15-15z" fill="#FEFEFD"/>
</svg>
