<svg width="25" height="25" viewBox="0 0 25 25" fill="none" xmlns="http://www.w3.org/2000/svg">
<path d="M20.3122 11.9792C20.3122 13.4167 21.4788 14.5834 22.9163 14.5834V15.625C22.9163 19.7917 21.8747 20.8334 17.708 20.8334H7.29134C3.12467 20.8334 2.08301 19.7917 2.08301 15.625V15.1042C3.52051 15.1042 4.68717 13.9375 4.68717 12.5C4.68717 11.0625 3.52051 9.89587 2.08301 9.89587V9.37504C2.08301 5.20837 3.12467 4.16671 7.29134 4.16671H17.708C21.8747 4.16671 22.9163 5.20837 22.9163 9.37504C21.4788 9.37504 20.3122 10.5417 20.3122 11.9792Z" stroke="#CA1820" stroke-width="1.25" stroke-linecap="round" stroke-linejoin="round"/>
<path d="M9.375 9.63538L15.625 15.8854" stroke="#CA1820" stroke-width="1.25" stroke-linecap="round" stroke-linejoin="round"/>
<path d="M15.6196 9.63542H15.629" stroke="#CA1820" stroke-width="1.66667" stroke-linecap="round" stroke-linejoin="round"/>
<path d="M9.3696 15.3645H9.37896" stroke="#CA1820" stroke-width="1.66667" stroke-linecap="round" stroke-linejoin="round"/>
</svg>
