<?xml version="1.0" encoding="UTF-8"?>
<svg version="1.1" viewBox="0 0 2048 1592" width="1280" height="1280" xmlns="http://www.w3.org/2000/svg">
<path transform="translate(0)" d="m0 0h2048v1592h-2048z" fill="#FCFBFB"/>
<path transform="translate(687,567)" d="m0 0h26l22 1 48 6 37 8 23 7 17 5 12 2 16 6 14 6 16 9 28 15 16 10 15 10 14 12 15 11 8 4 11 9 3 3 5-1 10-9 10-6 10-7 6-7 20-14 35-21 27-15 17-8 17-6 20-5 34-10 37-8 29-4 20-2 17-1h38l36 3 23 3 31 7 38 10 18 5 13 4 23 10 29 14 16 9 17 12 33 23 10 7 12 8 12 11 15 16 10 10 7 8 12 14 14 15 9 10 10 15 10 20 14 24 11 19 10 21 11 29 10 28 7 28 7 38 3 29v81l-2 25-5 30-7 30-11 35-8 20-15 33-11 22-16 25-8 15-11 16-16 21-9 10-11 11-8 7-21 21-7 8-10 9-26 20-18 12-19 11-23 13-16 8-23 11-31 13-26 8-31 8-25 5-40 5-15 1h-33l-32-2-36-5-26-5-32-8-26-9-21-8-25-11-19-11-11-6-19-10-16-8-12-8-13-12-14-12-11-9-5-5-4 2-10 9-16 13-16 12-5 5-10 7-16 7-21 12-23 12-10 6-19 8-28 10-32 10-22 5-20 4-31 4-35 3h-25l-48-4-32-5-26-6-31-9-26-9-51-24-22-12-12-7-8-4-16-11-12-9-14-11-11-9-12-11-13-13-8-10-9-7-7-8-11-12-13-17-12-16-15-23-11-22-10-19-13-28-8-19-7-20-8-28-8-35-4-25-2-18-2-31v-28l3-36 5-33 9-40 6-20 12-33 13-30 20-36 4-11 12-19 10-14 8-10 5-5 9-10 7-8 13-14 9-11 7-9 5-5 11-10 13-10 12-7 16-12 14-10 12-9 25-15 16-8 33-16 15-5 21-5 41-11 22-5 31-4 21-2z" fill="#D5120B"/>
<path transform="translate(1342,567)" d="m0 0h38l36 3 23 3 31 7 38 10 18 5 13 4 23 10 29 14 16 9 17 12 33 23 10 7 12 8 12 11 15 16 10 10 7 8 12 14 14 15 9 10 10 15 10 20 14 24 11 19 10 21 11 29 10 28 7 28 7 38 3 29v81l-2 25-5 30-7 30-11 35-8 20-15 33-11 22-16 25-8 15-11 16-16 21-9 10-11 11-8 7-21 21-7 8-10 9-26 20-18 12-19 11-23 13-16 8-23 11-31 13-26 8-31 8-25 5-40 5-15 1h-33l-32-2-36-5-26-5-32-8-26-9-21-8-25-11-19-11-11-6-19-10-16-8-12-8-13-12-14-12-11-9-6-7 17-16 10-10 6-4 4-8 8-8 1-2-94-1-5-4-26-36-7-11-1-4h165l10-1 6-8 8-14 8-16 4-11h-231l-4-9-13-36-1-6 270-1 3-11 8-28 2-8h2l9 11 7 7 14 9 15 7 17 3h22l20-2 13-3 2-3 2-9-8 3-14 1h-16l-15-2-17-5-9-5-10-9-8-7-12-13-7-14-5-15-4-23v-30l3-25 5-20 7-20 6-10 12-16 10-13 5-7-7 6-3 3h-2l-2 4h-2l-1 3h-2l-2 4-6 8-2 1-10 1-4 6-4 8-8 25-4 16-13 2-6 3h-2l-2 8-8 20-5 17-7 38-1 11-4 18-4 27-1 1h-51l-1-3 4-31 1-17 4-29 6-36 5-31 7-52 2-2h50v10l-2 11 1 4 5-10 3-5 5-3 11-7 9-3h13l-3-21v-8l-302 1-2 14-3 16 27 1-1 11-3 19-2 13-2 4h-27l-2 14-8 43-3 17-2 13v12l4 6 7 3h16l5-1 1 5-3 14-4 24-2 2-22 5-17 1-10-1-10-4-10-8-5-7-4-11-1-6v-15l4-30 5-30 4-21 10-59 5-26 3-19 1-1h29l22-1 10-36 5-12 1-1 270-1-7-16-14-35v-2h-227l-4-2 12-20 9-17 7-10 2-2h173l-5-9-11-16-9-12-6-7-5-4v-2l-95-1-2-1 1-6 8-10 10-10 7-8 8-8 8-7 3-4 4-2 7-7 10-7 10-6 5-5 9-8 21-14 20-12 17-10 24-13 23-10 15-4 19-5 31-9 33-7 29-4 20-2z" fill="#FD9802"/>
<path transform="translate(1638,7)" d="m0 0h114l2 3 13 55 5 29 3 20 7 31 12 53 7 29 13 58 13 56 17 74 6 32 6 34 6 30v6l-5 1-61 1h-55l-5-1-4-13-12-53-2-9-6-1h-171l-4 10-16 44-9 20-2 2h-141l-3-2 7-15 8-26 16-36 4-7 8-17 7-17 7-15 10-22 10-19 11-26 5-18 6-13 8-16 11-24 16-36 14-28 18-42 6-16 8-20 15-33 10-23 12-16 9-9 11-7 13-5 11-2z" fill="#02589F"/>
<path transform="translate(1217)" d="m0 0h103l33 7 25 7 13 5 1 5-10 56-5 39-1 8-9-2-48-12-29-5-10-1h-38l-14 2-21 7-15 6-6 5-5 8-3 11 1 11 5 10 9 10 14 10 16 9 16 7 30 14 20 11 19 14 14 11 10 9 8 7 13 13 8 13 6 12 5 17 3 19v19l-3 19-6 23-7 16-9 16-7 7-9 11-13 13-8 7-10 8-12 9-16 8-20 9-15 5-17 4-47 7-22 2h-38l-30-2-24-3-21-3-20-2-24-6-13-5-8-5v-8l6-38 3-27 5-30 2-10 4-1 30 12 31 11 23 6 19 3 25 2h28l22-3 20-6 15-8 8-7 4-8 3-11v-17l-5-13-9-9-10-7-15-9-38-19-17-10-18-10-16-8-11-7-13-12-7-8-11-16-10-16-8-19-4-17v-23l3-19 5-17 12-25 11-17 6-10 16-16 15-11 11-4 18-10 16-8 18-7 21-6 24-5z" fill="#02589F"/>
<path transform="translate(631,7)" d="m0 0h146l-2 6-12 27-8 16-6 17-4 14-10 23-13 27-16 37-9 20-8 16-9 21-9 23-4 15-14 29-19 44-16 34-13 30-12 30-10 26-15 35-8 18-5 3h-141l-5-2-3-8-10-35-7-25-11-36-11-40-9-30-10-46-7-24-9-30-13-46-8-26-12-42-15-52 2-1 11 6 18 10 18 13 14 10 14 11 14 12 7 7 3 2v2l4 2 10 10 9 11 12 14 12 15 6 10 12 19 7 11 9 20 7 15 5 10 8 36 7 32 1 2 4-10 13-34 4-18 8-18 11-27 13-33 18-43 12-31 10-23 4-12 4-15 10-27 8-20 6-12 10-24z" fill="#02589F"/>
<path transform="translate(834,6)" d="m0 0h89l52 1-1 9-12 66-6 34-8 44-9 50-12 68-13 74-6 32-3 28-3 25-12 69-2 10-3 2h-132l-5-1v-10l6-42 13-72 14-80 9-49 18-103 7-39 8-45 5-43 4-25z" fill="#02589F"/>
<path transform="translate(296,937)" d="m0 0h75l1 1 1 19 1 68v62l2-3 9-24 19-57 11-28 11-33 2-4 2-1h81l1 2-6 34-4 23-6 35-8 45-5 26-3 22-6 32-5 29-1 2h-51l-1-5 9-53 5-31 2-28 6-40 5-30-7 19-3 10-3 16-9 26-8 18-13 38-11 28-12 31-1 1h-33l-2-6-1-60-1-23-2-97-3 17-7 43-7 35-7 43-7 37-1 10-1 1h-48l-1-5 14-78 5-30 3-34 6-37 8-45 4-20z" fill="#FCFAFA"/>
<path transform="translate(1751,937)" d="m0 0h51v9l-4 25-11 65-13 75-2 32-7 43-1 1h-52l-1-2 1-7v-8l-10 9-5 3-4 4-14 4-7 1h-11l-12-2-12-5-10-7-9-9-5-13-4-6-6-18v-8l-1-7v-22l2-17 7-24 4-12 2-9 8-14 9-11 7-8 7-5 10-3 9-4 15-4h9l11 2 12 4 15 8 8 7 3 3 1-14 8-43 1-12z" fill="#FCFBFB"/>
<path transform="translate(569,981)" d="m0 0h35l16 4 15 6 10 5 7 8 5 11 3 12v28l-2 18-2 8-4 24-3 23-4 22-5 33-1 4h-46v-18l-7 8-16 8-13 5-15 2-14-1-12-6-12-12-8-13-4-12-1-16 3-20 5-13 6-11 7-7 2-5 12-5 12-6 23-6 12-1h32l1-5v-13l-4-6-4-3-8-3h-33l-24 4-12 3-5 1 5-31 2-12 6-3 28-7z" fill="#FCFBFB"/>
<path transform="translate(1411,981)" d="m0 0h33l14 3 15 6 12 6 8 9 5 12 2 9v29l-4 28-10 64-4 25-3 15h-43l1-20-8 8-10 7-12 5-11 3-18 1-9-1-14-7-11-10-8-14-4-13v-21l3-16 5-11 6-11 12-11 19-9 8-4 16-4 17-1h30l2-8v-8l-3-7-5-4-12-3h-30l-20 3-15 4-5 2 2-17 4-26 4-3 16-5z" fill="#FCFBFB"/>
<path transform="translate(314,6)" d="m0 0h18l38 1 14 2 17 5 12 8 8 9 8 13 2 8 3 29 6 31 7 30 6 29 12 53 9 42 2 11-1 3-8-16-8-18-5-9-13-21-9-14-9-12-12-14-9-11-12-13-5-4-14-14-11-9-18-14-19-13-10-7-24-14-9-5-14-9-14-7-27-11-14-4-13-4-57-19-2-2-1-5 1-3 2-1z" fill="#FEAE35"/>
<path transform="translate(974,981)" d="m0 0h25l15 4 9 4 14 6 8 8 6 10 6 14 2 8 1 9v19l-3 25-3 13-1 1-106 1v12l2 8 3 6 5 6 10 6 19 5 18-1 23-5 13-4 8-3-1 13-7 35-5 3-12 3-19 3h-35l-17-3-12-4-15-8-10-9-7-8-4-8-6-20-2-9-1-24 1-21 5-21 3-9 2-11 7-14 8-11 14-14 6-3 10-4 16-6z" fill="#FCFBFB"/>
<path transform="translate(1288,930)" d="m0 0h13l19 3 26 7 10 4-2 13-6 38-5 1-7-2-11-2-17-4-14-1-15 4-14 4-9 8-10 13-7 14-5 15-3 19v26l4 16 5 12 9 11 10 6 7 3 15 2 16-2 18-7 9-4h2l-6 36-2 11-3 9-4 2-12 3-6 2-14 1h-16l-15-2-17-5-9-5-10-9-8-7-12-13-7-14-5-15-4-23v-30l3-25 5-20 7-20 6-10 12-16 10-13 6-8 12-9 16-8 11-4 17-4z" fill="#FCFAFA"/>
<path transform="translate(732,981)" d="m0 0h36l30 3v8l-7 37-1 1-23-1-10-1h-11l-11 4-6 5-1 2v13l7 6 13 8 15 8 8 4 6 5 7 12 3 11 1 1v33l-2 9-8 14-10 11-9 6-16 7-15 3-13 1h-16l-20-1-16-3-11-3 1-10 5-33 1-1 9 1 14 4 9 1h26l10-3 6-4 4-7v-8l-4-6-8-6-25-13-9-7-9-8-9-12-2-4-1-6v-26l3-14 7-16 5-6h2v-2l5-4 10-3 11-5z" fill="#FCFBFB"/>
<path transform="translate(828,953)" d="m0 0h52l-5 26-1 6 27 1-1 11-3 19-2 13-2 4h-27l-2 14-8 43-3 17-2 13v12l4 6 7 3h16l5-1 1 5-3 14-4 24-2 2-22 5-17 1-10-1-10-4-10-8-5-7-4-11-1-6v-15l4-30 5-30 4-21 10-59 5-26 3-19z" fill="#FCFBFB"/>
<path transform="translate(1171,983)" d="m0 0 14 1v3l-4 6-4 8-8 25-4 16-13 2-6 3h-2l-2 8-8 20-5 17-7 38-1 11-4 18-4 27-1 1h-51l-1-3 4-31 1-17 4-29 6-36 5-31 7-52 2-2h50v10l-2 11 1 4 5-10 3-5 5-3 11-7z" fill="#FCFBFB"/>
<path transform="translate(1614,983)" d="m0 0h8l2 2-3 6-3 4-3 16-5 17-2 13-4 2-13 2-6 4-7 11-8 21-7 34-11 64-1 7-1 1h-52l1-10 8-47 13-80 5-34 4-29 1-1h46l1 1-1 17-1 7h2l2-5 9-10 5-3 13-8z" fill="#FCFAFA"/>
<path transform="translate(1653,148)" d="m0 0h2l3 13 8 36 9 38 9 41 6 25 4 23v14l-1 1-113-1 3-9 16-40 12-28 4-13 4-16 12-31 8-18z" fill="#FCFBFB"/>
<path transform="translate(1696,1032)" d="m0 0 10 1 9 5 7 10 3 9 1 6v20l-3 16-6 17-6 10-9 9-10 6h-14l-9-4-5-6-5-11-3-16v-9l4-23 5-14 5-7 3-5 8-8 10-5z" fill="#FD9803"/>
<path transform="translate(1223,956)" d="m0 0 2 1-8 11-12 15-7 10-6 10-9 27-4 20-2 18v30l4 23 7 20 6 10 7 7 7 8 14 12 11 6 19 5 11 1h16l14-1 8-2-1 9-3 4-13 3-20 2h-22l-17-3-19-9-12-9-9-9-10-13-8-16-4-14-4-25v-21l3-26v-3l-15 2-6 2-3 3 3-9 3-8 8-4 5-1h8l4-20 9-26 7-10 12-1 2-4 6-8 6-5 5-5z" fill="#00066A"/>
<path transform="translate(1638 1e3)" d="m0 0 3 1-9 9-9 13-6 12-3 12-6 19-4 17-1 11v22l1 14 5 16 4 8 3 5 3 9 10 10 14 8 9 3 9 1h11l15-3 8-3 5-5 9-7 4-3v9l-1 8 38 1-1 12-2 3h-51l1-10 1-6-8 7-9 6-14 5-4 1h-23l-12-3-10-5-11-12-8-11-6-13-5-16-2-9v-30l5-26 8-25-18 6-5 3 2-6 8-11 8-4 13-2 8-14 5-10 10-10 7-5z" fill="#00066A"/>
<path transform="translate(914,1018)" d="m0 0v3l-7 14-4 18-4 16-2 7-1 28 1 17 5 20 5 14 7 9 8 8 14 8 9 4 16 4 8 1h35l19-3 4 1-4 11-9 3-18 3-10 1h-35l-17-3-12-4-11-6-8-8-10-14-8-17-2-3v-9l-3-3-1-9v-34l5-21 7-19 15-30z" fill="#000569"/>
<path transform="translate(822,967)" d="m0 0h3l-1 12-7 37-8 49-4 18-7 46-1 10v15l3 12 4 8 4 5 10 7 8 3 12 1 15-1 9-1v7l-4 5-13 4-12 2h-17l-15-4-9-6-5-6-5-12-4-16 8-16 1-6 1-39 3-16 2-14 5-31 8-48 4-18 2-4 4-2z" fill="#00056A"/>
<path transform="translate(333,34)" d="m0 0 4 2 6 2v-2l4 1 2 4 6 1 2 2h3l-2-3 5-4 2-2h8v2h6l2 1 4-1 6 5 4 2 2 5 5 2 2 9h2l2 8v6l-2 3v9l-2 2h-5-2l1 1h8v2h2l1 7-10 5-7-2 1-9h-6l-3-5-4-1-8-1-2 4h-2l1-5-3-3h-4v2h-5l-2-4-7-2v-2l-6-1-6-3v-2h-8l-5-2-7-4-2-3-1-5-5-2-2-4-2-1v-7l-5-1-1-4 2-1 3 2v2l10 1 1-4 5 2 3-1 8-1z" fill="#FE9902"/>
<path transform="translate(291,950)" d="m0 0 2 1-8 47-6 36-2 14-2 26-12 70-7 38v4l36 1-2 5-2 9-7 2h-39l-2-2v-13l10-50 9-55 6-32 7-43 2-16 2-22 2-14 2-3z" fill="#000469"/>
<path transform="translate(502,1091)" d="m0 0 1 3-7 14-3 15-1 17 2 12 5 12 8 11 9 9 12 6 14 1 15-2 16-6 14-8 5-6 2-3-1 21h33l-2 14-7 2h-36l-2-2 1-14-4 1-10 7-14 7-11 3-6 1h-17l-14-4-9-6-5-4-8-13-5-12-2-8v-13l5-27h2l1-5 6-9 7-9z" fill="#00066A"/>
<path transform="translate(1515,997)" d="m0 0h13l-2 19-7 47-12 73-7 41-2 10h39v15h-55l1-6 3-16 4-26 12-72 4-26 7-55z" fill="#00066A"/>
<path transform="translate(1085,995)" d="m0 0 2 1-9 64-4 23-6 36-2 17-2 27-3 23 38 1-1 3-1 12-5 1h-48l-1-5 3-15 5-29 12-72 1-25 5-42 2-15 1-2z" fill="#000469"/>
<path transform="translate(1342,1091)" d="m0 0 2 1-7 14-3 11-1 8v21l4 13 6 11 8 9 11 7 7 3 17 1 14-2 12-4 10-5 10-8 6-5-1 14-1 7h30l-2 11-2 4h-41v-17h-3l-9 8-15 8-17 4h-18l-12-3-12-7-9-10-7-13v-9l6-34 1-2-4 2h-3l2-9 8-15 8-10z" fill="#00076B"/>
<path transform="translate(337 1e3)" d="m0 0h1l2 98 1 23 1 60 1 5 23 1v3l-4 11-7 2h-26l-4-1-1-3v-47l-1-16-1-54 5-27 4-24 4-27z" fill="#000268"/>
<path transform="translate(443,998)" d="m0 0 1 4-7 40-4 28-2 28-8 49-6 35v4l38 1-2 14-6 2h-47l-1-1v-7l4-17 10-60 3-17 4-20 1-12 9-28 3-16 9-25z" fill="#00066A"/>
<path transform="translate(677,1009)" d="m0 0 2 1-6 15-2 11v26l2 8 4 6 9 11 11 9 33 18 7 8 1 2v8l-5 8-6 4-4 1-4-9-5-5-12-7-16-8-10-7-7-8-6-10-5-13v-15l1-8 1-20 6-9 6-12z" fill="#000469"/>
<path transform="translate(657,1073)" d="m0 0h1l4 13 6 12 7 9 9 7 15 8 12 6 8 6 4 8-1 4-5 1h-26l-12-2-15-4h-5l-2 12-2 1h-11l2-17 2-9 3-23 5-30z" fill="#D6160B"/>
<path transform="translate(1419,1095)" d="m0 0h22l1 1-1 15-5 14-6 10-8 8-11 5h-17l-6-4-4-6-1-4v-15l3-8 5-5 5-4 9-4z" fill="#FD9703"/>
<path transform="translate(580,1095)" d="m0 0h18v10l-3 14-4 14-7 8-8 5-5 2h-17l-7-5-4-7v-18l5-10 9-7 11-4z" fill="#D5130B"/>
<path transform="translate(1364 1e3)" d="m0 0h1l-1 11-3 25 11-4 20-4 8-1h30l14 4 6 7 1 4v8l-2 8-1 1h-11l-3-3-4-7-11-5-6-1h-30l-26 5-12 3-1-4 7-41 4-3z" fill="#000469"/>
<path transform="translate(648,1153)" d="m0 0h7l1 1-1 12-3 18 7 1 12 3 8 1 20 1h16l20-2 13-4 8-4h2l-2 5-5 5-9 7-12 5-15 3-10 1h-25l-39-4-5-2-1-4 1-8 3-1 2-16 3-17z" fill="#00076B"/>
<path transform="translate(521,999)" d="m0 0h1l-1 10-4 26 4-1 22-5 14-2h33l10 4 6 7 1 2v13l-2 6h-11l-2-2-3-7-5-4-8-2h-33l-22 3-16 4-2-2 1-10 7-32 3-5z" fill="#000569"/>
<path transform="translate(1696,1032)" d="m0 0 10 1 9 5 7 10 3 9 1 6v20l-3 16-6 17-6 10-9 9-3 1 2-5 5-14 2-9 1-9v-23l-4-13-6-9-8-6h-14l-6 2 2-4 8-8 10-5z" fill="#00066A"/>
<path transform="translate(979,1026)" d="m0 0h11l10 4 6 8 3 10v14l-2 2h-41l-15-1 1-6 5-12 5-8 9-8z" fill="#000569"/>
<path transform="translate(422,951)" d="m0 0 1 2-11 33-9 23-20 60-7 18h-3l1-36 5-12 3-10 9-25 9-24 9-26 4-2z" fill="#000569"/>
<path transform="translate(947,1102)" d="m0 0h94l-2 12-3 4-3 1h-85l-2-4v-12z" fill="#000368"/>
<path transform="translate(395,14)" d="m0 0 11 3 9 7 8 10 6 10 2 8 3 29 6 31 7 30v10l-2-2-6-8-5-18-3-8-2-15-2-1-2-16-4-12v-10l-2-10-4-9-4-4-4-6-9-10v-3l-3-1z" fill="#FE9B07"/>
<path transform="translate(1419,1095)" d="m0 0h22l1 1-1 15-5 14-6 10-8 8-3 1 3-9 3-15v-8h-31l-8 1 2-4 5-5 12-6z" fill="#00086B"/>
<path transform="translate(580,1095)" d="m0 0h18v10l-3 14-4 14-7 8-4 2 4-19 1-11-1-1h-24l-15 2 3-6 9-7 11-4z" fill="#00086B"/>
<path transform="translate(1294,986)" d="m0 0 14 1 21 5 5 2-3 15-4 2-11-5-17-6-8-1h-17l-13 4-6 4-2 1 2-5 10-9 21-6z" fill="#000569"/>
<path transform="translate(1799,1153)" d="m0 0 9 1 6 4 3 5 1 11-3 6-7 6-10 1-6-3-6-7-1-3v-8l5-9 5-3z" fill="#FE9E0F"/>
<path transform="translate(1437,1166)" d="m0 0h1l-1 14-1 7h30l-2 11-2 4h-41v-17l-3-2 5-5 9-7z" fill="#000268"/>
<path transform="translate(1797,1315)" d="m0 0h11l8 7 1 2v12l-5 7-7 4h-8l-7-4-4-6-1-3v-7l4-7 5-4z" fill="#FCFBFB"/>
<path transform="translate(965,1041)" d="m0 0h12l6 4 5 6 5 10-1 3h-26l-15-1 1-6 5-12 3-3z" fill="#D6190C"/>
<path transform="translate(746,1027)" d="m0 0h11l18 2 1 1v13l-5 3-27-2h-17l1-7 7-6z" fill="#000569"/>
<path transform="translate(1738,952)" d="m0 0h11l-1 9-7 39-1 7-3-1-5-6-4-3 4-27 3-15z" fill="#00066A"/>
<path transform="translate(458,203)" d="m0 0h1l1 7h2l10 47 3 12 1 11-3-3-7-16-9-18-1-13v-7l1-4z" fill="#FE9C0A"/>
<path transform="translate(1799,1153)" d="m0 0 9 1 6 4 3 5 1 11-3 6-7 6-10 1-6-3-6-7-1-3v-8l5-9 5-3zm-2 5-6 5-1 2v9l4 6 3 2h9l6-5 1-2v-10l-5-6-3-1z" fill="#FCFBFB"/>
<path transform="translate(284,65)" d="m0 0 6 1 10 5 10 9 6 3 6 5 1 4-2 1-1 3-10-7-21-12-4-2-2-9z" fill="#FE9B07"/>
<path transform="translate(866,1033)" d="m0 0h19l2 2-2 10-3 3-8 1h-11z" fill="#00086B"/>
<path transform="translate(1797,1315)" d="m0 0h11l8 7 1 2v12l-5 7-7 4h-8l-7-4-4-6-1-3v-7l4-7 5-4zm1 3-6 4-3 5v8l5 6 4 2h7l5-2 4-6v-9l-4-6-3-2z" fill="#FEA621"/>
<path transform="translate(337 1e3)" d="m0 0h1l2 98 1 23v55h-1l-1-52-1-19-1-58-1-29-2-1 1-13z" fill="#02589F"/>
<path transform="translate(1799,1163)" d="m0 0 7 1 1 2v7l-2 3h-8l-2-3 2-9z" fill="#FCFBFB"/>
<path transform="translate(1806,1164)" d="m0 0 2 1 1 8h2l1 4-6 5h-9l3-1-3-3-3-2 2-3 1 2h8l1-2z" fill="#FEAD33"/>
<path transform="translate(1787,1325)" d="m0 0h1v10h2l4 5 3 3 3 1v2l7-2v2l-2 1h-8l-7-4-4-6-1-3v-7z" fill="#FE9F10"/>
<path transform="translate(1799,1324)" d="m0 0h5l1 1v9l-1 2h-6l-2-2v-7z" fill="#FFAF36"/>
<path transform="translate(465,256)" d="m0 0 3 4v2h3v-5l2 4 3 16-1 3-10-20z" fill="#FEAB2E"/>
<path transform="translate(1794,1316)" d="m0 0 13 1v1l-9 1-5 3-3 5-1 8h-1l-1-9v-3l5-6z" fill="#FEAB2D"/>
<path transform="translate(385,146)" d="m0 0 4 1 5 3v2l4 2 3 3-1 5-13-13-2-1z" fill="#FE9903"/>
<path transform="translate(1813,1335)" d="m0 0 2 4-5 5-10 2v-2l-4-1 2-1h7l5-1 2-4z" fill="#FFAF36"/>
<path transform="translate(1791,1167)" d="m0 0h2l2 9 5 3v2h-5l-4-5z" fill="#FE9C0B"/>
<path transform="translate(443,998)" d="m0 0 1 4-3 17-2-4-1-5z" fill="#01529B"/>
<path transform="translate(1007,1044)" d="m0 0 2 4v14l-2 2-12-1v-1l11-1 1-2z" fill="#02589F"/>
<path transform="translate(1814,1324)" d="m0 0h3v12l-1 2h-2z" fill="#FEA014"/>
<path transform="translate(676,1012)" d="m0 0 1 2-5 15-1 7h-1l-1-8 5-13z" fill="#02589F"/>
<path transform="translate(1576,994)" d="m0 0h1l1 9 2 3-3 5h-2z" fill="#FEAD31"/>
<path transform="translate(328,93)" d="m0 0 5 2 1 4-3 1-3-1v-3l-2-1h2z" fill="#FE9902"/>
<path transform="translate(1795,1342)" d="m0 0 5 2v2l7-2v2l-2 1h-8l-4-2v-2z" fill="#FE9D0B"/>
<path transform="translate(1712,1169)" d="m0 0h1v9l-5-2-2-1z" fill="#02589F"/>
<path transform="translate(1792,1162)" d="m0 0 2 4h2l-1 7-2-2v-4h-2v7h-1v-9z" fill="#FFAF36"/>
<path transform="translate(374,1064)" d="m0 0h1l1 23h-3z" fill="#02589F"/>
<path transform="translate(1789,1335)" d="m0 0 7 6-3 3-3-1-2-4z" fill="#FEAC2F"/>
<path transform="translate(438,203)" d="m0 0 5 1v2h2v2l-6 1-2-4z" fill="#FE9902"/>
<path transform="translate(1437,1166)" d="m0 0h1l-1 14h-1l-1-9-2-1z" fill="#02589F"/>
</svg>
