<svg width="32" height="11" viewBox="0 0 32 11" fill="none" xmlns="http://www.w3.org/2000/svg">
<g clip-path="url(#clip0_527_5031)">
<path d="M16.5496 3.616C16.5314 5.0555 17.8325 5.85875 18.8126 6.33637C19.8196 6.82637 20.1579 7.14062 20.1539 7.57887C20.1464 8.2495 19.3506 8.5455 18.606 8.557C17.3069 8.57712 16.5515 8.20625 15.951 7.92575L15.483 10.1156C16.0855 10.3932 17.2011 10.6354 18.358 10.646C21.0736 10.646 22.8503 9.3055 22.8599 7.22712C22.8705 4.58937 19.2114 4.44337 19.2364 3.26437C19.245 2.90687 19.5861 2.52537 20.3336 2.42837C20.7036 2.37937 21.725 2.34187 22.883 2.87512L23.3375 0.756371C22.7148 0.529621 21.9144 0.312496 20.9179 0.312496C18.3619 0.312496 16.5641 1.67125 16.5496 3.616ZM27.7048 0.494996C27.2089 0.494996 26.791 0.784245 26.6045 1.22812L22.7254 10.4904H25.439L25.979 8.998H29.295L29.6082 10.4904H32L29.9129 0.494996H27.7048ZM28.0844 3.19512L28.8675 6.9485H26.7227L28.0844 3.19512ZM13.2595 0.495121L11.1205 10.4902H13.7064L15.8444 0.494871H13.2595M9.43412 0.494871L6.74263 7.29825L5.65387 1.51362C5.52612 0.867871 5.02163 0.494996 4.46138 0.494996H0.061625L0 0.785246C0.90325 0.981246 1.9295 1.29737 2.55125 1.63562C2.93175 1.84225 3.04025 2.02287 3.16525 2.51387L5.22738 10.4904H7.96L12.1495 0.494996H9.43412" fill="url(#paint0_linear_527_5031)"/>
</g>
<defs>
<linearGradient id="paint0_linear_527_5031" x1="14.7117" y1="10.8533" x2="15.0108" y2="0.24063" gradientUnits="userSpaceOnUse">
<stop stop-color="#222357"/>
<stop offset="1" stop-color="#254AA5"/>
</linearGradient>
<clipPath id="clip0_527_5031">
<rect width="32" height="10.375" fill="white" transform="translate(0 0.3125)"/>
</clipPath>
</defs>
</svg>
