<?xml version="1.0" encoding="UTF-8"?>
<svg version="1.1" viewBox="0 0 1600 908" width="1280" height="1280" xmlns="http://www.w3.org/2000/svg">
<path transform="translate(0)" d="m0 0h1600v908h-1600z" fill="#7554B0"/>
<path transform="translate(159)" d="m0 0h1282l17 3 17 4 15 6 16 8 14 10 10 9 9 9 11 15 9 17 8 24 3 20v57l-1 113-1 59h-1l-3 19-2-2v-7l-2 2-1-2-2 2-1-3-2 5-8 4-1 3-6 4-5 5-9 5-11 3-27 2-2-1 1-2h2v-3l-11 3h-20l1 1v2l-2 1-19 2h-13l-9 1h-8l-1 3-3-1v-2l-7 1v1l-5 1-19 1-5-1h-15l-4 2-28-3-19-1-3 1-27-3 7 1v2l3-1h7l9 2 23 2 17 2v2l11-1 8 2 20 1 6 1h9l5 1h43l-1 3h-62l-8-1-29-2-16-2-33-3-4-1-14-1-16-3h-8l-4 1-11 1-4-1h-15l-8 1h-10l-6-1v-2l-8 1-3-3v2h-12l-5-1h-20l-8 1-7-1-4 1-5-2-10 1-2 1h-8l-1-1-10 1-7 2-10 2-14 2-3 1h-7l-5 1-3-1-7 1h-16l-16 1h-11l-27 3h-11l-11 1h-39l-15 2-6 1-4-1h-14l-17 1-17 2h-27l-8-2h-36l-6-1h-63l-12 1-2 2v-2l-20 3-5 2-9 2 3 3 1-2 4 3-1 4h-3l-3-3-8-3-1-3-11-3-11-1-11 2-24 3h-11l-2-4h-21l-16 6-3 1-2 5-4 1-3-2v-2h-9l-10-7-4-1h-12l-9 2-13-1-8-1-12 2-34 2-5 1-12-2h-23l-10-1h-15l-19-3h-28l-14-3-11 1h-19l-15 2-12 1-2 1-15 2-5 1 1-2-6-2-6 2h-4l-1 3h-2l-2 5-4 2h-10l-3-3-10-3-9 2-10 7-6 3h-3v2l-4 2-2-1-4 2h-5l-1 5h-3v2l-12 3v-2l-8-1-20 4-2 2h-4l-6-12-4 2-2-3h-2l-4 6-2-1-4 6-2 5h-1l-1-142v-191l3-20 5-17 9-19 9-14 9-11 6-7 13-10 15-10 17-8 15-5 21-4z" fill="#B2446A"/>
<path transform="translate(1567,693)" d="m0 0h1l2 10v77l-3 19-7 21-11 21-9 12-9 10-11 10-15 10-21 10-18 6-19 3-1275 1-20-1-19-3-20-6-16-8-11-7-10-8-10-9-12-14-9-14-8-16-5-15-3-15-1-8v-23l1-8v-44l2 3 4 9 2 4 3 5 4 8v3l4 1 9 4 4 1 8-2 10 3h16l1 1h14l7-2 8-1 5-4 20-2 13-3h20l10-1 4-2 8 2h15l9-3h32l10 1 8 3h11v2l21-2 28 1 4-1h23l10-2 6-1h14l15 1 6 1 10-1v2l6 1 18-2 7-3h9l16-2 17 1 13-2v2l6-1h9l5 1 4-1 1 1 19-3h7l7-1 9 2h19l16-3 5-1 12 2h7l10-2 10 1v2l7-3 6-1h20l14-1 7-2 7-1h11l10-1 7-4h8l-1-2 13 3 6-1 31 31 8-4 7-3 3-1 23 1 19-2h21l6-1 4 1 11-3 5 2h18l12-2h17l13-1v-2l24 1 5-1 4 1 7-3 12 2 9-1h4l2 2 1-3 2 2h12l3-3 11 1h13l8-1 5 2h12l6-1 32 1 21-1 6-1 22 1 11-1 16 1 4-2h10l8-1 18-1h33l16 1 5 3 8 1h14l33 2 2 1 31-1h12l6 1h14l1-1h9l6 1 9-1 9-3 6 2 4-1 3 3h19l14 5 4 4 13 3 1-4h8l7-1v-2l4-1v4l4-4 1-2 3-1 1-2h2v-11l2-20z" fill="#5456C8"/>
<path transform="translate(0)" d="m0 0h159v1l-21 3-16 4-19 8-14 8-16 12-7 6-11 14-10 16-8 17-5 17-3 20v191l1 138 3-4 9-9 3 1 1 2 5-2 5 10v3l5-2 7-2 14-3 5 1 4 2 6-2h5v-2h3l1-5 10-3h3 2v-2l12-6 9-6 7-1 10 3 3 3h10l4-2 2-4 3-3 12-3 5 2v2l9-2 9-1 7-1 18-2 7-1h20l7-1 16 3h28l17 3h15l10 1h24l12 2 4-1 34-2 16-2 12 2 10-1 4-1h12l7 3 8 5 8 1v2l5 1 7-7 13-5 3-1h15l6 1 2 3h11l24-3 13-2 14 2 7 3v3l5 1 6 3 2 2 1-4-3-2h-4v-3l10-2 8-3 16-1 2-1 16-1h59l7 1h35l8 2h27l18-2 23-1h7l7 1 9-2 16-1h37l6-1h14l26-3h17l8-1h20l4-1 3 1 4-1h9l5-2 15-2 15-3 8-1v2l13-2 8-1 5 2 7-1 7 1 10-1h14l17 2v-2l6 3 1-2 10 3h15l7-1h11l5 1 10-1 1-1h11l16 3 14 1 16 2 33 3 14 2 19 1 8 1h62l-4-1h-41l-6-1h-7l-4-1-21-1-10-2h-8v-2h-11l-17-2-14-1-7-2h-10l-2-1-6-1 2-2 26 3 2 1 1-2 30 2 17 2 4-2h15l10 1 14-1 7-3 5 1v2h3l1-2 13-1 9-1h12l17-2v-2h-2l1-2h22l9-2v3h-2l1 2 27-2 13-4 9-6 8-7 5-5 5-1 2-8 2 4 2-3 1 3 1-9h1v16l2-9 1-14h1l1-53 1-113v-57l-3-20-8-24-9-17-9-12-9-10-8-8-17-12-16-8-18-7-21-4-10-2v-1h159v908h-1600zm1566 481-1 7-3-1-3 10-3 6-1-5-8 4v-7l-9 5-6 4v2l-4 1-3 3-10 4h-12l-3-1-7 1-9-3-5 1-4 2-2-1h-12l-8 3-5 1h-17l-9-3-1 1h-5l-5 2-8 1-2-1-13-1h-5l-5-1-4-1-3-1-10 3h-5v-2l-3 1-1-1-1-2-4-1-1-4h-14l-3-1h-13l-9 1v3l-4 1v-4l-12 2-4-1h-19l-4 6-2-2 3-3-14-1-5-1-6 2-2-1h-41l-12 1-12 2h-16l-5 1-6-2-13 1h-15l-14 1-3 1-11 1-17 6-6 1-10 3-17 2-18-2-7 2-11 3-13 1-12-3h-17l-9-1h-14l-10-2h-13l-16 2-25 1-7-1-12-1-21-1h-18l-8-1-12 2-26 4-11 1-16-1-7-1-20 1-18 1-14-2-10 2-19 2h-18l-8-3h-10l-7 1-10-1h-15l-15 5-6 1h-16l-13-1h-13l-6-2v-2l-7-1-13-2-7 2-1 5-4-1-2 1h-8l-26-5-9 1-30-8-37-9-17-3h-11l-5 1h-13l-2-2-4-1-18 1-4 2h-8l-12-3-13-5-3-2-3 2v2h-6l-5 4v2l-8-2-8 1-11-2-19-1-13 1-9-3-9-2-2-4-12-1-8-4-5-7-1 2 4 6-1 3-8 4-19 2h-24l-3 1-6-2-6 1-5 3h-8l-3 2v2l-6 2-10 6-2-1-2 1-2-2-5 3-1-4-2 1-5-10-2-8h-1l-1 67-1 160v36l2 25 4 18 6 16 7 14 9 13 12 14 12 11 16 11 16 8 18 6 14 3 9 1 20 1 1275-1 19-3 18-6 21-10 12-8 11-9 10-10 11-15 11-21 7-21 3-19v-77l-1-58-1-143-1-21z" fill="#8D5199"/>
<path transform="translate(146,487)" d="m0 0 8 8 6 3 12 1 2 4 15 4 8 1 10-1 17 1 12 2 7-1 8 2 2-4 3-2h6l1-3 3-1 4 3 18 6 5 1h8l4-2 18-1 5 2 1 1h13l5-1h13l36 8 43 11 21 6 40 14 29 11 31 13 26 12 42 22 27 16 21 13 12 8 23 16 16 12 17 13 11 9 6 5v2l4 2 6 5 2 4-5 1-12-3 1 2h-9l-7 4-10 1h-12l-11 2-7 1-17 1h-16l-5 3h-4v-2h-10l-10 2h-7l-13-2-9 2-11 2h-19l-12-2-10 1-14 2-8 1h-3l-9-1h-11l-1-1-13 2-20-1-13 2h-8l-7 3-20 2-4-2v-2l-10 2-21-2h-14l-17 3h-22l-7 1-25-1-11 1h-10l-1-1h-10l-8-3-12-1h-30l-5 2-4 1h-15l-10-2-2 2-14 1h-16l-20 4-13 1-5 4-13 2-2 1h-14l-1-1h-16l-12-3-8 2-8-4-7-3-12-24-2-5v42l-2 13h-1v-36l1-160 1-67 2 3 3 10 3 3v2l3-1v4l6-3 1 2 3-1h3l12-7h2l1-3 2-1h9l6-4 7 1 4 1 2-1h24l19-2 9-5-2-4z" fill="#6A4CA0"/>
<path transform="translate(0)" d="m0 0h159v1l-21 3-16 4-19 8-14 8-16 12-7 6-11 14-10 16-8 17-5 17-3 20-1 636 2 25 4 18 6 16 7 14 9 13 12 14 11 10 16 11 16 8 18 6 14 3 9 1 20 1 1275-1 19-3 18-6 21-10 12-8 11-9 9-9 11-15 11-21 7-21 3-19v-77l-1-58v-350l1-113v-57l-3-20-8-24-9-17-9-12-9-10-8-8-17-12-16-8-18-7-21-4-10-2v-1h159v908h-1600z" fill="#FDFEFD"/>
<path transform="translate(1386,60)" d="m0 0h19l16 4 9 3 1 5 8 11 6 14 2 8v12l-5 15-6 9-8 9v2l-16 6-14 3-14-1-16-8-12-11-7-11-3-13v-15l3-12 7-12 9-9 14-7z" fill="#D0233E"/>
<path transform="translate(1458,60)" d="m0 0 12 1 13 5 9 7 8 9 6 12 3 12v10l-4 13-7 12-9 9-10 6-13 4h-11l-16-4-10-4-2-3 5-5 7-8 6-15 1-4v-12l-5-16-7-12-5-6 1-3 11-5 8-2z" fill="#DC906A"/>
<path transform="translate(159)" d="m0 0h1282l10 2v1h-1308v-1z" fill="#DC906A"/>
<path transform="translate(1428,69)" d="m0 0 5 5 8 13 5 14 1 4v12l-5 15-6 9-7 8-3 1-9-12-5-11-2-7v-19l4-13 7-12z" fill="#B2446A"/>
<path transform="translate(729,439)" d="m0 0h14l6 4 4 6 1 11-4 5 1 5 5 6v11l-3 6-5 4-6 2h-12l-8-5-5-6-1-2v-8l3-5 6-5-6-8v-10l4-6z" fill="#F9FBFB"/>
<path transform="translate(262,439)" d="m0 0h11l8 4 4 7v11l-4 5 2 5 5 5v9l-3 8-5 4-8 2h-10l-8-4-5-6-2-9 4-8 5-3-1-4-4-4-1-8 3-7 4-5z" fill="#F9FBFB"/>
<path transform="translate(1020,439)" d="m0 0h11l6 4 5 5 2 8-5-2-9-7-7-1-6 4-7 14 14-5 9 1 8 6 3 5 1 4v8l-3 8-8 7-10 2-9-3-7-7-3-7-1-5v-16l3-10 6-8 4-4z" fill="#FAFCFC"/>
<path transform="translate(551,439)" d="m0 0h12l6 4 5 5 1 7-4-1-9-7-7-1-6 4-5 8-3 7 12-5h11l7 4 4 5 1 4v13l-3 6-7 6-3 1h-12l-6-4-7-8-2-8v-19l4-10 9-10z" fill="#FAFCFC"/>
<path transform="translate(1285,84)" d="m0 0h6l4 6 6 25 2 11v9l-1 1-7-1-5-6h-16l-2 5-2 1h-11l-1-2 13-33 6-11 5-4z" fill="#FCFDFD"/>
<path transform="translate(157,627)" d="m0 0 9 1 6 5 4 7v18l-3 10-7 6-8 1-7-3-4-5-3-8-1-9 2-11 6-9z" fill="#FAFBFC"/>
<path transform="translate(241,625)" d="m0 0h4l-2 9-7 27v3l3-11h3l3 3 10-1 2-1 4 2 4-3v2l4-4 4-7v-7l-3-3h-7l-6 6-5-1 1-4 4-6 3-1h15l4 5 2 8-3 9-11 12-4 3v2l9 1h10l1 4-6 2h-28l-4-4 2-1-2-5-2-1 1 5-8 9-10 1-1-2 6-21 4-17 5-12z" fill="#7454B0"/>
<path transform="translate(1146,84)" d="m0 0 18 1 4 2 4 13 2 16 4-6 9-20 4-5 3-1h9l-5 13-9 21-7 14-4 3h-7l-5-5-7-26-4-12-3-3-7-1-2-3z" fill="#FCFDFC"/>
<path transform="translate(926,439)" d="m0 0 5 1 1 1 1 37 7 2-1 5-5 2-1 9-2 2h-5l-1-11-26-2-1-4 11-19 7-10 9-12z" fill="#FAFBFB"/>
<path transform="translate(458,439)" d="m0 0 5 1 1 2 1 36 7 2-1 5-5 3-2 9-1 1h-5l-1-2v-10l-26-1-1-4 12-21 13-18z" fill="#F9FBFB"/>
<path transform="translate(1248,84)" d="m0 0 9 1 2 3v6l-1 1h-13l-4 1 1 5 12 9 3 4 1 7-4 8-6 6-4 1h-19l-4-4v-6l3-3 5 1 6 2 7-3v-5l-14-10-2-3v-7l4-8 6-4z" fill="#FBFDFC"/>
<path transform="translate(193,628)" d="m0 0h14l6 4 4 6v21l-4 9-5 4-5 2h-7l-5-3-4-4v-7l4 2 5 4h8l5-4 1-4h-16l-7-6-1-2v-13l4-7z" fill="#FAFBFC"/>
<path transform="translate(621,439)" d="m0 0h26l3 2-1 4-18 1-4 1-2 9-1 5h13l8 2 6 6 1 3v12l-3 7-4 5-6 3h-11l-8-4-4-5-1-7 5 1 6 5 4 2h7l4-2 3-6v-8l-2-5-4-2h-20l-2-2 2-19 2-7z" fill="#FAFBFB"/>
<path transform="translate(961,439)" d="m0 0h22l6 1 1 4-1 1-24 1-2 13-1 2h18l6 3 4 5 2 6-1 11-6 9-6 4-8 1-10-4-7-7-1-5 4-1 7 6 5 2h7l5-3 3-7-2-10-5-3-20-1-1-1 1-17 2-9z" fill="#FAFBFB"/>
<path transform="translate(493,439)" d="m0 0h25l3 1v5l-24 1-2 13-1 2h17l7 3 4 5 1 3v12l-5 10-7 5-8 1-9-3-6-5-3-5 1-4 4 1 8 6 2 1h8l5-3 2-4v-10l-3-5-3-1-21-1-1-4 2-15 1-7z" fill="#F9FBFB"/>
<path transform="translate(860,439)" d="m0 0h12l6 4 4 5 1 3v10l-3 3h-2l2 5 5 6v12l-5 8-8 4h-12l-8-4-6-7 1-5h3l7 6 7 3 6-1 6-4 2-6v-5l-4-2-13-4-2-4 1-1 14-3 1-2v-9l-2-4-8-1-7 3-7 6-3-1 1-7 8-7z" fill="#FAFBFC"/>
<path transform="translate(392,439)" d="m0 0h11l6 3 4 5 2 5v8l-5 5 2 5 5 6v10l-4 7-5 4-5 2h-11l-10-5-4-5v-5l3-1 8 6 6 3 8-1 6-5v-9l-5-4-11-3-2-2v-3h7l3-2 5-1 1-3v-7l-2-5-2-1h-7l-7 3-7 6h-2l-1-5 3-5 7-5z" fill="#F9FBFB"/>
<path transform="translate(781,439)" d="m0 0h13l6 4 4 5 1 2v10l-5 10-11 12-7 8 23 1 2 1-1 7h-22l-12-1-2-1 1-6 15-15 9-12 2-4v-10l-4-4-9 1-9 9-4 1-1-1v-6l7-9z" fill="#F9FAFB"/>
<path transform="translate(153,439)" d="m0 0h16l12 1v4l-2 1-19 1-2 1-2 15 12-1 8 2 6 5 2 6-1 13-4 6-5 4-4 2h-10l-8-4-4-5-1-7 6 2 6 5 7 2 6-3 4-6v-8l-3-6-3-1h-19l-3-2 1-13 2-12z" fill="#FAFBFB"/>
<path transform="translate(314,439)" d="m0 0h11l6 3 5 6 1 3v8l-4 9-11 12-9 11h23l3 2-1 5-1 1h-23l-11-1-2-4 7-9 10-10 9-11 2-5v-8l-2-4-2-1h-7l-5 3-8 7h-3l-1-4 3-6 7-6z" fill="#FAFBFB"/>
<path transform="translate(678,439)" d="m0 0h14l8 7 2 5v7l-4 10-9 10-7 8-4 4 7 1h15l3 2-1 5-2 1h-19l-14-1-1-4 9-10 8-9 10-14 1-2v-10l-4-3h-8l-6 4-4 6-4 1-1-5 4-8 4-4z" fill="#FAFBFB"/>
<path transform="translate(210,439)" d="m0 0h13l5 3 4 5 1 2v12l-6 10-10 11-7 8 6 1h15l4 2-1 4-3 2-31-1-2-1 1-5 10-11 5-5 10-13 2-4v-10l-3-3h-10l-5 3-3 6-5 1-1-5 3-7 5-4z" fill="#FAFBFB"/>
<path transform="translate(189,341)" d="m0 0h2v2h6l6 4 2 3 1 5v8l-3 6-3 3-10 1-6-3-4-5-1-3v-9l5-9z" fill="#F9FAFB"/>
<path transform="translate(1215,84)" d="m0 0 6 2-1 9-7 33-2 7h-11l-2-1 1-10 8-32 3-7z" fill="#FCFDFD"/>
<path transform="translate(158,633)" d="m0 0h6l4 5 2 6v11l-3 9-4 4-8-1-4-6-1-4v-13l3-8z" fill="#5456C8"/>
<path transform="translate(301,342)" d="m0 0h6l6 7 1 9-1 2-18 2 1 5 12-2 5-4-1 7-3 4-3 1h-8l-6-3-4-9v-7l3-8 5-3z" fill="#EAEDF3"/>
<path transform="translate(260,628)" d="m0 0h15l4 5 2 8-3 9-11 12-4 3v2l9 1h10l1 4-6 2h-19l-5-2 1-5 13-13 6-10v-7l-3-3h-7l-6 6-5-1 1-4 4-6z" fill="#F9FAFB"/>
<path transform="translate(158,333)" d="m0 0 8 1 4 5 1 6-10-5h-8l-1 6 2 2 10 2 7 5 1 2v9l-5 6-4 1h-10l-7-3-2-2v-5l2-1 6 4h11l3-2v-5l-1-1-9-2-11-6v-10l3-5z" fill="#F9FBFB"/>
<path transform="translate(1020,467)" d="m0 0h10l5 4 2 6-1 7-4 6-4 2h-8l-5-3-3-6v-8l3-5z" fill="#8C519A"/>
<path transform="translate(551,467)" d="m0 0h11l5 5 1 2v10l-6 7-2 1h-9l-6-5-1-3v-10l5-6z" fill="#8D519A"/>
<path transform="translate(264,471)" d="m0 0h10l7 8v6l-4 5-5 3h-8l-6-3-3-5v-6l4-6z" fill="#8D519A"/>
<path transform="translate(733,471)" d="m0 0h8l7 6 1 2v6l-5 6-4 2h-7l-7-3-3-7 1-5 4-5z" fill="#8C519A"/>
<path transform="translate(258,335)" d="m0 0 3 1 1 7 9-1 6 4 2 7v18l-7 1v-16l-1-7-1-1-8-1-1 25-5 1-1-2 1-34z" fill="#EAEDF3"/>
<path transform="translate(306,641)" d="m0 0 5 1 8 5 4 5 1 9-4 8-4 4-3 1h-11l-6-3-3-5 2-6 4 2 4 4 7 1 4-1 2-5-1-7-9-4z" fill="#FAFBFC"/>
<path transform="translate(551,439)" d="m0 0h12l6 4 5 5 1 7-4-1-9-7-7-1-6 4-5 8-2 7-2 3h-2l-1 11h-1v-19l4-10 9-10z" fill="#F8FAFB"/>
<path transform="translate(263,445)" d="m0 0h11l4 5v11l-5 4h-8l-5-3-3-4v-7l4-5z" fill="#8D529A"/>
<path transform="translate(732,445)" d="m0 0h9l5 5v11l-5 4h-7l-5-3-4-5 1-7z" fill="#8D529A"/>
<path transform="translate(860,439)" d="m0 0h12l6 4 4 5 1 3v10l-3 3h-2l-1 3-1-3-2-2 1-2v-9l-2-4-8-1-7 3-7 6-3-1 1-7 8-7z" fill="#ECEFF4"/>
<path transform="translate(200,632)" d="m0 0 7 1 3 4v11l-3 4h-10l-5-6v-6l4-6z" fill="#6B4DA1"/>
<path transform="translate(924,451)" d="m0 0 2 4v21l-1 3h-18l8-15 6-9z" fill="#8C519A"/>
<path transform="translate(456,451)" d="m0 0h1l1 5v10l-1 13h-18l7-14 6-9z" fill="#8D519A"/>
<path transform="translate(241,625)" d="m0 0h4l-2 9-9 34-4 10-5-1 6-22 4-17 5-12z" fill="#EAEDF3"/>
<path transform="translate(299,628)" d="m0 0h17l5 3-1 4h-17v9l2 7h-11l1-19z" fill="#EAEDF3"/>
<path transform="translate(1023,445)" d="m0 0 7 1 8 6-1 2-2-1-1 3-2 2v1l-12 2-10 3 3-9 6-8z" fill="#6C4C9F"/>
<path transform="translate(621,439)" d="m0 0h26l3 2-1 4-18 1-4 1-2 4-3 3v6l-5 1 1-14 2-7z" fill="#F9FAFB"/>
<path transform="translate(303,652)" d="m0 0h8l6 4-1 7-4 4-7 1-6-4-3-3v-7z" fill="#5856C3"/>
<path transform="translate(190,348)" d="m0 0h7l2 1 1 3v12l-2 3h-9l-4-4-1-4 2-8z" fill="#B0456C"/>
<path transform="translate(264,657)" d="m0 0h2v2h2l-2 4-3 2v2l9 1h10l1 4-6 2h-19l-5-2 1-5z" fill="#F8FAFA"/>
<path transform="translate(236,337)" d="m0 0 6 3-1 8-1 7v9l1 3 6 2v3l-6 1-5-2-1-2-2-25 1-6z" fill="#EAEDF3"/>
<path transform="translate(1026,474)" d="m0 0 8 6-5 5 3 2-2 4-2 1h-8l-5-3-1-1v-5l4-1 4 1v-6h2v-2z" fill="#7754AE"/>
<path transform="translate(172,638)" d="m0 0h3l1 2v18l-3 10-3 2-3-1-1-5 3-9v-14h2z" fill="#EAEDF3"/>
<path transform="translate(493,439)" d="m0 0h25l3 1v5l-24 1-2 5h-1v-6l-3-1v-4z" fill="#FAFBFB"/>
<path transform="translate(210,439)" d="m0 0h13v1h-10l1 4h11l4 6v9l-3 2v-12l-3-3h-10l-5 3-3 6-5 1-1-5 3-7 5-4z" fill="#EAEDF3"/>
<path transform="translate(781,439)" d="m0 0h13v1h-5v4l3 1-10 3-7 8-4 1-1-1v-6l7-9z" fill="#EAEDF3"/>
<path transform="translate(213,440)" d="m0 0h13l6 7 1 2v12l-5 9h-2v-4h-2l1-5 3-2v-9l-3-5-11-1z" fill="#FBFCFC"/>
<path transform="translate(314,439)" d="m0 0h11l-3 2-1 3 3 1-9 2-8 8-5 1-1-4 3-6 7-6z" fill="#EAEDF3"/>
<path transform="translate(292,359)" d="m0 0 3 1 1 7 12-2 5-4-1 7-3 4-3 1h-8l-6-3-3-6v-4z" fill="#F8FAFB"/>
<path transform="translate(322,440)" d="m0 0h6l7 6 2 5v8l-3 7h-2l-1-9-2-6-2-4-6-3z" fill="#FAFBFB"/>
<path transform="translate(789,440)" d="m0 0h7l7 6 2 4v10l-3 7h-2l1-10h-2l-2-7-5-5-3-1z" fill="#FBFCFC"/>
<path transform="translate(392,439)" d="m0 0h11v1h-5v4l3 1-9 2-10 8h-2l-1-5 3-5 7-5z" fill="#EAEDF3"/>
<path transform="translate(279,635)" d="m0 0 2 4-2 9-7 9-4 3-3-3 7-11 2-9 2 3z" fill="#EAEDF3"/>
<path transform="translate(675,440)" d="m0 0 14 4v1l-9 2-10 10-3-1 1-6 3-6z" fill="#ECEFF4"/>
<path transform="translate(158,633)" d="m0 0h6l4 5 2 6v11h-1l-2-13-2-3-5-1-5 3-3 7v7l1 4 4 1-1 2-2-1v2h-2l-2-6v-13l3-8z" fill="#6F4EA2"/>
<path transform="translate(330,452)" d="m0 0h1l2 11v5l-11 12-3-1 3-9 6-8z" fill="#ECEEF4"/>
<path transform="translate(694,491)" d="m0 0h6l3 2-1 5-2 1h-19l-4-2 10-3z" fill="#F9FBFB"/>
<path transform="translate(189,341)" d="m0 0h2v2h6l4 3h-2v3h-9l-4 4-1 6h-1l-1-5-3-3 4-7z" fill="#EAEDF3"/>
<path transform="translate(235,656)" d="m0 0h1l-1 9-4 12-5 1-1-2 5-17z" fill="#F7F9FA"/>
<path transform="translate(1284,101)" d="m0 0h2l2 15-1 2h-8l-1-4z" fill="#B9526A"/>
<path transform="translate(205,329)" d="m0 0 3 1-2 4-10 5h-3l-6 1-1-4 4-3 9-1z" fill="#F7F9FA"/>
<path transform="translate(208,490)" d="m0 0 8 1h15l3 2h-2l-2 4-4-1-1-3-6 1-1 2h-12l-2-1v-2z" fill="#EBEEF3"/>
<path transform="translate(780,490)" d="m0 0 25 1v1l-7 1 5 2-2 2h-11l-10-1v-4z" fill="#EAEDF3"/>
<path transform="translate(272,656)" d="m0 0h6l-2 6-2 2-2 1 1 2-1 2-9-1v-4z" fill="#6955B8"/>
<path transform="translate(881,448)" d="m0 0 2 3v10l-3 3h-2l-1 3-1-3-2-2 1-2 1-9 5-1z" fill="#EBEEF3"/>
<path transform="translate(398,440)" d="m0 0h8l6 5 1 6-6 1-2-5-7-3z" fill="#FBFCFC"/>
<path transform="translate(313,358)" d="m0 0h1v5l-4 2-5 2h-9l-1-5 11-2h7z" fill="#B0496F"/>
<path transform="translate(158,333)" d="m0 0 8 1 4 5 1 6-10-5-7-1 3-2v-2l-5 1-2-2z" fill="#EAEDF3"/>
<path transform="translate(798,451)" d="m0 0h1v6h2v11l-2 2h-2l-4 5h-3l-1-3 7-10 1-2z" fill="#EAEDF3"/>
<path transform="translate(413,449)" d="m0 0 2 3v8l-5 5-4-2 2-11 5-1z" fill="#ECEEF4"/>
<path transform="translate(299,347)" d="m0 0h7l2 9-13 1 2-8z" fill="#AF486F"/>
<path transform="translate(300,636)" d="m0 0h1l1 7 3 6v2h-11l3-12z" fill="#FCFDFD"/>
<path transform="translate(1038,461)" d="m0 0h5l3 3 1 5v15l-2 4h-1v-13l-3-8-3-3z" fill="#724D9D"/>
<path transform="translate(154,349)" d="m0 0h8l5 4 2 2-1 7-3-4-9-2 1-6z" fill="#EAEDF3"/>
<path transform="translate(209,648)" d="m0 0h1l1 10h-13l-2-5 1-1 10-1z" fill="#EAEDF3"/>
<path transform="translate(924,451)" d="m0 0 2 4v21l-2 2-1-12-3-9z" fill="#744EA0"/>
<path transform="translate(219,493)" d="m0 0h6l2 3 4-1 1-2h3l-1 4-3 2-19-1-2-2h8z" fill="#FAFBFB"/>
<path transform="translate(869,440)" d="m0 0 7 1 5 5v4l-6 1-2-4-3-1v-2l-2-1z" fill="#FAFBFC"/>
<path transform="translate(676,490)" d="m0 0 16 2-4 2-3 2-9 1-4-2v-2z" fill="#EAEDF3"/>
<path transform="translate(490,441)" d="m0 0 4 4 2 4-1 10-6-2v-9z" fill="#EAEDF3"/>
<path transform="translate(975,484)" d="m0 0 4 2-1 5-2 1h-7l-2-1v-2h-2v-2h3v-2z" fill="#7854AD"/>
<path transform="translate(237,359)" d="m0 0 2 3 2 5 6 2v3l-6 1-5-2v-11z" fill="#F9FBFB"/>
<path transform="translate(1022,455)" d="m0 0 7 3v1l-12 3-7 2 1-5 6-3z" fill="#8C519A"/>
<path transform="translate(274,436)" d="m0 0h7l3 2 2 2-1 4-6-1-8-4z" fill="#B2476C"/>
<path transform="translate(216,659)" d="m0 0 2 3v7l-4 5-7 1-1-3 6-4z" fill="#7454B0"/>
<path transform="translate(27,726)" d="m0 0h2l1 23-2 13h-1z" fill="#7555B1"/>
<path transform="translate(257,629)" d="m0 0h3v4l3 1-6 6-5-1 1-4z" fill="#EEF0F5"/>
<path transform="translate(223,464)" d="m0 0 1 2h2l1 5-3 2-3 1-3 4-4-1 6-9z" fill="#EAEDF3"/>
<path transform="translate(312,490)" d="m0 0 15 1 3 2-4 1-1 2h-12l1-2h3v-2h-6z" fill="#EAEDF3"/>
<path transform="translate(619,442)" d="m0 0 2 4 2 5-1 9-5 1 1-14z" fill="#EAEDF3"/>
<path transform="translate(192,640)" d="m0 0 3 1v3l2 1 1 3 4 2 5-1v3h-10l-5-6z" fill="#6F55B5"/>
<path transform="translate(798,492)" d="m0 0h9v5l-1 1h-15l2-2h9l-6-2z" fill="#FCFDFD"/>
<path transform="translate(303,634)" d="m0 0 5 2 2 3-2 2h-3v6h-2l-1-3v-9z" fill="#6350AE"/>
<path transform="translate(1020,467)" d="m0 0h10l5 4-1 3-3-2-7-2-7 1-2 1 1-3z" fill="#704D9E"/>
<path transform="translate(174,663)" d="m0 0 3 3 1 4-5 5-3-1 1-5z" fill="#7555B1"/>
<path transform="translate(168,656)" d="m0 0 1 4-4 7-7 1-3-2 8-1-1-4 5-3z" fill="#79529B"/>
<path transform="translate(306,641)" d="m0 0 5 1 4 2-2 6-5-2v-3l-2 1z" fill="#EAEDF3"/>
<path transform="translate(157,627)" d="m0 0 9 1 2 2h-9l-5 1v3l-4 2 2-7z" fill="#EAEDF3"/>
<path transform="translate(302,329)" d="m0 0 4 2v6l-5 4-1-8z" fill="#F6F8F9"/>
<path transform="translate(175,644)" d="m0 0h1v14l-2 6h-1v-14z" fill="#FAFCFC"/>
<path transform="translate(456,451)" d="m0 0h1v14l-2-1v-3h-2l-1-5z" fill="#6F4DA0"/>
<path transform="translate(1034,497)" d="m0 0 3 1-2 5-2 1h-8v-2l5-1 1-3z" fill="#7653AC"/>
<path transform="translate(1441)" d="m0 0h20l-3 3-14-1z" fill="#EAEDF3"/>
<path transform="translate(198,634)" d="m0 0h7l2 5-1 2-3-1v-2l-7-1z" fill="#5457C9"/>
<path transform="translate(308,348)" d="m0 0h3l1 11h-3l-2-5v-5z" fill="#FBFDFC"/>
<path transform="translate(190,333)" d="m0 0 5 1-2 2v3l-6 1-1-4z" fill="#F3F5F8"/>
<path transform="translate(87,498)" d="m0 0h10l6 1-4 2-6 1-4-1-2-1z" fill="#6A4CA0"/>
<path transform="translate(382,445)" d="m0 0 2 1v3l2 1-2 4-4 1-1-5z" fill="#F7F9FA"/>
<path transform="translate(272,656)" d="m0 0 1 2-5 5-1 5-5-1 2-4z" fill="#6E4EA4"/>
<path transform="translate(1315,509)" d="m0 0h5l1 5-4 1-4-2z" fill="#8E529A"/>
<path transform="translate(150,644)" d="m0 0h1l2 15 4 1-1 2-2-1v2h-2l-2-6z" fill="#7253AF"/>
<path transform="translate(205,449)" d="m0 0h2l-2 6-5 1 1-6z" fill="#FAFBFB"/>
<path transform="translate(958,442)" d="m0 0 1 4 3 1-2 5h-2l-1 4z" fill="#EAEDF3"/>
<path transform="translate(405,438)" d="m0 0h6l3 3v3l-6-2-3-2z" fill="#AE456E"/>
<path transform="translate(178,652)" d="m0 0h4v2l3 1-6 3h-2z" fill="#5457C9"/>
<path transform="translate(624,488)" d="m0 0h12v3h-8z" fill="#7554B0"/>
<path transform="translate(686,471)" d="m0 0 2 1v4l-8 4 2-4z" fill="#ECEFF4"/>
</svg>
