<svg width="25" height="25" viewBox="0 0 25 25" fill="none" xmlns="http://www.w3.org/2000/svg">
<g clip-path="url(#clip0_91_34016)">
<path opacity="0.974" fill-rule="evenodd" clip-rule="evenodd" d="M-0.0244141 19.7022C-0.0244141 14.9008 -0.0244141 10.0993 -0.0244141 5.29788C0.257636 4.47214 0.827295 3.95944 1.68457 3.7598C8.91323 3.71127 16.1398 3.72755 23.3643 3.80863C24.1947 4.07658 24.7074 4.63811 24.9023 5.4932C24.9349 10.1644 24.9349 14.8356 24.9023 19.5069C24.6851 20.3416 24.1724 20.9031 23.3643 21.1914C16.1557 21.2724 8.94536 21.2887 1.7334 21.2403C0.873887 21.0316 0.287949 20.5189 -0.0244141 19.7022ZM1.97754 5.24906C8.9437 5.2409 15.9099 5.24906 22.876 5.27347C23.0815 5.33143 23.2361 5.4535 23.3398 5.63968C23.4052 5.89534 23.4296 6.15579 23.4131 6.42093C16.0889 6.42093 8.76465 6.42093 1.44043 6.42093C1.32204 5.87655 1.50108 5.48592 1.97754 5.24906ZM1.44043 7.9346C8.76465 7.9346 16.0889 7.9346 23.4131 7.9346C23.4131 10.9619 23.4131 13.9893 23.4131 17.0166C16.0889 17.0166 8.76465 17.0166 1.44043 17.0166C1.44043 13.9893 1.44043 10.9619 1.44043 7.9346ZM20.4834 12.3291C20.5616 12.5117 20.6104 12.707 20.6299 12.9151C20.4799 12.9305 20.3334 12.9143 20.1904 12.8662C20.3011 12.6937 20.3987 12.5147 20.4834 12.3291ZM1.44043 18.5791C8.76465 18.5791 16.0889 18.5791 23.4131 18.5791C23.4296 18.8443 23.4052 19.1047 23.3398 19.3604C23.2379 19.546 23.0833 19.6681 22.876 19.7266C15.9098 19.7592 8.9437 19.7592 1.97754 19.7266C1.77022 19.6681 1.6156 19.546 1.51367 19.3604C1.44829 19.1047 1.42388 18.8443 1.44043 18.5791Z" fill="#CA1820"/>
<path opacity="0.966" fill-rule="evenodd" clip-rule="evenodd" d="M20.5815 9.4482C20.972 9.38536 21.2732 9.51559 21.4848 9.83883C21.8982 11.4597 22.2807 13.0873 22.6323 14.7216C22.5088 15.4101 22.1181 15.6298 21.4604 15.3808C21.1791 15.1277 21.0326 14.8104 21.021 14.4287C20.4511 14.4205 19.8814 14.4287 19.312 14.4531C19.1512 14.7176 18.9965 14.9862 18.8481 15.2587C18.4429 15.5977 18.0523 15.5814 17.6762 15.2099C17.4517 14.8714 17.4517 14.5296 17.6762 14.1845C18.5187 12.7113 19.3487 11.2302 20.1665 9.74117C20.2798 9.59981 20.4182 9.50216 20.5815 9.4482ZM20.4838 12.3291C20.3992 12.5146 20.3015 12.6936 20.1909 12.8662C20.3338 12.9142 20.4803 12.9305 20.6303 12.915C20.6109 12.7069 20.5621 12.5116 20.4838 12.3291Z" fill="#CA1820"/>
<path opacity="0.958" fill-rule="evenodd" clip-rule="evenodd" d="M2.80731 9.49708C3.3284 9.48892 3.84923 9.49708 4.36981 9.52149C4.56359 9.56856 4.71821 9.67437 4.83368 9.83887C5.10819 10.7742 5.35233 11.7182 5.5661 12.6709C6.12538 11.658 6.70321 10.657 7.2995 9.66798C7.98544 9.33555 8.40863 9.53897 8.56903 10.2783C8.55233 10.3939 8.52792 10.5078 8.49579 10.6201C7.61102 12.219 6.7077 13.8059 5.78583 15.3809C5.31835 15.656 4.91957 15.5828 4.58954 15.1611C4.24813 13.8118 3.91447 12.4608 3.58856 11.1084C3.27848 11.0723 2.96923 11.0316 2.66083 10.9863C2.20815 10.702 2.10235 10.3195 2.34345 9.83887C2.46693 9.67359 2.62155 9.55967 2.80731 9.49708Z" fill="#CA1820"/>
<path opacity="0.958" fill-rule="evenodd" clip-rule="evenodd" d="M10.0831 9.49707C10.6427 9.479 10.952 9.74756 11.0108 10.3027C10.754 11.8563 10.5018 13.4107 10.254 14.9658C10.0529 15.4834 9.68672 15.6543 9.15538 15.4785C8.7836 15.2242 8.66153 14.8743 8.78917 14.4287C9.01705 12.9964 9.24488 11.5641 9.47276 10.1318C9.55489 9.79751 9.75835 9.58594 10.0831 9.49707Z" fill="#CA1820"/>
<path opacity="0.959" fill-rule="evenodd" clip-rule="evenodd" d="M13.6967 9.49708C14.7385 9.48892 15.7802 9.49708 16.8217 9.52149C17.3763 9.69473 17.5635 10.0609 17.3833 10.6201C17.2909 10.7939 17.1525 10.9159 16.9682 10.9863C15.8964 11.0493 14.8222 11.0819 13.7456 11.084C13.4904 11.2996 13.4904 11.5112 13.7456 11.7188C14.2338 11.735 14.7221 11.7513 15.2104 11.7676C16.139 11.8336 16.7331 12.3137 16.9926 13.208C17.1404 14.4262 16.6277 15.1993 15.4545 15.5274C14.3641 15.5599 13.2735 15.5599 12.1831 15.5274C11.6655 15.3263 11.4946 14.9601 11.6704 14.4287C11.7627 14.255 11.9011 14.1329 12.0854 14.0625C13.1108 14.0462 14.1362 14.0299 15.1616 14.0137C15.4566 13.9201 15.5461 13.733 15.4301 13.4522C15.386 13.3935 15.3291 13.3528 15.2592 13.3301C14.7384 13.3138 14.2176 13.2975 13.6967 13.2813C12.848 13.1489 12.3028 12.6688 12.061 11.8408C11.9224 10.5694 12.4676 9.78814 13.6967 9.49708Z" fill="#CA1820"/>
</g>
<defs>
<clipPath id="clip0_91_34016">
<rect width="25" height="25" fill="white"/>
</clipPath>
</defs>
</svg>
