<?xml version="1.0" encoding="UTF-8"?>
<svg version="1.1" viewBox="0 0 2048 2048" width="1280" height="1280" xmlns="http://www.w3.org/2000/svg">
<path transform="translate(0)" d="m0 0h2048v2048h-2048z" fill="#CE3638"/>
<path transform="translate(1317,512)" d="m0 0h12l16 4 12 6 9 7 9 9 8 14 6 15 20 58 15 43 15 44 15 43 2 5 51 1 11 2 10 6 8 11 2 5 1 8v598l-2 13-5 9-9 8-8 3-4 1h-226l1-4 11-14 10-16 7-12 10-22 10-30 6-25 4-27 1-9 1-21v-198l-3-18-6-15-6-11-10-13-9-9-14-9-16-8-42-19-30-13-81-36-41-18-25-11-17-5-21-2-18 2-16 5-17 7-29 13-41 18-45 20-88 39-16 8-12 8-10 9-8 10-8 13-5 12-4 14-1 7v202l2 27 4 27 8 32 6 18 11 25 11 20 11 16 8 10v3h-225l-10-3-8-6-6-7-4-9-1-5v-603l2-9 6-10 9-8 7-3 8-1 139-1 10-5 144-57 169-67 43-17 169-67 43-17 33-13 14-4z" fill="#FEFFFE"/>
<path transform="translate(1038,927)" d="m0 0 10 1 15 6 25 11 15 7 42 19 16 7 15 7 16 7 15 7 35 16 29 13 9 7 5 6 3 6 1 5v207l-4 30-5 22-8 24-9 20-8 13-9 13-12 14-10 10-11 9-18 14-16 12-21 16-16 12-21 16-12 9-21 16-20 15-10 7-9 4-10 1-10-2-13-8-21-16-48-36-13-10-19-14-18-14-16-12-13-10-13-12-8-7-7-8-10-13-12-20-9-19-8-24-5-23-3-21-2-24v-181l1-11 4-10 8-9 23-12 36-16 35-16 71-32 24-11 29-13 11-4z" fill="#FEFFFE"/>
<path transform="translate(949,1116)" d="m0 0 3 1 15 29 12 22 15 29 12 22 19 37 12 22 3 5h2l11-22 12-22 15-29 8-14 8-16 12-23 12-22 9-17 1-1 74-1 1 3-10 19-6 10-6 12-12 21-13 24-13 23-14 26-10 17-6 12-10 17-6 12-10 18-12 21-9 10-7 4-5 2-6 1h-19l-12-3-6-4-8-8-12-21-9-16-6-12-13-23-14-26-16-29-13-24-12-21-15-28-10-18-9-16v-2z" fill="#CE3638"/>
<path transform="translate(1317,548)" d="m0 0h11l12 5 8 7 8 16-1 3-248 98-192 76-19 8h-115l3-3 36-14 32-13 43-17 33-13 30-12 28-11 21-8 12-5 55-22 94-37 28-11 20-8 83-33z" fill="#CE3638"/>
<path transform="translate(1388,673)" d="m0 0h2l12 36 14 41 4 11h-250l3-3 27-11 70-28 26-10 43-17 28-11z" fill="#CE3638"/>
</svg>
