<svg width="25" height="25" viewBox="0 0 25 25" fill="none" xmlns="http://www.w3.org/2000/svg">
<path d="M2.08398 11.6146V6.80212C2.08398 4.67712 3.80273 2.95837 5.92773 2.95837H11.7819C13.9069 2.95837 15.6256 4.28129 15.6256 6.40629" stroke="#CA1820" stroke-width="1.25" stroke-linecap="round" stroke-linejoin="round"/>
<path d="M18.209 12.7084C17.6881 13.2084 17.4381 13.9791 17.6465 14.7707C17.9069 15.7395 18.8652 16.3541 19.8652 16.3541H20.834V17.8646C20.834 20.1666 18.9694 22.0312 16.6674 22.0312H6.25066C3.94857 22.0312 2.08398 20.1666 2.08398 17.8646V10.5729C2.08398 8.27084 3.94857 6.40625 6.25066 6.40625H16.6674C18.959 6.40625 20.834 8.28125 20.834 10.5729V12.0833H19.709C19.1256 12.0833 18.5944 12.3125 18.209 12.7084Z" stroke="#CA1820" stroke-width="1.25" stroke-linecap="round" stroke-linejoin="round"/>
<path d="M22.917 13.1461V15.2918C22.917 15.8752 22.4378 16.3543 21.8441 16.3543H19.8337C18.7087 16.3543 17.6775 15.5314 17.5837 14.4064C17.5212 13.7502 17.7712 13.1356 18.2087 12.7086C18.5941 12.3127 19.1253 12.0835 19.7087 12.0835H21.8441C22.4378 12.0835 22.917 12.5627 22.917 13.1461Z" stroke="#CA1820" stroke-width="1.25" stroke-linecap="round" stroke-linejoin="round"/>
<path d="M9.81766 17.5L6.25 10H7.63401L9.40246 13.7822L10.5866 16.5974H10.6634L11.8783 13.7822L13.6621 10H15L11.3862 17.5H9.81766Z" fill="#CA1820"/>
</svg>
